<?xml version="1.0" encoding="utf-8"?>
<!-- Generator: Adobe Illustrator 16.0.0, SVG Export Plug-In . SVG Version: 6.00 Build 0)  -->
<!DOCTYPE svg PUBLIC "-//W3C//DTD SVG 1.1//EN" "http://www.w3.org/Graphics/SVG/1.1/DTD/svg11.dtd">
<svg version="1.1" xmlns="http://www.w3.org/2000/svg" xmlns:xlink="http://www.w3.org/1999/xlink" x="0px" y="0px"
	 width="1119.114px" height="701.257px" viewBox="0 0 1119.114 701.257" enable-background="new 0 0 1119.114 701.257"
	 xml:space="preserve">
<g>
	<path d="M464.19,262.336c3.624-1.212,6.666-3.634,6.666-5.454c0-1.21-3.017-1.818-6.666,0c-3.632,1.197-6.673,3.634-6.645,5.454
		C457.546,263.543,460.559,263.543,464.19,262.336z"/>
	<path d="M409.117,298.027c-3.639,1.221-6.648,3.634-6.648,4.84c0,1.815,3.01,1.815,6.648,0.599
		c3.014-1.207,6.063-3.634,6.063-5.438C415.18,296.217,412.154,296.217,409.117,298.027z"/>
	<path d="M393.385,328.888c-4.238,0-6.655,1.836-8.461,4.245l-15.139,7.263l4.84,4.838l35.715-18.756l-4.842-3.629L393.385,328.888z
		 M393.37,329.484l1.212,1.217c-3.645,0-6.063,1.207-7.873,3.644l-1.195-1.212C387.341,330.724,389.746,329.508,393.37,329.484z
		 M409.137,326.478l-34.512,17.549l-3.63-3.03l0.603-0.601l3.027,3.036l33.91-17.563L409.137,326.478z"/>
	<path d="M700.83,143.7c2.434-0.6,4.855-3.021,4.855-4.233c0-1.207-2.427-1.207-4.855,0c-3.024,1.212-4.83,3.018-4.83,4.233
		C696,144.912,697.806,144.912,700.83,143.7z"/>
	<path d="M711.115,150.95c3.018-1.222,5.451-3.019,5.451-4.224c0-1.212-2.414-1.212-5.451,0c-2.416,0.599-4.846,2.422-4.846,3.619
		S708.699,152.156,711.115,150.95z"/>
	<path d="M714.756,169.119c-3.046,1.208-4.848,3.014-4.848,4.229c0,1.213,1.811,1.213,4.848,0c2.412-1.215,4.846-3.021,4.846-4.229
		C719.602,167.922,717.168,167.922,714.756,169.119z"/>
	<path d="M714.152,137.644c3.016-1.197,4.854-3.025,4.854-4.242c0-1.197-1.823-1.197-4.854-0.594
		c-3.037,1.207-4.848,3.03-4.848,4.228C709.305,138.231,711.115,138.231,714.152,137.644z"/>
	<path d="M694.778,159.429c3.027-1.192,4.854-3.021,4.854-4.214c0-1.211-1.813-1.211-4.854-0.608
		c-2.422,1.208-4.834,3.019-4.834,4.219C689.944,160.042,692.375,160.042,694.778,159.429z"/>
	<path d="M533.793,262.336c1.211,0.594,3.643,0.594,4.845,0l102.284-52.646c3.639-1.813-7.25,0.601-7.872,1.203l-93.196,47.21
		c-1.216,0.607-3.646,0.607-4.246-0.599l-22.988-18.156c-0.623-0.622-10.916-3.045-7.89-1.234L533.793,262.336z"/>
	<path d="M538.638,257.48l92.607-46.588v-1.203l-23.006-16.963c-0.604-0.6-1.208-0.6-1.813,0l-91.997,45.387
		c-0.604,0-0.604,1.215-0.604,1.215l22.394,18.152C536.834,257.48,538.054,257.48,538.638,257.48z"/>
	<path d="M531.982,267.199c1.206,1.203,3.625,1.203,4.852,0l110.752-56.289c0.604-0.606,1.217-2.408,0.604-3.034l-36.322-27.227
		c-0.588-0.608-3.029-0.608-3.628,0l-111.968,55.059c-0.597,0.595-1.211,2.405,0,3.036L531.982,267.199z M498.082,235.708
		l110.147-54.493c0.585-0.618,2.422-0.618,3.628,0l35.089,26.014c1.216,0.618,1.216,2.434,0,3.045l-109.534,56.275
		c-1.205,0.608-3.639,0.608-4.842-0.594l-35.091-27.842C496.875,237.514,497.479,235.708,498.082,235.708z"/>
	<path d="M660.285,195.743c12.699,0.611,23.596-5.45,23.596-13.308c0-8.483-10.896-15.148-23.596-16.355
		c-13.32-0.594-23.616,5.459-23.616,13.316C636.669,187.885,646.965,194.549,660.285,195.743z M660.285,168.522
		c9.688,0.597,18.157,6.046,18.157,12.104c0,5.447-8.47,10.289-18.157,9.666c-9.678-0.594-18.16-6.046-18.16-12.099
		C642.125,172.741,650.607,167.922,660.285,168.522z"/>
	<path d="M478.718,254.468c3.621-1.216,6.657-3.638,6.657-4.846c0-1.813-3.036-1.813-6.657-0.603
		c-3.639,1.211-6.061,3.635-6.061,5.448C472.657,256.274,475.079,256.274,478.718,254.468z"/>
	<path d="M482.967,262.336c0,1.805,3.006,1.805,6.649,0.594c3.013-1.203,6.059-3.639,6.059-5.449c0-1.809-3.022-1.809-6.059-0.608
		C485.973,258.691,482.967,261.124,482.967,262.336z"/>
	<path d="M671.174,158.84c2.431-1.206,4.85-3.025,4.85-4.233c0-1.211-2.426-1.211-4.85,0c-3.006,0.608-4.847,2.41-4.847,3.63
		C666.327,159.447,668.143,160.047,671.174,158.84z"/>
	<path d="M681.468,165.486c3.04-0.608,4.854-3.022,4.854-4.229c0-1.211-1.814-1.211-4.854,0c-3.025,1.206-4.842,3.025-4.842,4.229
		C676.626,166.692,678.442,166.692,681.468,165.486z"/>
	<path d="M724.445,144.298c3.025-1.197,5.44-3.024,5.44-4.232c0-1.205-2.415-1.205-5.44,0c-2.427,1.227-4.844,3.035-4.844,4.232
		S722.024,145.495,724.445,144.298z"/>
	<path d="M684.493,152.176c3.027-1.217,4.841-3.045,4.841-4.244c0-1.205-1.813-1.205-4.841,0c-3.025,1.217-4.845,3.027-4.845,4.244
		C679.648,153.381,681.459,153.381,684.493,152.176z"/>
	<path d="M660.285,189.11c9.688,0.589,16.951-3.644,16.951-9.083c0-5.459-7.264-10.3-16.951-10.908
		c-9.678-0.597-16.944,3.622-16.944,9.095C643.341,183.658,650.607,188.507,660.285,189.11z M654.229,170.93
		c3.022,0,6.056,1.812,6.056,3.639c0,1.815-3.033,3.042-6.056,3.042c-3.645-0.599-6.651-1.83-6.651-3.639
		C648.172,172.133,650.607,170.327,654.229,170.93z"/>
	<path d="M444.83,299.851l-11.504,5.449l9.697,7.866l10.878-6.053C451.482,303.486,449.061,301.053,444.83,299.851z"/>
	<path d="M807.956,90.437c3.031-1.206,5.453-3.017,5.453-4.222c0-1.203-2.413-1.203-5.453-0.605c-2.436,1.207-4.83,3.021-4.83,4.229
		C803.126,91.051,805.549,91.051,807.956,90.437z"/>
	<path d="M817.632,96.488c3.027-0.602,5.451-3.03,5.451-4.24c0-1.197-2.424-1.197-5.451,0c-2.412,1.219-4.816,3.035-4.844,4.24
		C812.788,97.7,815.22,97.7,817.632,96.488z"/>
	<path d="M691.158,168.522c-3.033,1.205-4.859,3.017-4.859,4.219c0,1.211,1.815,1.211,4.859,0c2.425-1.188,4.834-3.014,4.834-4.219
		C696,167.314,693.559,167.314,691.158,168.522z"/>
	<path d="M827.923,103.767c3.021-1.206,4.85-3.03,4.85-4.242c0-1.197-1.805-1.197-4.85-0.599c-2.408,1.197-4.84,3.013-4.84,4.237
		C823.083,104.365,825.515,104.365,827.923,103.767z"/>
	<path d="M805.521,103.145c3.039-1.206,4.854-3.031,4.854-4.247c0-1.197-1.815-1.197-4.854-0.595
		c-2.395,1.208-4.827,3.033-4.838,4.238C800.683,103.747,803.126,104.355,805.521,103.145z"/>
	<path d="M507.769,268.388l-11.497,5.444l9.09,7.255l10.891-5.45C513.826,272.018,511.418,268.987,507.769,268.388z"/>
	<path d="M817.048,111.03l-9.092,4.224l9.092,6.67l8.467-4.847C823.097,114.061,820.688,111.63,817.048,111.03z"/>
	<path d="M748.054,146.143l-9.09,4.219l9.09,6.679l8.47-4.845C754.118,149.173,751.685,146.746,748.054,146.143z"/>
	<path d="M804.335,117.671l-9.086,4.831l8.47,6.05l9.097-4.233C810.394,120.707,807.376,118.271,804.335,117.671z"/>
	<path d="M795.852,96.488c3.031-1.205,4.842-3.03,4.842-4.24c0-1.197-1.811-1.197-4.842,0c-2.397,1.219-4.85,3.035-4.85,4.24
		C791.002,97.7,793.454,97.7,795.852,96.488z"/>
	<path d="M767.4,136.446l9.089,6.654l8.479-4.841c-2.427-3.02-5.45-5.452-8.479-6.056L767.4,136.446z"/>
	<path d="M704.461,161.855c-3.021,1.202-4.828,3.027-4.85,4.258c0,1.201,1.813,1.201,4.85,0c2.434-0.604,4.844-2.438,4.844-3.649
		C709.305,161.258,706.869,160.65,704.461,161.855z"/>
	<path d="M762.569,138.86l-9.088,4.84l9.088,6.028l8.476-4.214C768.622,141.881,765.615,139.467,762.569,138.86z"/>
	<path d="M790.407,124.94l-9.086,4.845l9.086,6.053l8.467-4.242C796.466,127.979,793.454,125.543,790.407,124.94z"/>
	<path d="M424.23,295.609c3.643-1.203,6.071-3.62,6.071-5.439c0-1.825-2.429-1.825-6.071,0c-3.611,1.22-6.655,3.634-6.655,4.836
		C417.575,296.819,420.619,296.819,424.23,295.609z"/>
	<path d="M755.296,116.475c2.408-0.604,4.841-2.428,4.841-3.633c0-1.212-2.423-1.812-4.841-0.601
		c-3.021,1.197-5.431,3.013-5.431,4.233C749.865,117.683,752.275,117.683,755.296,116.475z"/>
	<path d="M752.878,129.785c3.045-1.197,5.449-3.03,5.449-4.236c0-1.208-2.404-1.208-5.449,0c-2.407,1.206-4.841,3.039-4.841,4.236
		C748.037,130.997,750.471,130.997,752.878,129.785z"/>
	<path d="M427.873,308.925l-12.098,5.444l9.672,7.872l10.896-6.058C433.932,312.539,431.518,309.522,427.873,308.925z"/>
	<path d="M729.877,129.188c3.008-1.208,4.849-3.035,4.849-4.247c0-1.208-1.813-1.208-4.849,0c-3.026,0.603-4.846,3.039-4.846,4.247
		C725.031,130.385,726.851,130.385,729.877,129.188z"/>
	<path d="M743.206,122.507c3.041-0.594,4.848-3.011,4.848-4.228c0-1.202-1.807-1.202-4.848,0c-3.027,1.217-4.847,3.022-4.847,4.228
		C738.359,123.719,740.179,123.719,743.206,122.507z"/>
	<path d="M764.981,123.732c3.022-1.211,4.855-3.025,4.855-4.236c0-1.217-1.819-1.217-4.855-0.608
		c-3.025,1.202-4.845,2.998-4.845,4.228C760.137,124.341,761.956,124.341,764.981,123.732z"/>
	<path d="M739.559,136.446c3.016-1.206,4.859-3.045,4.859-4.242c0-1.207-1.816-1.207-4.859-0.589
		c-2.424,1.192-4.833,3.003-4.833,4.223C734.726,137.045,737.154,137.045,739.559,136.446z"/>
	<path d="M780.711,104.365c2.433-0.599,4.842-3.029,4.842-4.242c0-1.197-2.423-1.197-4.842,0c-3.012,1.213-4.826,3.04-4.841,4.242
		C775.87,105.586,777.671,105.586,780.711,104.365z"/>
	<path d="M790.407,111.03c3.047-1.211,4.842-3.036,4.842-4.247c0-1.197-1.795-1.197-4.842,0c-3.017,0.613-4.845,3.017-4.845,4.247
		C785.553,112.241,787.368,112.241,790.407,111.03z"/>
	<path d="M485.375,279.885l-11.506,5.452l9.063,7.858l10.909-6.053C491.417,283.514,488.994,280.486,485.375,279.885z"/>
	<path d="M468.435,287.746l-11.497,6.058l9.094,7.249l10.878-5.443C474.486,291.989,472.054,288.944,468.435,287.746z"/>
	<path d="M778.294,117.058c3.045-1.187,4.85-3.011,4.85-4.216c0-1.212-1.805-1.212-4.85,0c-2.409,0.597-4.836,3.016-4.836,4.216
		C773.458,118.271,775.885,118.271,778.294,117.058z"/>
	<path d="M768.622,110.428c2.431-1.203,4.854-3.045,4.854-4.247s-2.432-1.202-4.854,0c-3.035,0.603-5.438,2.419-5.438,3.639
		C763.184,111.03,765.587,111.63,768.622,110.428z"/>
	<path d="M474.477,270.796c3.01-1.809,6.047-4.247,6.047-5.447c0-1.811-3.012-1.811-6.047-0.608
		c-3.62,1.215-6.662,3.639-6.662,5.452C467.814,272.003,470.856,272.003,474.477,270.796z"/>
	<path d="M701.439,175.78c-3.031,0.604-5.447,2.434-5.447,3.649c0,1.197,2.416,1.805,5.447,0.598
		c2.433-1.211,4.851-3.05,4.851-4.247C706.29,174.568,703.847,174.568,701.439,175.78z"/>
	<path d="M449.061,279.271c0,1.816,2.422,1.834,6.043,0.614c3.625-1.23,6.656-3.645,6.656-5.453c0-1.816-3.017-1.816-6.656-0.6
		C451.469,275.637,449.061,278.051,449.061,279.271z"/>
	<path d="M1109.958,109.191c-23.604-16.341-45.381-33.271-70.204-47.789L945.352,5.117c-4.845-3.041-11.511-6.057-16.964-4.841
		c-9.668,2.413-17.539,8.461-18.151,11.496L28.438,443.896c-3.035-2.418-4.861-2.418-7.269-1.211l-15.116,8.47
		C1.203,452.961,0,457.803,0,462.652l4.225,45.382c0.603,7.269,3.643,15.14,8.459,21.184l160.998,169.475
		c3.635,3.616,10.902,3.022,15.134,0.595l13.924-7.853c1.206-1.212,3.036-1.812,3.64-4.223l890.877-518.093
		c2.409,0.608,5.438-1.197,8.462-3.039l4.846-3.026c3.033-2.418,4.839-4.229,5.438-8.461l3.05-25.425
		C1119.649,122.507,1116.001,113.438,1109.958,109.191z M30.244,443.896L910.849,12.371c7.251-3.634,15.131-4.842,21.181-1.212
		l55.688,33.296c0.603,0,1.811,0.6,2.419,1.816c0.603,0.603,0.603,1.814,0,1.814L96.828,511.08c-2.434,1.211-1.83,3.033,1.205,1.211
		L990.738,50.493c1.806-0.597,2.4,1.834,2.4,2.434c0,2.423,0,4.233,0,7.264L104.074,523.16L30.244,443.896z M969.556,74.104
		l57.49,24.821l2.416,6.66l-59.906-26.655V74.104L969.556,74.104z M955.033,81.364l56.894,26.019l2.411,6.664l-59.907-27.248
		L955.033,81.364z M939.291,89.828l56.881,26.029l2.415,6.645l-59.91-27.823L939.291,89.828z M971.986,128.565l3.036,7.881
		l-60.525-29.05v-4.847l-0.019-0.009h0.019v0.009L971.986,128.565z M974.405,127.963l3.025-1.807l4.856,7.858l-4.856,3.642
		L974.405,127.963z M898.146,110.428l57.502,27.216l2.412,7.871l-60.531-29.657L898.146,110.428z M933.841,158.825l-61.111-29.657
		l0.58-4.827l57.512,27.222L933.841,158.825z M933.238,150.361l3.016-1.812l4.846,7.868l-4.846,3.629L933.238,150.361z
		 M918.122,168.502l-61.733-30.858l0.598-5.439l57.492,27.829L918.122,168.502z M916.892,159.429l3.035-1.804l4.215,7.861
		l-4.215,3.036L916.892,159.429z M901.167,177.591l-61.134-31.478v-5.435l57.508,28.44L901.167,177.591z M900.564,168.522
		l2.411-2.409l5.43,8.455l-5.43,3.042L900.564,168.522z M871.523,183.059l3.643,8.46l-61.129-31.472v-5.436l-0.022-0.005h0.022
		v0.005L871.523,183.059z M873.917,182.436l3.037-2.408l5.447,8.455l-5.447,3.036L873.917,182.436z M856.963,199.971l-60.512-30.865
		l0.612-4.822l55.686,27.824L856.963,199.971z M856.36,191.519l3.64-2.422l4.222,9.063l-5.438,3.03L856.36,191.519z M830.339,215.71
		l-60.502-32.672l0.6-5.447l56.275,29.652L830.339,215.71z M829.747,205.442l3.025-1.823l5.45,9.682l-5.45,3.035L829.747,205.442z
		 M813.409,225.406l-61.738-33.279l1.207-4.85l57.497,29.662L813.409,225.406z M812.184,215.71l3.036-1.825l4.846,8.475
		l-4.846,3.032L812.184,215.71z M795.234,235.081l-61.127-33.282l0.618-5.444l56.888,30.266L795.234,235.081z M794.648,225.406
		l3.027-1.811l4.832,8.46l-5.444,3.652L794.648,225.406z M767.4,249.622l-60.531-33.885l0.613-4.845l56.275,30.863L767.4,249.622z
		 M766.821,240.525l3.64-2.412l4.235,8.476l-4.85,3.613L766.821,240.525z M688.736,220.559l55.682,30.869l3.011,8.467
		l-59.304-33.274L688.736,220.559z M720.204,276.223l-61.126-35.09v-6.052l57.516,32.677L720.204,276.223z M719.006,266.568
		l3.621-2.419l4.252,9.069l-4.854,3.644L719.006,266.568z M701.439,286.559l-61.734-36.313l0.604-5.475l56.884,32.704
		L701.439,286.559z M700.213,276.839l3.014-1.823l5.459,7.885l-6.055,3.03L700.213,276.839z M682.076,296.819l-60.526-35.718v-5.441
		l56.893,32.057L682.076,296.819z M680.247,287.143l4.246-3.039l4.841,9.7l-6.056,3.619L680.247,287.143z M651.811,313.774
		l-61.116-36.936l0.585-5.443l56.893,32.07L651.811,313.774z M650.607,303.466l3.635-2.432l4.849,9.088l-5.45,3.044L650.607,303.466
		z M630.643,324.068l-59.914-36.926l1.195-6.656l55.073,34.485L630.643,324.068z M630.006,314.369l3.635-2.42l5.447,9.08
		l-6.649,3.643L630.006,314.369z M599.16,341.01l-59.307-37.523l0.595-6.063l55.687,34.499L599.16,341.01z M598.547,331.922
		l4.241-3.034l5.451,9.097l-6.661,3.634L598.547,331.922z M578.604,352.515l-59.329-38.127l0.595-6.065l55.092,33.893
		L578.604,352.515z M577.969,342.215l4.245-2.411l5.444,9.672l-6.645,3.634L577.969,342.215z M558.603,364.004l-59.899-39.332
		l0.582-6.057l55.082,35.094L558.603,364.004z M557.38,353.709l3.642-2.434l6.053,9.088l-6.654,4.242L557.38,353.709z
		 M522.296,370.653l3.634,10.299l-58.703-39.956v-6.039l-0.014-0.014h0.014v0.014L522.296,370.653z M525.304,370.653l4.228-2.408
		l4.846,9.672l-6.656,3.644L525.304,370.653z M503.551,393.66l-58.703-40.551l0.584-6.661l54.479,36.923L503.551,393.66z
		 M502.928,382.768l3.614-1.815l5.454,9.093l-6.655,4.223L502.928,382.768z M470.856,413.031l-59.937-42.976l0.613-6.655
		l55.076,38.132L470.856,413.031z M469.037,400.919l3.017-2.409l7.269,10.291l-6.665,3.619L469.037,400.919z M447.852,424.535
		l-58.105-41.155l0.613-7.272l53.244,36.924L447.852,424.535z M446.047,413.031l4.235-2.422l6.655,9.678l-7.26,4.248
		L446.047,413.031z M426.05,437.231l-58.698-44.188l0.614-6.038l53.86,39.334L426.05,437.231z M424.23,425.129l4.256-2.439
		L434.539,433l-7.265,4.231L424.23,425.129z M390.373,455.402l-57.511-42.982l0.604-6.66l52.065,37.535L390.373,455.402z
		 M389.146,443.896l4.842-2.418l6.071,10.29l-7.872,4.233L389.146,443.896z M364.943,468.699l-57.511-45.979l1.225-4.846
		l52.038,39.334L364.943,468.699z M364.34,458.41l4.818-3.633l6.061,9.681l-8.47,4.863L364.34,458.41z M272.928,436.03
		l50.846,39.933l4.238,12.708l-55.084-44.774V436.03z M304.996,502.006l-55.681-46.592l0.628-6.676l50.83,41.168L304.996,502.006z
		 M303.809,490.476l5.449-3.025l6.654,10.294l-9.074,4.846L303.809,490.476z M280.803,515.303l-55.678-47.215l0.604-6.647
		l50.231,41.149L280.803,515.303z M279.596,503.217l5.451-3.039l6.657,10.297l-9.701,5.45L279.596,503.217z M241.471,535.896
		l-54.479-49.031v-6.047h0.023l50.229,41.762L241.471,535.896z M240.257,522.58l5.476-3.039l6.656,12.103l-9.092,4.848
		L240.257,522.58z M215.43,551.013l-55.082-50.237l0.621-6.646l50.236,43.572L215.43,551.013z M214.236,537.701l5.453-3.035
		l6.658,12.105l-9.075,4.841L214.236,537.701z M176.1,572.189l-55.685-50.84l1.223-6.65l50.229,44.779L176.1,572.189z
		 M174.885,559.502l4.862-3.035l7.269,11.495l-9.097,4.841L174.885,559.502z M196.664,635.758l-6.053-7.871l-1.804-13.308
		l-37.534-34.502L106.5,528.024l11.484-6.053l58.115,54.462l3.639-1.811l31.467,29.031l2.42,22.408L196.664,635.758z
		 M216.064,624.84l-3.029-23.01l-31.473-28.441l9.072-4.838l-3.619-4.23l-6.057-9.084l-47.211-41.768l10.291-4.846l90.178,82.309
		l1.816,22.4L216.064,624.84z M238.451,612.129l-2.418-22.391l-90.789-81.704l12.709-6.659l59.319,52.659l8.47-4.851l30.864,28.455
		l1.806,23.003L238.451,612.129z M260.831,599.436l-2.415-23.002l-30.86-27.854l3.036-1.809l-4.244-4.229l-6.055-9.079
		l-46.611-40.541l9.695-5.452l58.692,52.041l4.229-2.419l33.282,28.46l1.827,21.77L260.831,599.436z M283.842,586.139l-2.419-21.773
		l-32.688-28.469l7.872-4.253l-4.241-4.216l-5.455-9.095l-47.813-38.726l10.303-5.45l91.977,78.688l1.828,22.391L283.842,586.139z
		 M305.016,574l-1.811-22.393l-92.603-78.086l10.893-5.42l59.321,50.84l9.682-5.449l32.674,27.823l1.205,21.782L305.016,574z
		 M326.793,561.896l-2.416-22.407l-32.068-27.236l3.014-1.216l-4.848-4.233l-5.428-8.475l-48.426-38.721l9.07-4.205l60.535,50.224
		l6.042-3.63l32.076,27.222l1.815,21.781L326.793,561.896z M347.967,549.807l-2.416-21.782l-31.465-26.649l5.451-3.021l-3.647-4.225
		l-6.054-8.475l-49.025-38.118l8.484-4.851l61.733,49.629l2.418-1.839l32.076,27.255l1.829,21.183L347.967,549.807z
		 M328.012,477.773l5.455-3.016l5.447,9.672l-7.855,5.458L328.012,477.773z M369.18,537.725l-1.814-21.8l-32.086-26.019l7.859-4.85
		l-4.225-4.22l-5.455-9.093l-48.397-36.922l7.858-4.227l93.81,75.055l1.21,21.777L369.18,537.725z M389.736,526.196l-1.807-21.776
		l-93.813-74.434l11.496-6.066l61.136,48.429l7.868-4.247l32.673,26.027l0.594,21.781L389.736,526.196z M410.317,514.699
		l-1.797-22.404l-32.081-25.41l3.644-1.813l-4.851-3.036l-5.447-9.092l-49.033-36.923l7.888-4.844l62.323,47.859l3.633-2.437
		l32.679,25.421l1.212,21.771L410.317,514.699z M430.914,502.59l-1.824-22.397l-32.688-24.79l7.872-3.647l-5.447-3.63l-5.456-9.078
		l-48.394-35.709l7.852-4.225l95.023,72.011l0.588,21.799L430.914,502.59z M468.462,481.421l-17.567,10.28l-1.203-22.38
		l-95.015-70.839l9.653-5.422l62.342,46.608l7.871-4.237l33.919,25.41V481.421L468.462,481.421z M470.871,480.188l-1.211-21.169
		L436.381,434.2l2.418-1.2l-4.227-3.032l-4.873-8.475l-50.852-35.713l7.882-4.244l61.71,46.01l6.064-3.04l32.699,24.208
		l1.203,21.787L470.871,480.188z M490.191,469.327l-1.822-21.776l-32.077-24.219l4.847-2.414l-3.63-2.403l-6.063-9.677
		l-50.83-34.504l7.905-4.289l62.94,45.396l2.408-1.206l33.271,23.605l1.217,21.196L490.191,469.327z M510.188,457.803l-1.207-21.174
		l-33.281-23.598l7.268-4.854l-3.652-1.828l-5.445-9.063l-50.836-35.093l6.666-3.036l96.821,68.39l0.606,20.579L510.188,457.803z
		 M528.928,446.914l-1.207-21.202l-96.203-67.772l9.677-4.83l64.146,44.184l7.259-4.232l32.68,23.602l1.205,20.569L528.928,446.914z
		 M548.311,436.045l-1.207-21.174l-32.674-23.002l2.412-1.206l-4.223-2.419l-4.851-9.729l-51.438-33.892l6.66-3.006l63.543,42.964
		l4.242-1.805l33.285,23.609l0.605,20.575L548.311,436.045z M567.061,425.73l-1.211-21.174l-33.279-22.996l6.044-3.644l-4.224-2.419
		l-4.83-8.465l-51.454-33.278l6.666-3.634l98.03,65.348l0.596,21.193L567.061,425.73z M585.227,415.44l-0.605-20.583l-98.04-65.97
		l9.094-4.216l63.532,42.965l7.867-4.845l33.895,22.402l0.609,20.565L585.227,415.44z M603.996,404.557l-1.208-19.975
		l-33.894-22.367l1.824-1.215l-3.645-3.041l-4.85-7.881L510.188,316.8l5.447-3.025l64.756,41.763l4.836-2.428l33.907,22.398
		l1.217,19.961L603.996,404.557z M622.134,394.25l-1.208-19.364l-33.899-22.407l4.847-2.428l-3.631-2.408l-5.447-9.083
		l-52.047-32.671l5.459-2.423l64.141,41.169l3.046-1.825l33.275,21.194l1.217,21.784L622.134,394.25z M639.705,384.582
		l-0.593-21.164l-33.908-21.203l6.653-3.633l-3.628-2.408l-5.469-9.092l-52.038-31.473l6.657-3.62l96.85,62.944l1.2,20.564
		L639.705,384.582z M657.227,374.297l-0.604-19.965l-98.048-62.942l8.499-4.247l64.147,40.542l7.258-3.616l33.88,21.174
		l1.209,19.962L657.227,374.297z M675.418,364.004l-0.597-19.369l-34.493-21.786l3.045-1.819l-3.643-1.815l-5.455-9.092
		l-52.062-30.852l5.444-3.03l64.756,39.953l3.639-1.806l33.908,21.172l1.203,19.973L675.418,364.004z M706.908,346.448
		l-13.916,7.858l-0.607-19.363l-34.521-21.169l6.051-3.652l-5.439-3.631l-4.232-7.253l-51.443-30.874l4.854-2.409l99.853,59.302
		L706.908,346.448z M709.288,345.233v-19.967l-100.474-59.901l9.097-4.85l64.754,39.335l6.655-3.619l34.513,19.962l0.595,19.98
		L709.288,345.233z M740.782,327.082l-14.527,7.861v-18.76l-35.091-21.189l2.419-1.21l-3.639-1.206l-4.847-9.069l-53.272-30.266
		l4.844-2.413l65.374,38.114l4.227-1.802l34.513,19.971V327.082z M757.12,317.408l-13.914,8.461l-0.604-19.357l-34.507-20.581
		l4.851-1.827l-3.641-2.405l-5.458-8.479l-53.262-30.261l4.845-1.806l65.372,38.118l2.429-1.196l33.89,19.968V317.408
		L757.12,317.408z M759.534,316.184l-0.604-18.761l-34.485-19.972l6.657-4.236l-3.632-1.819l-4.849-9.074l-53.253-29.049
		l4.229-1.812l99.86,56.889l0.604,19.973L759.534,316.184z M775.899,307.092v-19.375l-101.06-56.886l9.041-4.828l66.59,36.927
		l5.438-3.035l33.904,19.376l0.605,19.968L775.899,307.092z M748.037,250.83l3.035-1.811l4.224,8.461l-5.431,3.035L748.037,250.83z
		 M806.131,290.131l-13.914,7.873v-19.358l-34.513-19.374l2.433-1.2l-4.242-2.439l-4.224-8.47l-53.865-28.428l5.453-3.024
		l65.976,36.931l2.422-1.834l34.475,19.367V290.131z M808.557,288.944l-0.614-19.354l-34.484-19.359l4.836-3.048l-3.021-1.202
		l-4.236-8.472l-53.878-29.054l4.252-2.418l100.46,55.681l0.608,19.369L808.557,288.944z M837.625,272.018l-13.313,7.867v-18.761
		L723.24,205.442l7.25-3.644l67.186,35.715l5.45-3.619l34.499,18.76V272.018L837.625,272.018z M840.033,270.796l-0.604-18.76
		l-34.495-18.764l1.217-1.217l-3.025-1.191l-4.243-9.084l-54.465-27.253l4.224-2.42l65.957,35.721l4.241-2.419l33.9,18.162
		l0.603,19.972L840.033,270.796z M868.484,254.45l-13.313,7.871v-18.75l-34.513-18.76l3.653-2.419l-4.229-1.809l-4.241-8.467
		l-53.876-27.226l3.628-1.847l66.575,35.083l2.413-1.208l33.901,18.161V254.45z M883.604,245.98l-12.697,7.263v-18.162
		l-35.108-18.745l6.063-3.629l-3.026-1.212l-5.468-9.093l-53.253-26.646l3.03-1.805l100.46,53.268V245.98L883.604,245.98z
		 M898.733,237.514l-12.707,7.258V226.62l-101.058-53.879l7.843-3.622l65.972,33.906l6.053-3.04l33.908,18.151v19.377H898.733z
		 M913.253,229.033l-12.105,7.25l-0.608-18.755l-33.89-18.151l1.202-0.608l-3.044-1.819l-4.234-8.48l-53.83-26.613l3.027-1.813
		l67.184,33.273l2.419-1.208l34.488,16.96L913.253,229.033z M928.388,220.546L915.69,227.8v-18.732l-35.112-17.549l5.448-3.036
		l-3.022-0.598l-5.437-9.69l-53.881-25.425l3.639-1.819l101.066,50.831v18.765H928.388z M942.335,212.692l-11.482,6.642v-18.146
		l-101.699-51.459l6.645-3.615l67.178,33.283l6.055-3.027l33.899,16.936L942.335,212.692z M957.451,204.231l-12.706,7.264V193.33
		l-34.509-18.158l1.206-0.604l-2.412-0.597l-5.449-9.683l-53.858-24.822l2.422-1.823l67.188,32.084l3.621-1.205l34.497,17.552
		V204.231L957.451,204.231z M971.974,196.338l-12.112,6.649l-0.604-17.559l-35.093-18.151l4.224-1.811l-3.614-1.202l-4.243-9.098
		l-54.47-24.807l3.027-1.192l67.166,32.066l1.206-0.599l34.514,17.539V196.338L971.974,196.338z M985.874,187.898l-12.109,6.661
		v-17.573l-34.474-17.558l4.844-2.412l-3.035-1.202l-4.232-9.068l-54.488-24.822l4.232-1.811l99.263,50.242V187.898z
		 M1000.438,179.999l-12.108,6.661v-17.555l-99.854-50.232l5.423-3.016l66.582,32.074l5.454-3.039l34.503,17.559V179.999
		L1000.438,179.999z M958.06,137.045l3.016-1.805l4.244,7.86l-4.855,3.646L958.06,137.045z M1013.712,172.133l-11.478,6.658v-17.533
		L967.729,143.7l1.202-0.6l-3.033-1.197l-4.245-8.475l-53.849-24.812l1.818-0.623l67.801,30.866l1.8-1.217l35.098,16.963
		L1013.712,172.133z M1027.651,164.283l-12.105,6.646l0.604-17.549l-34.484-16.935l3.634-1.828l-2.411-1.217l-4.862-9.061
		l-53.885-24.218l2.428-1.197l101.685,47.217L1027.651,164.283z M1040.981,157.04l-11.503,6.649l0.604-18.764L928.388,98.337
		l6.058-3.054l67.188,30.26l4.836-2.413l35.114,15.748L1040.981,157.04z M999.219,114.65l2.414-1.795l4.241,8.465l-4.241,2.412
		L999.219,114.65z M1054.303,149.148l-11.513,6.666l0.613-18.158l-35.098-15.743l1.198-0.611l-2.395-1.212l-4.875-9.06
		l-53.872-23.61l1.831-0.604l67.163,30.261l1.828-1.206l35.721,15.725L1054.303,149.148z M1014.338,106.783l3.036-1.805l4.243,7.863
		l-4.243,2.412L1014.338,106.783z M1067.588,141.881l-11.491,6.051l0.613-17.547l-35.111-15.734l3.644-1.809l-3.044-1.212
		l-4.239-8.467l-54.48-23.604l1.236-0.628l67.782,30.257l0.593-0.6l35.102,15.121L1067.588,141.881z M1029.462,98.303l3.035-1.814
		l4.232,7.867l-4.232,2.419L1029.462,98.303z M1080.913,134.618l-11.491,6.061l0.599-18.172l-35.111-15.11l4.845-2.418l-2.417-1.212
		l-4.209-8.467L978.63,71.676l1.195-0.594l101.69,44.775L1080.913,134.618z M1095.432,126.156l-12.699,7.245l0.6-18.751
		L981.646,70.476l12.729-6.666l102.279,44.185L1095.432,126.156z"/>
	<path d="M332.862,337.377c0,1.809,3.017,1.809,6.655,0.597c3.621-1.202,6.65-3.619,6.65-5.444c0-1.813-3.029-1.813-6.65-0.607
		C335.879,333.746,332.862,336.174,332.862,337.377z"/>
	<path d="M372.193,321.029c3.629-1.202,6.654-3.644,6.654-5.454c0-1.206-3.025-1.206-6.654,0c-3.64,1.225-6.047,3.639-6.047,5.454
		C366.146,322.241,368.554,322.849,372.193,321.029z"/>
	<path d="M343.742,353.717l-15.121,7.27l4.825,4.845l35.712-18.16l-4.842-4.228l-12.707,6.061
		C347.385,349.504,345.551,351.31,343.742,353.717z M367.365,347.07h0.601l-34.499,18.158l-3.639-3.645l0.612-0.598l3.026,3.03
		L367.365,347.07z M352.814,351.275c-3.022,0-5.43,1.223-7.264,3.63l-1.206-1.196c1.823-2.419,4.247-3.631,7.866-3.645
		L352.814,351.275z"/>
	<path d="M346.781,321.029c3.616-1.202,6.656-3.644,6.656-5.454c0-1.206-3.021-1.801-6.656,0c-3.643,1.225-6.061,3.639-6.061,5.454
		C340.721,322.241,343.139,322.241,346.781,321.029z"/>
	<path d="M349.817,329.508c0,1.819,3.011,1.819,6.655,0.604c3.619-1.835,6.655-4.243,6.655-5.449c0-1.814-3.036-1.814-6.655-0.595
		C352.828,325.267,349.817,327.707,349.817,329.508z"/>
	<path d="M432.725,287.143c0,1.802,3.025,1.802,6.654,0.604c3.645-1.212,6.668-3.643,6.668-5.463c0-1.797-3.023-1.797-6.668-0.585
		C435.742,283.509,432.725,285.931,432.725,287.143z"/>
	<path d="M430.302,279.885c3.619-1.834,6.655-4.248,6.655-5.45c0-1.819-3.025-1.819-6.655-0.603
		c-3.649,1.202-6.665,3.619-6.665,5.449C423.637,281.087,426.652,281.087,430.302,279.885z"/>
	<path d="M446.047,272.003c3.631-1.221,6.041-3.639,6.041-5.454c0-1.805-2.41-1.805-6.041-0.594c-3.65,1.824-6.668,4.237-6.668,5.44
		C439.379,273.205,442.414,273.205,446.047,272.003z"/>
	<path d="M398.826,294.994c3.617-1.818,6.652-4.235,6.652-5.43c0-1.818-3.01-1.818-6.652-0.62c-3.625,1.814-6.055,4.251-6.055,5.438
		C392.771,296.197,395.201,296.197,398.826,294.994z"/>
	<path d="M414.563,287.746c3.645-1.815,6.057-4.237,6.057-5.463c0-1.797-2.412-1.797-6.057-0.585
		c-3.643,1.202-6.654,3.636-6.654,5.444C407.912,288.944,410.92,288.944,414.563,287.746z"/>
	<path d="M386.117,311.355c0,1.203,3.016,1.811,6.654,0c3.63-1.233,6.055-3.642,6.055-5.452c0-1.206-2.434-1.206-6.055,0
		C389.146,307.113,386.117,309.542,386.117,311.355z"/>
	<path d="M383.1,302.867c3.63-1.206,6.047-3.619,6.047-5.444c0-1.206-2.417-1.813-6.047,0c-3.653,1.226-6.674,3.63-6.66,4.836
		C376.439,304.069,379.446,304.069,383.1,302.867z"/>
	<path d="M330.44,329.484c3.619-1.824,6.645-4.228,6.645-5.438c0-1.806-3.011-1.806-6.645-0.604
		c-3.634,1.823-6.667,4.236-6.667,5.444C323.773,330.701,326.793,330.701,330.44,329.484z"/>
</g>
</svg>
