<?xml version="1.0" encoding="utf-8"?>
<!-- Generator: Adobe Illustrator 16.0.0, SVG Export Plug-In . SVG Version: 6.00 Build 0)  -->
<!DOCTYPE svg PUBLIC "-//W3C//DTD SVG 1.1//EN" "http://www.w3.org/Graphics/SVG/1.1/DTD/svg11.dtd">
<svg version="1.1" xmlns="http://www.w3.org/2000/svg" xmlns:xlink="http://www.w3.org/1999/xlink" x="0px" y="0px"
	 width="751.998px" height="638.251px" viewBox="0 0 751.998 638.251" enable-background="new 0 0 751.998 638.251"
	 xml:space="preserve">
<g>
	<path d="M750.511,190.088l-22.376-68.512c0,0-2.907-16.971-7.53-23.506c-8.228-11.543-14.524-13.988-14.524-13.988L569.194,1.762
		c-18.604-8.739-28.069,17.867-28.069,17.867l167.486,105.767l23.572,78.45C759.747,223.672,750.511,190.088,750.511,190.088z"/>
	<path d="M238.769,402.62c34.367-45.366,79.196-75.016,121.282-84.502L685.538,122.65l-8.35-5.151L389.562,284.604l-2.834-2.293
		l285.254-168.023L546.046,36.692L269.86,197.688l-2.357-1.313l-0.019-0.118l-0.104,0.054l-0.574-0.323l0.49,0.374l-4.131,2.366
		l2.377,70.512c0,0-39.118-15.649-78.472,0.973l2.804,2.746l-23.066-20.672l99.414-56.718l0.047,0.041L540.936,33.537l-6.12-3.773
		L151.397,245.941c0,0-162.041,98.063-67.609,229.849c0,0,1.338,1.377,3.666,3.773c6.854-8.217,10.936-14.374,10.936-14.374
		l32.058,7.62c35.945,89.564,60.423,109.422,60.423,109.422l-0.061,0.03c-25.33-24.152-56.535-55.551-78.26-77.658
		c-9.271-9.43-18.483-17.966-23.832-23.29c-5.869,7.016-13.697,15.458-22.828,23.021c-28.451,22.272-59.985,46.195-65.302,80.491
		c-4.337,27.968,16.14,42.752,33.911,47.23c27.814,12.887,73.215-13.559,73.215-13.559l80.583-38.118
		c6.786,6.455,13.132,12.383,18.73,17.461C176.237,550.484,187.681,470.087,238.769,402.62z M79.921,591.423
		c-11.123,10.755-24.604,14.827-30.109,9.124c-5.477-5.673-0.932-19.02,10.176-29.748c11.124-10.742,24.607-14.816,30.125-9.114
		C95.605,567.389,91.065,580.705,79.921,591.423z M389.367,284.587l-37.878,22.416l-82.421-63.761l-1.565-46.739L389.367,284.587z
		 M270.081,273.677l-0.697-21.145l74.955,58.709l-18.831,11.141l-54.253-46.339c0,0-28.953-7.736-61.382-1.439l76.844,70.712
		c0,0,1.181-0.711,3.175-1.858l-12.815,7.586l-85.347-76.439C231.048,258.052,270.081,273.677,270.081,273.677z M287.63,319.62
		c-5.617,3.227-10.916,6.281-10.916,6.281l-45.209-41.599c19.101-3.703,36.125,0.815,36.125,0.815l1.58,1.37
		c-4.902-0.021-10.381,0.342-16.028,1.44L287.63,319.62z"/>
	<path d="M402.739,315.792c15.239,2.073,29.323,7.5,41.41,16.678c2.973,2.263,5.725,4.673,8.322,7.278
		c-54.306-30.754-139.463,1.344-196.141,76.179c-56.648,74.834-64.51,165.5-20.202,209.417c-2.879-1.641-5.685-3.437-8.386-5.428
		c0.283,0.212,0.553,0.459,0.802,0.671c53.439,40.466,145.399,9.05,205.384-70.152c31.198-41.194,47.561-87.157,48.635-127.513
		c48.013-136.931,238.454-216.845,238.454-216.845l-18.671-72.065L402.739,315.792z M383.419,512.177
		c-28.115,37.112-71.217,51.82-96.232,32.863c-25.028-18.979-22.53-64.416,5.58-101.519c28.107-37.143,71.195-51.845,96.223-32.889
		C414.038,429.605,411.521,475.048,383.419,512.177z"/>
</g>
</svg>
