<?xml version="1.0" encoding="utf-8"?>
<!-- Generator: Adobe Illustrator 16.0.0, SVG Export Plug-In . SVG Version: 6.00 Build 0)  -->
<!DOCTYPE svg PUBLIC "-//W3C//DTD SVG 1.1//EN" "http://www.w3.org/Graphics/SVG/1.1/DTD/svg11.dtd">
<svg version="1.1" xmlns="http://www.w3.org/2000/svg" xmlns:xlink="http://www.w3.org/1999/xlink" x="0px" y="0px"
	 width="762.973px" height="820.361px" viewBox="0 0 762.973 820.361" enable-background="new 0 0 762.973 820.361"
	 xml:space="preserve">
<path d="M689.384,597.582c-54.997-26.363-110.562-51.52-165.591-78.439c-10.527-47.395-20.472-94.779-27.495-142.775
	c-4.676-33.939-2.914-32.178,15.21-56.762c16.402-22.828,23.427-53.834,38.048-79.004c36.28-63.176,35.093-136.326-12.872-192.501
	c-84.274-98.9-275.617-34.528-284.961,95.388c-5.861,83.075,71.97,136.905,126.961,184.898
	c14.053,12.287,16.381,20.477,33.363,23.412c10.525,1.762,16.39,20.485,18.713,27.508c10.54,34.523,18.158,70.224,24.582,105.91
	c-25.754-13.455-51.496-26.93-76.658-41.553c-29.26-17.561-26.913-17.561-34.531-47.393c-7.027-26.906-26.906-52.071-37.443-78.99
	c-27.508-67.87-84.854-112.361-157.994-110.598C18.822,210.777-51.398,399.777,44.564,488.723
	c60.846,56.746,151.551,29.257,223.518,16.963c18.131-3.511,26.324-0.584,39.211-11.711c7.594-7.002,26.322,0,33.344,2.945
	c43.299,16.97,84.853,39.212,125.824,63.208c10.525,71.966,19.877,144.511,40.362,214.159c6.434,21.063,18.142,52.091,46.804,45.059
	c39.205-10.535,22.231-80.162,16.976-104.744c-8.788-36.271-17.556-72.557-26.325-109.416
	c49.156,29.271,98.895,57.344,151.563,79.004c20.472,8.167,52.062,18.707,64.359-8.193
	C777.169,638.537,711.613,608.127,689.384,597.582z M164.519,319.018c-15.225,27.496-22.817,49.75-47.978,39.211
	C64.465,335.408,137.604,221.3,184.996,257C216.031,279.822,177.982,294.452,164.519,319.018z M387.466,107.783
	C371.672,46.34,498.654,25.262,505.098,92.562c2.319,23.409-21.075,11.126-46.838,15.819
	C424.91,114.227,393.33,130.61,387.466,107.783z M438.378,379.869c-4.093-12.874-11.689-33.938-27.495-35.104
	c-6.442-0.576-15.818-1.762-9.961-4.668c31.606-17.564,65.539-27.517,106.504-26.933c8.201,0-8.782,10.542-13.466,16.972
	c-8.183,10.537-7.6,24.584-5.854,36.858c6.444,47.399,16.404,97.731,27.521,148.614c-18.155-8.75-35.699-17.559-53.855-26.896
	C455.351,450.66,447.733,413.801,438.378,379.869z M563.598,716.336c5.255,21.663,7.593,46.24,7.593,66.137
	c0,33.945-35.093,40.964-48.562,14.055c-9.947-20.48-14.623-45.057-19.894-69.05c-12.292-52.679-20.47-108.237-28.659-163.245
	c20.463,11.673,40.943,23.95,61.43,36.248C545.475,639.685,554.826,678.895,563.598,716.336z M723.336,685.908
	c-22.229-5.271-44.458-16.972-66.117-27.498C550.73,607.51,444.24,532.611,345.352,491.07c-12.297-4.686-33.942-12.289-44.482-0.585
	c-4.097,4.685-11.119,11.095-9.945,4.685c5.849-35.715,19.297-67.893,45.641-100.072c5.26-5.863,2.922,14.027,4.676,21.06
	c2.924,12.882,14.613,21.653,25.16,28.093c96.543,57.33,216.504,110.01,320.076,159.168c19.891,9.949,40.965,23.396,56.18,35.686
	C768.977,660.752,752.602,692.349,723.336,685.908z"/>
</svg>
