<?xml version="1.0" encoding="utf-8"?>
<!-- Generator: Adobe Illustrator 16.0.0, SVG Export Plug-In . SVG Version: 6.00 Build 0)  -->
<!DOCTYPE svg PUBLIC "-//W3C//DTD SVG 1.1//EN" "http://www.w3.org/Graphics/SVG/1.1/DTD/svg11.dtd">
<svg version="1.1" xmlns="http://www.w3.org/2000/svg" xmlns:xlink="http://www.w3.org/1999/xlink" x="0px" y="0px"
	 width="993.259px" height="1004.551px" viewBox="0 0 993.259 1004.551" enable-background="new 0 0 993.259 1004.551"
	 xml:space="preserve">
<g>
	<path d="M254.581,479.189c-20.178-3.644-38.83-3.843-55.771-0.586c-11.871-33.313-22.065-62.979-31.116-90.512
		c32.313-40.358,66.066-87.578,74.525-133.546c17.617-95.652-31.776-205.351-81.5-217.41c-9.926-2.403-20.598,2.34-31.093,13.914
		c-24.998,27.589-45.045,89.968-41.248,128.355c3.034,30.954,13.742,76.925,32.729,140.491
		C5.656,457.131-9.278,529.861,4.032,608.867c14.325,84.99,100.809,156.795,188.834,156.795c7.185,0,14.4-0.479,21.444-1.423
		c18.867-2.553,36.93-7.475,53.775-14.653c8.981,21.768,50.204,128.547,13.914,173.123c-18.687,22.977-39.638,34.618-62.275,34.618
		c-13.587,0-25.159-4.283-32.95-8.232c27.867-8.58,45.818-36.763,40.85-66.275c-4.803-28.535-29.264-49.25-58.164-49.25
		c-3.295,0-6.623,0.28-9.895,0.832c-15.563,2.612-29.167,11.134-38.316,23.991c-9.148,12.848-12.745,28.508-10.135,43.991
		c0.128,0.807,3.183,19.93,18.72,36.483c1.707,1.721,42.506,42.388,93.866,42.395c0.007,0,0.007,0,0.007,0
		c31.269,0,59.424-15.132,83.675-44.952c44.974-55.299-4.548-176.989-14.352-199.579c53.502-33.505,63.059-83.249,64.723-97.918
		C363.553,587.521,348.357,496.181,254.581,479.189z M282.688,708.283c-10.19-28.496-22.29-61.243-35.056-95.786
		c-7.833-21.21-15.969-43.224-24.17-65.612c7.706-0.452,15.538,0.28,23.374,2.159c30.072,7.216,51.618,28.048,60.679,58.654
		c9.728,32.888,3.266,72.203-15.023,91.438C289.531,702.24,286.252,705.304,282.688,708.283z M146.622,290.363
		c-2.166,2.443-4.294,4.88-6.406,7.287c-9.071-33.483-14.574-59.683-16.792-79.934c-3.723-33.773,11.579-86.71,31.48-108.927
		c5.946-6.645,11.769-10.011,17.308-10.011c7.471,0,14.876,6.19,21.998,18.394C222.468,165.593,206.899,222.243,146.622,290.363z
		 M70.263,518.388c13.403-28.679,40.716-61.579,69.643-96.407c3.252-3.919,6.528-7.86,9.8-11.828
		c8.101,24.427,16.739,49.829,25.713,75.678c-43.434,19.479-65.142,66.522-67.385,105.429
		c-3.303,56.577,44.983,99.699,65.43,101.979c4.896,0.564,9.054-1.389,11.493-5.113c2.377-3.634,2.692-8.342,0.838-12.591
		c-2.024-4.655-6.095-7.673-10.807-11.176c-3.444-2.552-7.333-5.438-11.42-9.588c-11.104-11.288-14.984-28.598-10.667-47.49
		c5.571-24.367,22.979-44.97,45.91-54.684c6.797,19.211,13.485,38.019,19.948,56.146c15.233,42.813,29.657,83.339,40.471,115.348
		c-14.357,7.698-36.003,16.081-62.211,16.081c-30.82,0-60.733-11.418-88.892-33.945C32.582,645.813,45.836,570.729,70.263,518.388z"
		/>
	<path d="M992.877,111.132c-0.488-1.08-1.41-1.904-2.532-2.283L662.464,0.214c-2.089-0.691-4.391,0.343-5.258,2.389L541.09,278.632
		c-17.237-17.249-46.821-27.33-78.706-26.252c-50.615,1.727-90.85,30.895-89.69,65.021c1.155,34.025,42.809,60.409,93.938,58.689
		c41.204-1.395,75.977-20.448,86.502-47.304L659.735,75.436l277.571,92.474l-76.51,181.804
		c-17.178-17.23-46.707-27.33-78.676-26.228c-50.621,1.733-90.862,30.907-89.707,65.03c1.136,32.955,40.323,58.769,89.199,58.772
		c1.589,0,3.17-0.025,4.767-0.081c41.163-1.413,75.94-20.457,86.488-47.301l120.063-285.368
		C993.385,113.445,993.367,112.213,992.877,111.132z"/>
	<path d="M769.441,662.311c-12.75-7.378-27.268-13.842-40.065-19.553c-10.458-4.659-20.347-9.063-27.758-13.277
		c-45.653-25.899-53.66-55.676-53.729-55.96c-0.508-2.087-2.498-3.455-4.633-3.215c-2.135,0.256-3.747,2.066-3.752,4.218
		l-0.597,299.466c-9.097-3.737-19.752-5.689-31.253-5.689c-16.781,0-34.578,4.104-51.471,11.859
		c-22.018,10.105-40.172,25.305-51.1,42.81c-11.271,18.054-13.596,36.453-6.554,51.785c8.556,18.655,30.11,29.797,57.671,29.797
		h0.008c16.83,0,34.684-4.113,51.63-11.904c37.454-17.192,62.179-48.197,61.544-77.044l0.563-231.172
		c47.163,1.164,80.916,15.172,100.392,41.671c33.825,46.032,13.325,115.283,13.118,115.979c-0.616,2.052,0.374,4.236,2.319,5.117
		c1.954,0.877,4.252,0.18,5.368-1.643c1.641-2.667,40.036-65.846,25.609-123.121C810.348,697.005,794.433,676.781,769.441,662.311z"
		/>
</g>
</svg>
