<?xml version="1.0" encoding="utf-8"?>
<!-- Generator: Adobe Illustrator 16.0.0, SVG Export Plug-In . SVG Version: 6.00 Build 0)  -->
<!DOCTYPE svg PUBLIC "-//W3C//DTD SVG 1.1//EN" "http://www.w3.org/Graphics/SVG/1.1/DTD/svg11.dtd">
<svg version="1.1" xmlns="http://www.w3.org/2000/svg" xmlns:xlink="http://www.w3.org/1999/xlink" x="0px" y="0px"
	 width="865.009px" height="778.793px" viewBox="0 0 865.009 778.793" enable-background="new 0 0 865.009 778.793"
	 xml:space="preserve">
<g>
	<path d="M108.885,483.522c3.932,0,7.298-2.837,7.298-6.75c0-3.379-3.386-6.188-7.298-6.188c-3.939,0-7.315,2.81-7.315,6.188
		C101.569,480.704,104.963,483.522,108.885,483.522z"/>
	<path d="M154.343,534.561c3.932,0,7.296-2.791,7.296-6.175c0-3.371-3.385-6.736-7.296-6.736c-3.94,0-7.306,3.365-7.306,6.736
		C147.037,531.77,150.422,534.561,154.343,534.561z"/>
	<path d="M334.467,263.512c3.375,0,5.598-1.684,5.598-3.365c0-2.238-2.223-3.922-5.598-3.922c-3.385,0-5.619,1.684-5.609,3.922
		C328.857,261.828,331.102,263.512,334.467,263.512z"/>
	<path d="M279.479,288.215c-2.819,0-5.621,1.133-5.621,3.343c0,1.683,2.802,3.365,5.621,3.365c3.365,0,6.174-1.683,6.174-3.365
		C285.652,289.328,282.826,288.215,279.479,288.215z"/>
	<path d="M117.275,381.35c-3.355,0-5.59,1.128-5.59,3.367c0,1.678,2.216,3.366,5.59,3.366c3.395,0,6.184-1.688,6.184-3.366
		C123.459,382.478,120.649,381.35,117.275,381.35z"/>
	<path d="M227.29,317.396c-3.394,0-6.167,1.684-6.167,3.914c0,1.682,2.811,3.365,6.167,3.365c3.365,0,5.589-1.684,5.589-3.365
		C232.879,319.08,230.655,317.396,227.29,317.396z"/>
	<path d="M173.406,347.686c-3.359,0-5.602,1.703-5.602,3.367c0,2.248,2.225,3.931,5.602,3.931c3.383,0,6.172-1.683,6.172-3.931
		C179.578,349.365,176.771,347.686,173.406,347.686z"/>
	<path d="M572.398,108.624c-2.811,0-5.629,1.118-5.609,3.366c0,1.687,2.809,3.369,5.609,3.369c3.373,0,6.174-1.683,6.174-3.369
		C578.572,109.742,575.764,108.624,572.398,108.624z"/>
	<path d="M626.256,85.623c-3.365,0-5.592,1.7-5.592,3.366c0,2.242,2.227,3.364,5.592,3.364c3.364,0,5.619-1.122,5.619-3.364
		C631.875,87.307,629.62,85.623,626.256,85.623z"/>
	<path d="M531.982,138.934c-3.365,0-6.164,1.135-6.184,3.364c0,1.683,2.818,3.366,6.184,3.366s5.609-1.684,5.609-3.366
		C537.592,140.068,535.348,138.934,531.982,138.934z"/>
	<path d="M861.923,115.92l-19.655-13.441l18.533-12.364l-1.112-12.9L750.824,8.197l-29.186,17.959L685.166,2.583
		c-14.039-9.544-44.316,9.536-39.84,21.898c-14.584-8.432-47.137,14.015-40.406,26.346l-2.791-1.659
		c-15.703-11.242-54.431,16.828-38.16,29.176l34.23,24.742l-3.348,1.684l-42.1-30.299c-15.714-11.219-54.987,16.832-38.718,29.162
		l37.587,28.06l-2.244,1.682l-44.893-33.681c-15.704-11.221-54.422,16.831-38.708,29.188l40.395,31.427l-3.366,1.682l-47.699-37.035
		c-15.139-11.792-53.847,16.269-38.16,29.178l42.666,34.787l-4.496,2.809l-49.936-39.842c-7.279-5.609-20.184-2.255-29.732,5.037
		c-6.166,3.361-10.664,8.413-13.462,15.721c-0.567,2.813-1.115,5.608-1.679,8.408l-5.608-4.481
		c-14.595-12.351-53.302,15.699-38.152,29.165l47.683,42.664l-6.177,3.366l-52.733-46.565
		c-12.359-11.229-43.215,6.736-42.081,21.309c-2.255,2.81-3.376,6.188-4.499,9.555l-4.486-5.048
		c-14.037-12.921-56.676,14.027-42.649,28.61l51.635,51.067l-6.752,4.482l-54.442-53.89c-14.018-13.461-58.92,13.486-44.891,28.069
		l52.735,54.994l-6.724,3.93l-55.561-58.924c-13.471-14.033-60.599,12.34-46.59,27.494l55.555,60.599l-7.289,4.492l-56.674-62.848
		c-12.906-14.046-59.496,12.334-46.59,28.037l55.554,64.548l-12.903,7.292l-16.274-18.516L0,437.485l166.078,217.144l9.533,5.614
		l12.905-8.999l14.603,43.225l25.812,34.775l94.28-85.271l-10.682,90.33c2.254,8.419,12.906,8.975,19.646,5.617l1.678-2.794
		l12.914-114.487l42.66-38.167l62.267,190.8c6.192,6.736,15.732,2.8,20.775-3.359v-3.367l-67.349-198.656L747.44,260.128
		l14.593,9.544l66.217-59.489l-1.678-51.612l3.354-3.927C843.956,153.516,874.83,123.236,861.923,115.92z M751.4,12.684
		l104.94,66.227l-21.878,16.823L726.154,28.391L751.4,12.684z M391.143,209.086l-27.481,237.935l-9.539-29.177l25.793-210.441
		C381.045,200.662,391.717,201.231,391.143,209.086z M378.793,340.371l70.693,67.365l-3.911,3.357l-67.339-63.408L378.793,340.371z
		 M395.639,452.615l-26.387-26.35l1.133-8.992l30.874,30.864L395.639,452.615z M436.592,501.994
		c-11.786,5.049-24.689,14.033-37.598,30.318l-10.105-10.663l-23.012-67.898l2.244-20.217L436.592,501.994z M340.643,379.121
		l-30.319-89.793l51.076,47.131l-7.296,55.56L340.643,379.121z M353.537,400.455l-1.122,9.536l-1.677-1.683l-5.608-16.263
		L353.537,400.455z M308.646,282.593l-0.577-1.111l-5.034-13.473l11.786,10.657L308.646,282.593z M318.187,201.231
		c-10.671-9.544,24.122-31.444,35.351-21.898l6.741,6.192c1.121,10.097,6.741,19.634,16.263,23.561l-4.48,39.275L318.187,201.231z
		 M303.035,206.836l66.793,60.607l-6.184,51.066l-57.251-53.872c3.366-3.364,6.185-7.313,7.861-11.786
		c9.55-28.617-21.88-50.503-44.337-34.241C276.659,209.641,295.175,200.095,303.035,206.836z M213.244,255.659
		c-10.086-10.11,26.368-32,37.039-22.464l7.861,7.306c0,1.677,0,3.364,0,5.594c1.688,14.612,14.027,26.948,29.178,26.377
		l25.803,79.692L213.244,255.659z M161.055,286.532c-9.541-10.114,26.943-32.556,37.039-21.895l127.963,127.381l20.76,62.299
		l-2.8,21.309L161.055,286.532z M314.246,372.375l4.488-3.356l3.939,11.21L314.246,372.375z M343.424,482.368l-1.669,11.783
		l-80.245-84.727l6.74-5.04L343.424,482.368z M104.945,313.465c-9.541-10.67,29.177-32.555,38.716-21.888l197.537,207.632
		l-8.429,66.776L104.945,313.465z M299.106,533.434l-6.731,6.184l-84.184-93.163l6.739-5.053L299.106,533.434z M168.372,650.162
		L5.057,438.021l65.666-33.084l159.943,190.221L168.372,650.162z M232.879,588.998l-84.721-100.461l11.775-8.419l85.305,98.778
		L232.879,588.998z M49.393,346.003c-9.543-10.662,29.74-34.8,39.273-24.137l241.285,266.564v4.484
		c-16.81,8.997-25.236,17.957-34.211,31.435L49.393,346.003z M298.549,633.318c11.803-6.179,21.334-12.345,29.734-24.129
		l-1.123,5.03C319.873,623.792,311.457,628.837,298.549,633.318z M331.082,736.022c-0.556,5.048-16.261,3.343-15.695-2.239
		l33.664-275.536l10.096,30.281L331.082,736.022z M358.6,517.714l13.461,14.042l6.752,19.646
		c-8.984,5.595-19.1,14.019-26.953,24.695L358.6,517.714z M352.415,586.17c11.784-6.172,21.882-14.014,29.753-24.129l0.557,3.365
		C373.184,574.375,361.965,583.374,352.415,586.17z M469.697,769.121c1.681,5.049-13.451,9.53-15.14,4.492L289.01,269.695
		c-1.123-4.505,9.539-6.184,10.66-3.368L469.697,769.121z M404.049,539.617c14.584-6.184,29.742-18.523,36.463-29.176
		C436.023,522.222,419.207,535.672,404.049,539.617z M370.932,408.309l6.749-56.681L487.102,454.32
		c-11.783,4.484-24.691,13.462-37.595,30.305L370.932,408.309z M455.671,494.151c14.585-6.18,29.178-18.525,35.917-29.168
		C487.646,476.754,470.256,490.211,455.671,494.151z M379.348,333.669l6.177-52.188l146.458,131.875
		c-11.792,4.478-24.696,11.218-37.604,28.045L379.348,333.669z M414.701,302.229l5.043-3.931l77.443,69.583l-4.486,3.934
		L414.701,302.229z M501.131,453.751c14.582-6.181,29.741-18.534,36.471-29.742C533.662,435.803,516.277,449.82,501.131,453.751z
		 M387.768,262.389l5.6-48.813l183.5,157.123c-11.21,3.359-19.09,10.65-34.241,28.059L387.768,262.389z M395.639,210.768
		c1.67-0.566,3.355-1.117,4.469-1.682l11.229,9.534l-3.921,2.819L395.639,210.768z M462.979,268.578l3.92-2.818l76.313,63.973
		l-3.92,3.365L462.979,268.578z M547.152,410.538c14.582-6.166,29.167-17.959,35.907-29.177
		C579.119,393.135,561.744,406.62,547.152,410.538z M404.613,206.845c1.688-1.121,3.365-2.243,5.055-3.921
		c18.504-19.641,5.033-48.822-17.414-49.936c5.055-1.141,9.559-1.141,12.359,1.113L622.898,332
		c-11.773,3.366-23.013,11.773-35.916,28.041L404.613,206.845z M510.113,235.452l3.921-2.786l73.513,60.047l-3.355,2.785
		L510.113,235.452z M591.458,369.566c14.595-6.185,29.743-18.514,36.476-29.742C624.02,351.628,606.627,365.084,591.458,369.566z
		 M418.075,151.848c-10.66-8.98,24.134-33.107,35.343-24.138l212.139,164.423c-14.594,6.165-20.221,12.346-33.129,29.178
		L418.075,151.848z M556.126,203.471l3.356-2.239l71.27,54.988l-2.801,2.244L556.126,203.471z M634.672,331.414
		c14.029-6.173,29.177-18.522,35.929-29.166C666.678,314.032,649.266,327.479,634.672,331.414z M468.013,124.919
		c-11.229-8.433,23.01-31.435,34.229-23.012l203.7,152.083c-12.331,6.166-16.828,10.087-31.429,26.358L468.013,124.919z
		 M601.001,172.056l2.808-1.685l68.479,51.068l-2.254,1.676L601.001,172.056z M676.765,292.702
		c14.584-6.17,26.915-17.971,33.665-28.625C706.508,275.861,691.933,288.759,676.765,292.702z M516.277,99.107
		c-11.217-8.419,23.014-31.429,34.23-23.01l193.03,143.093c-12.349,5.608-16.848,9.546-31.432,26.382L516.277,99.107z
		 M645.354,141.177l2.81-1.679l65.093,47.71l-1.668,1.679L645.354,141.177z M714.936,255.67
		c14.584-6.176,26.924-15.722,33.664-26.934C744.66,240.501,730.076,251.729,714.936,255.67z M565.674,74.959
		c-11.254-8.399,22.986-31.415,34.212-23.005l186.31,130.192c-12.35,6.167-16.846,9.541-31.43,26.362L565.674,74.959z
		 M755.332,220.312c14.018-6.179,26.386-16.821,33.116-27.494C784.508,204.596,769.914,216.377,755.332,220.312z M609.429,50.818
		c-11.219-7.845,22.999-30.846,34.229-22.975L821.555,150.15c-12.34,5.62-17.401,9.56-31.449,26.387L609.429,50.818z
		 M791.803,187.208c14.577-6.192,26.37-16.837,33.109-27.498C820.98,171.495,806.38,183.283,791.803,187.208z M826.025,142.867
		L650.387,25.576c-11.228-7.843,20.762-28.619,32.555-20.744L858.03,117.604C844.568,122.653,840.061,126.027,826.025,142.867z
		 M829.966,151.848c14.582-6.184,26.367-17.393,33.117-28.056C858.586,135.024,844.568,147.922,829.966,151.848z"/>
	<path d="M668.346,59.246c-3.384,0-6.174,1.683-6.174,3.364c0,1.683,2.809,3.366,6.174,3.366c2.803,0,5.609-1.684,5.609-3.366
		C673.955,60.929,671.148,59.246,668.346,59.246z"/>
	<path d="M709.316,34.555c-2.809,0-5.619,1.692-5.619,3.366c0,1.683,2.811,3.36,5.619,3.36c3.366,0,6.156-1.678,6.156-3.36
		C715.473,36.247,712.674,34.555,709.316,34.555z"/>
	<path d="M483.727,166.441c-3.357,0-5.6,1.658-5.6,3.346c0,2.252,2.242,3.365,5.6,3.365c3.364,0,5.6-1.113,5.6-3.365
		C489.326,168.1,487.091,166.441,483.727,166.441z"/>
	<path d="M433.227,196.749c-3.367,0-5.602,1.683-5.602,3.365c0,2.234,2.234,3.356,5.602,3.356c3.365,0,5.617-1.122,5.617-3.356
		C438.844,198.432,436.592,196.749,433.227,196.749z"/>
</g>
</svg>
