<?xml version="1.0" encoding="utf-8"?>
<!-- Generator: Adobe Illustrator 16.0.0, SVG Export Plug-In . SVG Version: 6.00 Build 0)  -->
<!DOCTYPE svg PUBLIC "-//W3C//DTD SVG 1.1//EN" "http://www.w3.org/Graphics/SVG/1.1/DTD/svg11.dtd">
<svg version="1.1" xmlns="http://www.w3.org/2000/svg" xmlns:xlink="http://www.w3.org/1999/xlink" x="0px" y="0px"
	 width="580.049px" height="1128.664px" viewBox="0 0 580.049 1128.664" enable-background="new 0 0 580.049 1128.664"
	 xml:space="preserve">
<path d="M579.051,1000.504l-20.342-9.794l-15.818,1.514l-216.222-62.54l-0.763-10.549c-1.504-13.573-17.309-24.859-17.309-36.16
	c0-3.024-3.785-6.018-8.301-7.523l-6.031-392.528c0-1.497-0.757-2.25-2.268-3.012l-0.757-152.187
	c0.757-0.753,1.515-2.245,1.515-3.759v-16.577l262.173-15.074l10.547-15.816c5.276-8.305,3.034-24.105-17.315-26.375L484.127,24.861
	C479.611,8.282,468.307,0,450.99,0L29.873,5.276C4.256,6.034-3.286,12.064,1.233,40.685l45.958,281.009l225.258-13.556v15.823
	c0,2.246,1.49,3.762,3.002,3.762l0.755,151.432c-1.512,0.755-3.022,2.248-3.022,3.764v7.542h-6.781v-9.774H255.11v26.368h11.292
	v-12.057h6.747l7.544,381.22c-4.516,0.76-5.28,4.5-5.28,6.77c0,6.01-2.247,10.546-4.51,14.294l-43.69-39.913
	c0.758-4.533-0.741-9.033-5.285-12.055c-6.008-3.747-13.556-4.506-17.307,0.753c-3.012,6.012-0.761,14.292,4.516,17.317
	c3.778,2.268,7.542,3.779,11.304,2.268l42.952,40.665c-2.251,3.026-4.521,6.808-4.521,12.063l-0.755,15.045
	c0,3.781,1.494,7.528,4.516,10.552L111.2,1086.366l-15.063,3.779l-16.581,21.836c-4.515,6.052,9.795,20.344,15.064,15.808
	l20.344-15.049l6.788-16.564l152.188-143.901c5.277,2.268,12.045,3.779,18.83,3.779c13.561,0,25.612-5.294,30.894-12.818
	l213.952,62.541l12.813,11.306l24.106,3.74C577.541,1021.587,582.076,1002.013,579.051,1000.504z M325.936,206.423
	c0.752,2.272-0.76,4.523-3.764,4.523c-3.029,0-6.033-2.251-6.791-4.523c0-2.26,1.507-4.516,4.517-4.516
	C322.926,201.907,325.936,204.163,325.936,206.423z M311.6,167.256c3.027,0,5.277,1.513,6.033,4.518
	c0.756,2.27-1.518,4.525-4.523,4.525c-3.001,0-5.276-2.277-6.029-4.525C306.33,168.75,308.598,167.256,311.6,167.256z
	 M273.939,208.695c0.755,3.01-1.513,4.521-4.518,4.521c-2.271,0-5.279-1.511-6.035-4.521c-0.755-2.267,1.514-4.532,4.521-4.532
	C270.913,204.163,273.184,206.423,273.939,208.695z M258.871,167.256c3.02,0,5.271,2.269,6.029,5.277
	c0.761,2.269-1.508,4.539-4.518,4.539c-2.267,0-5.277-2.27-6.035-4.539C254.354,169.507,255.865,167.256,258.871,167.256z
	 M113.476,286.29c-23.347,1.504-48.99-5.265-62.543,28.633c0-42.193,29.381-38.432,61.788-39.926l433.945-21.853
	c7.527,0,20.344,6.764,19.582,13.551c-5.271-2.248-11.303-3-16.57-3L113.476,286.29z M261.142,922.121
	c6.788,15.09,55.752,16.597,61.784-2.229C322.898,941.729,264.9,942.482,261.142,922.121z"/>
</svg>
