<?xml version="1.0" encoding="utf-8"?>
<!-- Generator: Adobe Illustrator 16.0.0, SVG Export Plug-In . SVG Version: 6.00 Build 0)  -->
<!DOCTYPE svg PUBLIC "-//W3C//DTD SVG 1.1//EN" "http://www.w3.org/Graphics/SVG/1.1/DTD/svg11.dtd">
<svg version="1.1" xmlns="http://www.w3.org/2000/svg" xmlns:xlink="http://www.w3.org/1999/xlink" x="0px" y="0px"
	 width="620.456px" height="1022.716px" viewBox="0 0 620.456 1022.716" enable-background="new 0 0 620.456 1022.716"
	 xml:space="preserve">
<g>
	<path d="M617.824,476.021L420.627,37.025c-21.975-49.784-83.401-47.21-113.144-5.166L12.008,457.253
		c-27.148,39.472-6.466,93.129,43.969,95.702l246.972,14.894l208.179,448.046c9.061,13.59,24.568,5.171,20.692-10.338
		L325.564,569.131l226.288,12.95c31.035,1.942,30.382-56.262,0.651-58.183l-249.564-12.956c0-2.57,0-5.161-0.661-7.731l-1.233-2.593
		l-52.369-104.777c-11-12.913-29.742-2.569-26.508,13.589l46.552,99.579L64.404,498.011c-1.309,0-3.882,0-4.535-1.271
		c-0.631-1.966,0.653-3.895,1.283-5.191L354.674,67.422c3.886-5.164,10.361-12.283,13.586-4.514l197.196,438.313
		C580.322,534.835,632.701,508.337,617.824,476.021z M322.342,561.41l-4.525-8.418l221.111,12.911
		c1.303,3.896,3.243,6.472,5.816,8.425L322.342,561.41z M551.853,574.978h-4.525c-2.591-1.956-5.185-5.19-7.128-9.728l3.896-1.921
		c2.583,5.815,7.106,10.998,13.585,10.347C556.387,574.978,553.813,574.978,551.853,574.978z M568.652,554.294
		c-0.623,9.691-6.447,18.729-10.352,18.729c-9.041,0-14.867-10.343-14.216-20.684c0.632-10.343,7.099-20.038,14.216-18.733
		C565.42,534.876,568.652,544.599,568.652,554.294z M557.009,532.303c-7.106,1.303-12.905,9.066-14.226,18.768l-3.855,0.614h-0.659
		c0.659-5.816,5.185-20.654,13.584-20.654C553.795,531.648,555.078,531.648,557.009,532.303z M547.968,531.031
		c-5.806,3.227-10.349,10.966-10.981,20.654l-224.355-9.688l-10.983-23.933L547.968,531.031z M226.664,408.193
		c-4.545-9.71,13.565-18.784,18.081-9.71l52.377,104.091c1.933,4.529,0.651,9.691-1.29,14.893l62.719,131.891
		c-3.877-0.651-8.4,1.271-9.691,5.162l-62.078-133.815c-5.816-1.306-8.408-3.224-10.332-7.77L226.664,408.193z M374.688,59.717
		c-6.466-13.623-18.741-6.508-25.86,3.224L55.326,487.684c-5.184,7.118-3.884,16.812,8.41,17.461l208.818,11.646
		c2.565,3.874,5.818,6.471,10.344,8.39l7.758,15.541l-215.297-9.074c-10.35-0.623-34.277-1.927-43.958-3.227
		c12.925,7.119,32.335,9.728,42.016,10.345l222.415,12.91l3.883,8.428L56.609,545.866c-47.845-2.57-60.128-53.005-38.133-84.689
		C116.744,319.59,213.08,176.703,313.301,36.401c26.498-36.845,80.81-41.39,100.842,3.219l197.855,440.942
		c-3.233-1.926-7.769-3.228-12.941-2.569L409.636,44.827c-9.061-21.336-23.929-29.724-42.026-31.029
		c10.973,5.197,23.256,22.62,27.781,32.318l191.381,435.773c-7.109,3.894-12.295,10.34-14.877,16.807
		C502.709,353.883,441.283,205.179,374.688,59.717z M572.547,499.984c1.93-6.468,6.456-12.915,14.225-17.465l0.641,6.467
		c-5.178,2.573-12.265,9.694-9.691,16.81C575.779,504.5,573.827,502.557,572.547,499.984z M578.992,507.103
		c0-0.655,0-1.308-0.649-1.308c-1.281-5.815,5.176-13.58,14.233-17.46c9.061-3.245,17.461-1.939,19.402,3.88
		C608.104,505.801,590.635,513.554,578.992,507.103z M612.62,491.561c-1.303-5.817-8.409-7.119-13.595-6.471l0.67-6.446
		c4.534-0.647,9.049,0.649,12.283,2.576C613.26,485.09,613.26,488.335,612.62,491.561z"/>
	<path d="M327.498,43.521L28.158,468.953c-9.051,12.916-12.274,41.376,24.576,39.415c-22.606-5.811-15.525-24.538-9.691-32.967
		L336.557,55.168c7.758-10.997,16.157-19.413,38.781-10.344C359.191,17.019,337.207,30.587,327.498,43.521z"/>
</g>
</svg>
