<?xml version="1.0" encoding="utf-8"?>
<!-- Generator: Adobe Illustrator 16.0.0, SVG Export Plug-In . SVG Version: 6.00 Build 0)  -->
<!DOCTYPE svg PUBLIC "-//W3C//DTD SVG 1.1//EN" "http://www.w3.org/Graphics/SVG/1.1/DTD/svg11.dtd">
<svg version="1.1" xmlns="http://www.w3.org/2000/svg" xmlns:xlink="http://www.w3.org/1999/xlink" x="0px" y="0px"
	 width="745.461px" height="535.945px" viewBox="0 0 745.461 535.945" enable-background="new 0 0 745.461 535.945"
	 xml:space="preserve">
<path d="M740.397,12.424c-9.342-13.255-27.035-16.226-40.31-7.354c-7.861,5.902-12.292,15.236-12.292,24.572l-4.934,3.445
	c-2.438-2.955-4.9-4.426-6.37-3.445l-69.809,43.773c-31.968,20.148-61.463,42.787-92.443,64.41
	c-18.683-17.702-49.659-24.106-80.647-3.457L2.406,421.522c-8.835,5.896,8.851,31.959,17.722,26.043l430.217-286.16
	c37.358-25.086,74.237,16.219,32.938,46.216L63.38,509.006c-8.852,5.906,9.824,31.968,18.195,26.079l421.363-302.369
	c29.498-21.66,34.938-49.686,26.566-72.287c33.92-17.229,68.337-32.453,100.785-52.623l69.316-42.781
	c1.473-0.479,1.473-2.936,0.49-5.885l5.902-3.926c8.362,3.44,18.676,2.943,27.036-2.956C746.29,42.905,749.261,25.21,740.397,12.424
	z M431.659,150.121L12.739,434.306c-2.952,1.967-9.334-6.887-6.383-8.863l421.362-281.715c17.214-11.297,38.36-19.188,60.978-10.325
	C463.108,129.937,448.356,138.803,431.659,150.121z M482.792,227.285L70.772,518.87c-2.942,1.962-7.871-5.887-4.922-8.374
	l412.521-289.111c16.224-11.794,26.058-18.155,31.939-42.771C510.811,202.714,499.489,215.001,482.792,227.285z M682.394,41.931
	l-75.71,47.695c-28.517,17.719-58.023,35.889-86.539,54.088c27.045-20.654,53.103-42.775,81.618-61.449l75.72-47.703
	C678.962,33.597,684.363,40.454,682.394,41.931z M692.235,36.058c-1.471,0.966-2.943,1.965-4.422,2.94
	c-0.98,0.499-3.45-2.447-2.461-3.45c1.48-0.98,2.461-1.951,4.423-2.945C690.765,32.116,693.216,35.073,692.235,36.058z
	 M726.165,12.937c-8.844,0.984-20.655,9.328-24.098,15.725c-1.971,3.455-6.391,2.451-6.883-1.969
	c-2.449-12.771,18.205-26.057,29-20.642C727.634,8.021,729.105,12.438,726.165,12.937z"/>
</svg>
