<?xml version="1.0" encoding="utf-8"?>
<!-- Generator: Adobe Illustrator 16.0.0, SVG Export Plug-In . SVG Version: 6.00 Build 0)  -->
<!DOCTYPE svg PUBLIC "-//W3C//DTD SVG 1.1//EN" "http://www.w3.org/Graphics/SVG/1.1/DTD/svg11.dtd">
<svg version="1.1" xmlns="http://www.w3.org/2000/svg" xmlns:xlink="http://www.w3.org/1999/xlink" x="0px" y="0px"
	 width="1245.341px" height="586.965px" viewBox="0 0 1245.341 586.965" enable-background="new 0 0 1245.341 586.965"
	 xml:space="preserve">
<path d="M1244.549,75.88c0-17.121-24.897-29.554-39.661-27.221c-15.572-34.229-26.461-35.768-42.789-37.346
	C992.534-7.333,818.301-1.116,656.523,16.782c-20.23,2.337-25.68,17.109-31.881,35.771c-16.347,1.563-36.57,3.888-36.57,22.539
	v34.235c0,15.574,10.889,19.457,30.338,23.342c10.888,1.551,13.998,7.004,15.563,13.994c0.782,9.328,1.546,18.676,8.551,27.217
	l2.318,45.117l-132.212,0.773l2.319-39.673c7.02-7.765,17.887-15.561,17.887-27.222c-0.772-7.004,3.106-15.57,10.889-20.235
	c9.339-6.226,28.003-5.45,27.226-18.66l-2.318-38.11c0-14.008-20.994-19.449-34.224-20.998
	c-10.112-15.574-18.691-30.342-36.569-34.238C355.513-5.807,219.375-3.474,77.028,22.96c-17.036,3.141-31.011,24.139-39.577,37.343
	C11.787,64.963-1.44,75.87,0.125,91.41l3.872,34.231c0.796,7.776,10.109,10.118,14.794,11.664
	c13.207,5.455,3.09,21.769,10.109,28.801c16.338,15.545,4.658,23.322,14.787,32.66c0,13.226-2.338,21.004,3.098,42.791
	l30.325,87.125l13.228,104.999l0.768,37.317c-3.879,2.353-5.458,3.897-5.458,8.55v34.998c-3.107,0-8.563,0.778-8.563,3.898v8.541
	c0,0.772,0.791,2.333,2.347,3.114l7.774,3.093l0.776,19.444c0,0.798,0.771,1.564,3.887,2.343l1.548,21.767
	c0.768,14.008,27.223,13.235,27.996,0l0.799-21.767c1.548,0,4.657-1.545,4.657-3.895l0.796-17.108l14.772-3.103
	c1.544,0,2.338-1.58,2.338-2.343l0.778-8.563c90.999,16.336,181.981,15.571,272.236-0.778l0.773,5.444
	c0,1.554,2.318,3.897,3.866,3.897l14.797,3.105v17.115c0,1.57,0.774,3.105,4.657,3.885l0.773,23.341c0,9.319,27.995,9.319,28.775,0
	l0.794-23.341c3.099,0,5.456-2.314,5.456-3.885l0.748-17.115c4.685-0.777,5.463-1.545,5.463-4.651l0.792-10.109
	c0-1.552-0.792-3.095-4.663-4.668l0.773-8.55c4.659-3.885,10.887-7.772,11.66-13.222l5.451-71.553h168.78l5.458,65.321
	c0.793,8.542,12.453,17.12,20.221,17.887v9.343c-3.883,0.773-6.221,3.111-6.221,6.231v7.76c0,3.893,3.883,5.461,11.662,7.771v14.806
	c0,1.565,1.534,3.106,3.109,3.884v23.327c0,13.222,28.771,11.681,29.553-0.767v-22.575c2.321-0.787,5.449-2.323,5.449-3.898
	l0.773-13.216l14-1.565c4.657-0.782,6.23-4.661,6.23-6.226v-6.999c112.769,18.654,218.549,14.003,331.335-3.122
	c0.765,3.895,3.111,9.342,6.985,10.121l14.801,4.657v14.772c0.773,1.559,3.111,3.109,6.996,4.66v22.547
	c0,12.434,29.572,12.434,29.572-1.565V551.11c3.865-1.541,6.23-2.344,6.23-4.652v-13.999c3.866-2.313,4.658-3.106,4.658-5.455
	l0.773-9.326c0.772-3.111-2.348-6.217-5.45-6.981l-0.782-14.787c6.232-0.764,10.086-3.11,10.086-6.998l14.02-217.009l13.207-38.119
	c7.788-20.226,5.45-25.655,2.338-41.229l2.311-14.772c3.12-17.114,14.008-3.111,18.684-47.45
	c13.218-4.659,32.656-10.112,32.656-21.005L1244.549,75.88z M79.445,27.632C217.133-1.154,356.347-0.376,494.012,23.733
	c18.684,3.898,52.136,46.659,33.456,48.234c-166.422,15.573-314.997,20.221-482.23,5.449C24.233,75.092,58.447,32.312,79.445,27.632
	z M466.823,474.071c0,3.893-17.134,4.696-17.134,1.565l-1.545-88.657c-0.773-17.883,1.565-28.004,6.224-45.119l30.348-110.463
	c3.888-11.65,4.657-27.996-1.548-37.325c-7.02-8.545,5.414-17.105,13.211-7.769c12.435,17.12,7.768,36.583,3.109,53.654
	L471.486,342.62c-3.881,15.559-5.455,29.531-5.455,45.1L466.823,474.071z M477.71,188.651c-2.34-3.115-3.887-7-4.659-10.889
	c-2.354-23.331,24.87-26.433,27.979-3.106c0.771,3.89,0,7.774-1.563,10.88C502.578,153.644,466.823,155.969,477.71,188.651z
	 M412.365,100.767c0,3.106-67.655,7.774-121.342,7.774c-53.682,0-105.773-5.46-105.773-8.552c0-3.098,52.092,0.777,105.773,0.777
	C344.709,100.767,412.365,97.655,412.365,100.767z M53.012,183.999c-1.543-3.115-2.323-6.999-1.543-11.666
	c3.865-23.341,31.092-18.689,27.976,4.667c-0.763,3.884-2.34,7.758-4.656,10.11C86.442,156.777,50.668,149.788,53.012,183.999z
	 M84.903,347.343L49.876,242.339c-5.415-17.119-9.318-37.345,3.906-53.688c7.797-10.105,19.46-1.568,13.232,7.782
	c-7.023,9.328-6.25,25.675-2.346,36.555l38.111,112.776c5.456,17.123,7.002,27.234,7.002,45.117l0.777,84.803
	c0.795,3.105-16.346,2.318-17.117-0.784l-1.544-83.222C91.124,376.888,89.574,362.125,84.903,347.343z M125.336,549.579
	c0,2.309-1.544,3.097-3.091,3.884c-10.891,1.546-20.232,1.546-29.575,0c-2.313,0-2.313-1.575-2.313-3.116l-1.567-17.109
	c12.446,0.768,24.884,1.55,37.313,0.768L125.336,549.579z M143.214,521.557v5.447c-0.764,2.349-0.764,2.349-3.089,2.349
	c-19.454,4.652-49.002,3.106-59.118,0c-1.543-0.778-1.543-1.584-1.543-3.884v-4.667c-0.02-1.589-0.02-1.589,2.323-1.589
	c20.226,2.344,39.663,2.344,59.89,0C143.993,519.204,143.993,519.204,143.214,521.557z M114.469,467.129l-0.776-79.339
	c0-14.762-3.109-26.442-7.774-40.423L65.443,224.441c11.662-1.555,22.548-5.444,24.131-20.217
	c1.55-12.442,7.777-18.661,14.774-21.013c8.573-3.1,12.456-14,16.345-21.777c4.657-8.529,8.568-14.771,17.117-14.771
	c85.572,3.897,171.124,5.463,257.464,0c17.892-0.773,29.545,8.555,31.872,18.676c1.561,7.769,9.34,13.222,17.883,14.781
	c5.458,1.551,8.565,6.23,12.45,16.338c5.456,15.56,11.667,24.878,25.685,28.781l-28.796,108.128
	c-3.881,13.222-9.339,26.42-9.339,40.433l1.564,89.45C385.935,488.142,176.676,480.374,114.469,467.129z M476.142,547.218
	c0,2.342-1.545,3.884-3.091,3.884c-10.888,1.546-21.771,0.781-31.889-0.774c-1.569,0-1.569-1.568-1.569-3.109l-0.74-15.557
	c12.407,1.547,25.609,0.784,37.295,0.784v14.772H476.142z M481.578,518.46c1.563-0.782,1.563-0.782,1.563,1.554l-0.791,5.464
	c0,2.329,0,2.329-2.316,2.329c-19.455,3.888-48.236,1.563-57.572-1.551c-2.319,0-2.319-1.546-2.319-3.116v-4.661
	c0-1.579,0-1.579,2.319-1.579C442.691,518.46,461.373,520.014,481.578,518.46z M492.462,441.454
	c-6.978,7-14.752,11.675-21.766,14.004l-1.551-70.77c0-12.457,0.769-24.916,4.658-38.119l33.451-120.572L492.462,441.454z
	 M499.468,414.232l10.881-180.463l136.143-0.781l18.656,180.472L499.468,414.232z M673.699,442.237
	c-8.559-77.016-17.119-154.79-25.678-231.785c2.338,11.656,5.476,20.207,10.905,25.656l32.665,112.009
	c3.875,13.202,5.449,25.659,5.449,37.349l1.547,70.76C690.81,453.115,680.703,449.228,673.699,442.237z M667.488,181.651
	c-1.566-3.105-2.34-6.995-1.566-11.66c2.348-23.343,32.666-20.999,30.348,3.116c-0.773,3.893-2.34,7.776-3.885,10.104
	C702.5,152.104,663.613,147.44,667.488,181.651z M667.496,187.878c7.769-10.115,20.203-1.545,13.207,7.793
	c-6.231,8.554-5.457,25.665-2.338,36.547l33.477,112.019c4.646,17.083,6.984,26.425,6.984,45.119l0.784,87.88
	c0,3.105-17.11,2.313-17.11-1.565l-1.555-85.569c0-15.551-2.349-30.352-7.016-45.124l-29.553-103.429
	C658.926,224.441,655.042,204.196,667.496,187.878z M734.381,547.218c0,1.561-1.564,2.342-3.884,3.109
	c-10.888,0.774-18.656,1.546-28.771,0c-1.574,0-1.574-1.568-1.574-3.109l-0.773-14.01c12.463,2.365,22.55,1.579,35.003,1.579
	V547.218z M754.583,527.769c0,2.352,0,2.352-2.311,2.352c-19.456,4.667-52.913,2.325-62.236-1.564
	c-1.573-0.787-1.573-1.56-1.573-3.105l-0.765-6.237c0-1.535,0.765-2.313,3.111-1.535c20.211,1.535,41.988,3.11,63.001,0.768
	c1.545,0,1.545,0,1.545,1.568L754.583,527.769z M722.703,463.998v-74.643c0-17.134-4.658-37.356-7.77-47.466l-32.664-110.461
	c13.227-3.111,23.322-22.561,24.896-38.889c0-4.662,6.242-9.328,10.889-10.889c21.776-6.995,24.095-37.312,32.664-36.549
	c158.669,7.773,227.901,5.458,342.988-0.763c20.239-1.579,16.348,30.331,29.553,31.114c10.116,1.546,11.682,15.563,14.791,22.545
	c9.353,18.66,14,20.998,32.666,18.66c1.545,2.338-1.547,6.228-2.311,10.115l-38.125,110.463c-5.447,15.56-8.559,33.453-8.559,49.761
	v73.126C1008.937,487.34,789.606,479.577,722.703,463.998z M811.382,99.185c-0.019-3.881,52.113,0,105.781,0
	c53.688,0,121.346-2.31,121.346,0.805c0,3.122-67.658,7.774-121.346,7.774C864.277,107.764,811.382,102.305,811.382,99.185z
	 M1159.082,180.884c-2.347-3.121-3.883-7.004-3.883-10.893c-1.575-23.343,25.652-26.454,27.98-3.102
	c0,3.879-0.774,7.767-2.328,10.873C1185.517,145.872,1148.958,148.19,1159.082,180.884z M1147.403,548.778
	c-10.898,1.568-20.229,0.801-30.346-0.766c-1.546,0-4.657-1.56-4.657-3.116v-13.221c11.682,0.77,25.662,0.77,38.085,0l0.782,13.995
	C1151.267,548.013,1149.712,548.778,1147.403,548.778z M1152.05,516.127c1.555,0,4.668,0,4.668,1.54l-0.775,7.769
	c0,2.323-0.782,2.323-2.319,3.12c-20.229,3.105-45.117,0.764-54.458-2.348c-2.32,0-6.232-3.11-6.996-4.651l-0.773-3.89
	c0-1.54,0-2.342,2.311-2.342C1113.946,517.667,1131.829,518.445,1152.05,516.127z M1162.966,434.449
	c-3.139,7.005-10.888,11.67-17.137,14.005l1.573-71.566c0.763-14.763,3.875-29.545,8.54-43.555l16.348-47.454L1162.966,434.449z
	 M1186.308,236.08l-35.03,102.671c-4.649,14.771-6.224,29.554-6.224,45.127l-2.308,86.334c0,3.888-17.131,4.685-17.131,1.561
	l0.772-88.659c0-18.665,1.547-27.991,7.778-45.122l37.341-111.217c3.912-10.893,4.686-28.008-1.537-36.558
	c-7.004-9.333,5.422-17.913,13.209-7.798C1195.604,198.767,1192.511,218.997,1186.308,236.08z M1197.177,71.188
	C1052.51,91.41,798.157,91.41,630.156,69.643c-8.569-1.546-3.12-9.332-1.574-17.901c3.874-17.1,15.563-28.771,28.008-31.1
	c137.663-19.435,375.671-20.22,513.361-4.662C1188.599,18.309,1215.826,68.097,1197.177,71.188z"/>
</svg>
