<?xml version="1.0" encoding="utf-8"?>
<!-- Generator: Adobe Illustrator 16.0.0, SVG Export Plug-In . SVG Version: 6.00 Build 0)  -->
<!DOCTYPE svg PUBLIC "-//W3C//DTD SVG 1.1//EN" "http://www.w3.org/Graphics/SVG/1.1/DTD/svg11.dtd">
<svg version="1.1" xmlns="http://www.w3.org/2000/svg" xmlns:xlink="http://www.w3.org/1999/xlink" x="0px" y="0px"
	 width="593.302px" height="1213.178px" viewBox="0 0 593.302 1213.178" enable-background="new 0 0 593.302 1213.178"
	 xml:space="preserve">
<path d="M547.697,152.458l-0.906-17.959c15.262-9.867,35.032-35.897,30.525-48.472l-6.29-19.756
	c-5.392-13.46-23.329-23.334-55.664-27.828c-3.603-14.372-17.036-26.045-32.326-27.833C362.745-5.567,243.303-3.76,125.691,19.592
	C112.22,22.288,94.252,32.156,90.66,43.829C64.633,51.92,36.794,56.4,35.897,68.971l-3.591,26.028
	c-0.896,1.777-0.896,8.958-0.896,17.047c-4.477,1.8-8.07,4.498-10.765,8.081c-9.862,11.675-7.175,36.813-0.877,52.971
	c3.571,10.761,2.687,22.432,0.877,34.112L9.889,277.244h-3.61L0,311.358l4.496,0.896l-2.688,13.457c0,4.5,12.567,6.3,13.444,1.801
	l2.706-13.458l13.461,0.912c-1.8,17.959-2.694,35.027-2.694,51.183h2.694c-12.567,281.029,75.427,552.19,118.519,831.417
	c123.005,24.221,298.095,20.654,357.363-13.485C556.661,861.76,649.16,515.18,547.697,152.458z M553.098,252.093
	c0.896,5.374-2.687,6.28-3.603,0l-11.688-92.48c-0.887-10.78,2.713-10.78,3.619,0L553.098,252.093z M541.427,307.753
	c0,2.698-1.811,3.588-3.609,3.588c-1.792,0-3.583-0.89-3.583-3.588c0-1.782,1.791-3.583,3.583-3.583
	C539.616,304.17,541.427,305.971,541.427,307.753z M535.119,83.3c10.787,6.283,8.092,15.265,8.092,26.94
	c-0.907-12.59-6.31-17.963-11.682-19.765C526.145,88.693,529.755,80.599,535.119,83.3z M127.502,24.048
	c119.411-24.247,242.409-26.94,358.23-8.088c9.878,1.8,18.853,10.763,23.351,18.851C371.73,23.133,232.537,23.133,96.967,43.793
	C103.254,33.004,116.715,25.83,127.502,24.048z M435.466,38.396c0,2.697-72.721,0.894-113.144,0.894
	c-40.405,0-86.192,0.891-86.192-1.805c0-3.566,45.787-5.369,86.192-5.369C362.745,32.119,435.466,34.812,435.466,38.396z
	 M208.293,311.342c2.695,0,4.487,0.892,4.487,2.694c0,1.782-1.792,3.59-4.487,3.59c-2.696,0-4.499-1.806-4.499-3.59
	C203.813,312.254,205.597,311.342,208.293,311.342z M198.432,271.852c-0.896,3.589-4.487,3.589-4.487,0l5.382-101.45
	c0-5.393,4.487-5.393,4.487-0.912L198.432,271.852z M202.929,111.131c-5.394-11.677-8.09-26.028-2.698-33.228
	c4.479-5.372,9.871,0,6.288,5.393C202.929,88.693,202.022,94.971,202.929,111.131z M23.332,278.156l12.565-69.145
	c1.803-12.564-0.895-25.133-3.583-37.7c-3.61-13.48-7.182-27.852-3.61-40.418c0.916-3.591,1.82-5.393,3.61-6.288
	c0.887,7.178,2.688,12.569,5.386,12.569c2.694,0,4.504-4.479,5.392-10.769c0.886,0.89,2.694,0.89,3.591,1.789
	c5.394,2.677,8.975-6.285,2.687-11.678c-0.904-0.914-1.79-1.803-2.687-2.696c0.896-1.801,0.896-4.479,1.782-7.177
	c8.088,2.694,16.158,5.393,25.143,8.086c-11.672,38.594-20.646,77.212-26.925,115.828h-3.591
	c-3.583,15.263-6.298,32.331-8.089,48.484L23.332,278.156z M457.885,905.715c-60.146,23.346-137.373,8.975-194.841-19.751
	c-87.098-44.898-155.33,11.677-170.573-45.789C52.076,692.91,40.395,536.683,35.003,376.871c0-3.59,0-7.201,0.895-10.781h0.896
	l0.878-3.593c12.574-32.308,72.737-48.463,106.854-64.64c10.775-5.39,19.762-12.568,28.745-21.551c0-2.694,0.906-5.39,1.782-7.176
	c-20.656-4.5-24.249-23.35-17.971-41.311c4.517-12.563,17.066-28.719,33.231-24.249v3.597c-27.828-9.873-51.18,56.572-11.67,59.249
	c-8.982,42.206-0.885,68.234,23.342,81.712c21.561-17.96,41.301-35.917,35.032-80.821c61.943-20.654,9.868-101.45-28.725-43.098
	c-0.888-0.894-0.888-1.784-1.803-2.696v-5.39c0.887,0.889,1.803,1.803,1.803,2.694c3.591-4.5,6.286-8.089,10.766-10.764
	c9.879-18.854,20.654-37.704,32.314-52.966c40.416-50.294,123.025-79.909,202.929,72.714c20.654,37.698,38.594,35.915,56.573,38.613
	c-12.567-7.177-18.855-17.047-20.656-31.421c-1.811-15.279-1.811-30.525,13.48-37.702c15.263-6.266,23.352,0.929,29.611,7.212v5.376
	c-6.26-5.376-14.366-14.369-27.8-8.067c-22.475,10.771-10.795,53.86,8.975,62.841c-0.915,43.093,10.766,60.143,26.019,77.208
	c14.377-12.568,19.74-37.699,10.766-78.101c20.664-5.389,8.975-52.074,0.915-54.774l-0.915-3.587
	c11.68-0.89,25.17,53.865,3.611,60.147c3.591,16.154,6.268,35.917,2.695,52.98c1.78,5.375,3.591,10.766,5.373,16.158
	c34.117,109.546,15.271,315.146-8.068,472.285C548.591,850.069,499.205,889.574,457.885,905.715z M184.044,227.846
	c0,1.806-1.799,3.61-5.381,3.61c-2.696,0-5.363-1.8-5.363-3.61c0-1.784,2.667-3.585,5.363-3.585
	C182.245,224.261,184.044,226.064,184.044,227.846z M234.339,225.155c0-1.788,2.695-3.593,5.374-3.593
	c3.59,0,5.402,1.805,5.402,3.593c0,1.797-1.813,3.584-5.402,3.584C237.018,228.74,234.339,226.953,234.339,225.155z
	 M518.075,219.755c0,1.805-1.809,2.698-4.505,2.698c-1.811,0-3.593-0.893-3.593-2.698c0.021-1.78,1.782-3.587,3.593-3.587
	C516.267,216.175,518.075,217.975,518.075,219.755z"/>
</svg>
