<?xml version="1.0" encoding="utf-8"?>
<!-- Generator: Adobe Illustrator 16.0.0, SVG Export Plug-In . SVG Version: 6.00 Build 0)  -->
<!DOCTYPE svg PUBLIC "-//W3C//DTD SVG 1.1//EN" "http://www.w3.org/Graphics/SVG/1.1/DTD/svg11.dtd">
<svg version="1.1" xmlns="http://www.w3.org/2000/svg" xmlns:xlink="http://www.w3.org/1999/xlink" x="0px" y="0px"
	 width="1632.532px" height="1368.497px" viewBox="0 0 1632.532 1368.497" enable-background="new 0 0 1632.532 1368.497"
	 xml:space="preserve">
<path d="M1625.564,1211.31h-4.327l-2.612-17.352l-6.948-10.431l-10.435-1.75l-2.611-8.687l6.948-13.02l-6.1-15.63l4.345-0.881
	l-0.865-9.559l-8.692-8.685l-52.943-143.263l-8.701-6.929l3.508-9.555l-38.228-96.377l-8.664-6.092l-3.487-20.819l-9.53-4.35
	l-0.887-93.79c2.611,0,4.348-1.727,4.348-4.332v-17.379h3.466c1.764,0,3.488-0.85,3.488-3.475v-14.747
	c0-1.722-1.753-2.612-3.488-2.612h-7.813l-2.611-279.585c1.763-0.886,3.498-1.733,3.498-3.47v-11.289h0.857
	c5.185,0,9.541-4.354,9.541-10.42v-14.76c6.965-0.854,13.02-4.342,19.957-9.543c39.951,1.761,79.885-0.849,119.846-13.015
	c9.521-3.47,4.318-7.825,0.849-9.546c-6.079-2.596-12.17-4.355-18.251-5.213c12.172-0.877,24.305-7.805,0-13.886
	c-34.729-8.669-69.449-9.54-104.18-9.54c-7.824-5.232-15.629-7.83-23.453-10.447v-3.463c0-3.465-2.604-6.936-6.957-6.936h-0.858
	v-6.094c2.592-0.844,4.318-1.719,5.212-3.455h11.268v-5.209h-11.268c-0.894-1.733-3.497-3.477-5.212-3.477v-1.723
	c0-2.605-2.585-4.35-5.214-4.35v-13.023c0-1.725-1.716-4.34-4.325-4.34c-1.746,0-4.357,2.615-4.357,4.34v13.023
	c-1.743,0.887-2.619,2.616-2.619,4.35v5.199h-4.309v5.209h4.309v9.549h-0.842c-3.467,0-6.974,3.471-6.974,6.936v2.614
	c-8.682,1.731-18.232,5.2-26.058,11.296c-40.781,2.592-77.246,7.799-115.462,15.621c-8.702,2.576-9.57,4.322-1.735,6.928
	c-2.594,3.469-0.858,4.346,2.611,6.09c35.606,12.127,76.443,18.208,113.757,20.814c6.101,5.219,13.026,9.564,21.692,11.298v14.751
	c0,5.231,3.489,9.554,7.814,10.42v11.318c0,1.743,1.752,3.465,3.488,3.465l0.865,279.594h-3.467
	c-1.746-6.957-4.357-12.166-7.815-12.166c-5.214,0-9.552,9.555-9.552,21.71c0,11.29,4.338,20.845,9.552,20.845
	c2.604,0,5.222-3.48,6.929-9.555v17.373c0,2.607,2.612,4.352,4.354,4.352l0.842,93.771l-3.451,0.888
	c-2.604-5.205-7.824-9.555-13.019-9.555c-7.835,0-13.896,6.08-13.896,13.885c0,6.09,3.433,11.299,9.503,13.023l-15.63,16.483
	l-58.165,79.015l-0.859,10.435l-5.193,6.959c-5.204,1.733-6.967,5.222-7.823,10.425l-2.613,4.343l-5.192,0.876l-48.635,72.074
	l-49.474-60.791l-14.783-0.875l-4.346-3.48v-50.379l3.497-9.552v-11.261h6.929l14.781-2.627l-5.201-14.748l-23.456-7.818v-43.423
	l3.488-4.351v-24.294l10.408-5.204l-0.849-22.601l14.78-0.882v-22.561h-10.426v-11.279h5.194c3.471,0,5.204,0,5.204-4.355v-14.748
	l11.285-15.624l6.967-21.692l-1.746-16.512l5.204-14.759l82.506-46.031c13.896,0.856,27.793,0,41.688-2.612v-11.279
	c5.204-5.229,5.204-11.289-2.609-15.635v-23.439c9.586-1.746,12.169-8.674-0.86-28.65c7.825-16.511,9.532-27.795-2.619-29.53
	l-2.604-30.378c6.062-3.488,6.062-8.693,0.858-10.437l-3.47-14.745c0-1.738-2.61-4.339-4.346-4.339
	c-52.095-6.944-105.075-4.353-158.055,0c-0.839-13.021-5.213-19.101-14.744-23.452l-9.54-88.571l7.807-16.479
	c4.316-7.843,1.761-15.649-0.878-24.313l-11.284-41.691c-1.754-7.82-6.957-9.555-12.16-5.204
	c-79.01-40.806-204.936-46.046-300.434,32.124l-8.692,43.416c-4.325,0.877-6.965,3.469-8.69,7.811
	c-0.876-1.729-0.876-2.605-2.621-4.342c19.1-125.021-278.73-136.329-338.641-69.463c-6.938-5.195-17.374,2.62-17.374,19.099
	c0,1.739,0,6.085,2.62,7.821l-0.877,13.898c-2.603,0.873-6.947,5.195-6.947,7.816l3.469,23.44c0,2.606,0.887,3.463,2.622,6.081
	l6.061,6.942l-7.807,118.103c-14.773,6.09-26.903,22.563-17.363,33v13.02c-52.952-3.502-107.649-9.55-160.63-10.432l-2.611,17.359
	h-6.09l-3.468,10.432l13.894,2.614l-25.18,218.823l-2.609-0.861l-5.185-227.506h12.999c2.62,0,4.355-1.734,4.355-4.35v-8.688
	c0-2.592-1.735-5.215-4.355-5.215h-12.999l-6.091-290.025c114.614,43.432,217.079,53.83,238.779,20.84
	c25.169-38.188-62.53-118.088-195.385-177.994C198.016,0.032,69.506-18.2,44.326,20.023
	c-25.199,37.325,63.379,117.22,195.348,177.134c10.428,4.35,19.977,8.674,30.394,13.014l3.46,296.969h-17.364
	c-2.61,0-4.345,2.584-4.345,5.2v8.702c0,2.6,1.734,4.336,4.345,4.336h17.364l4.354,230.092c-4.324,1.737-6.937,6.08-8.662,12.166
	c-1.735-3.502-2.592-6.086-3.477-10.429c0-4.353-13.01-5.2-13.888-1.737l-5.26,33.895c-0.85,4.328,15.631,4.328,16.517,0.873
	c0-3.502,2.609-6.105,4.345-8.711c0.896,4.35,1.734,7.85,4.347,8.711l-6.948,90.315c-12.181,3.456-13.036,5.19-7.823,13.009
	L37.35,1190.517l-9.561,1.73L0,1229.583l8.69,10.398h27.802L53,1207.005l-3.461-5.209l122.432-164.969l54.694,53.82l-14.745,22.6
	c-2.617,4.355-5.202,10.422-6.079,15.626l-3.479,20.825c-2.581,0-6.041,0-6.928,2.629l-6.959,30.402
	c-2.591,14.754,29.536,17.369,29.536,2.592l-0.857-29.514c0-2.594-0.876-4.338-2.622-5.225l1.746-19.979
	c0.849-3.465,3.467-7.81,5.193-11.271l13.904-19.979l27.783,26.914l5.213,8.668l12.16,0.965v1.716l8.692-0.87l19.985,2.605
	l10.428-16.502l-2.584-6.93l21.682-49.482l44.309,148.469l15.621,8.689l7.796,12.162l-6.939,9.56l3.468,33.877l17.367,4.351
	l17.375-2.626l0.848-4.343c-1.736,11.305-3.471,22.595-5.204,34.756c-12.153,0-15.63,5.201-7.806,11.278l-8.7,24.327
	c-7.788,22.573,31.287,32.108,32.146,5.213l0.877-26.07c6.078-3.47,1.732-12.172-5.195-13.016
	c7.807-46.046,18.232-91.201,26.904-137.201c0.889-6.99,3.498-13.909,6.957-19.98l48.625-97.265
	c3.472,9.556,6.091,19.124,9.561,27.791l-2.611,0.89c-13.019,3.438,4.336,43.389,15.631,35.576l2.611-1.741
	c34.691,67.733,91.159,122.411,160.618,154.56l-2.609,4.354c-7.789,12.122,36.491,30.364,38.234,16.469l0.866-6.077
	c35.579,12.142,72.931,18.219,112.004,18.219c41.697,0,81.632-6.953,118.086-19.977l0.885,5.205
	c2.609,13.896,48.616-4.356,39.925-16.521l-3.47-4.348c70.316-35.586,126.784-93.756,159.762-164.096
	c7.815,4.326,13.018,1.732,15.619-6.953c6.939,7.796,18.253,9.546,33.004,6.066l13.012,23.455l-3.47,5.209l-6.958-1.745
	l-14.772,20.854l-12.14,14.746l7.813,9.561l30.383,2.615l2.641-14.791l7.778-17.355c2.656,6.962,4.364,13.033,6.965,19.971
	l33.007,125.92c-4.357,2.573-6.978,6.064-6.978,9.539c0,3.466,2.62,6.057,6.117,6.934l-1.743,23.445
	c-1.754,23.449,47.747,19.104,32.985-8.688l-11.284-20.838c1.752-2.587,3.497-4.328,3.497-6.939c0-4.345-4.364-6.957-10.436-6.957
	l-32.987-125.889c-2.618-11.299-5.212-22.578-11.291-31.278l36.464-51.2l29.506,33.867l-13.017,0.877
	c-5.234,0-6.129,1.743-6.129,5.209v10.397c0,2.62,1.743,5.198,4.364,5.198l32.137,7.825l12.132,23.432l29.535-0.868l3.47-6.937
	l29.496,12.164c3.499,9.554,10.409,13.028,20.834,13.028l44.28,2.606c7.817,0,15.631-0.886,22.588-4.351l14.781-7.805
	c3.471-2.621,5.204-18.251-3.46-23.454l-2.641-131.133c0-2.614-0.865-4.345-3.477-4.345h-13.02l22.597-15.635l4.328,12.17v9.555
	l47.775,138.903l13.886,11.29l6.11,10.435l-5.195,5.185v8.682l5.195,5.196l1.714,10.436l-4.354,5.2l2.64,4.35l31.26,6.084
	l11.295-7.791L1625.564,1211.31z M1473.59,283.974c5.231,0.857,5.231,7.811,0,8.69V283.974z M270.982,177.14
	c-2.572,0-5.195-2.622-5.195-6.082c-0.028-2.586,2.584-5.193,5.195-5.193c2.612,0,5.201,2.607,5.201,5.193
	C276.184,174.518,273.574,177.14,270.982,177.14z M261.414,790.185c0,2.607-14.781,1.74-13.896-0.858
	c0.029-2.601,0.877-4.341,0.877-5.198c0.85-1.739,15.602,0,14.744,1.707C262.262,787.569,262.262,788.46,261.414,790.185z
	 M258.83,773.692c-4.355,0-8.701,0-7.824-0.872c0-2.618,2.611-14.745,2.611-16.511c0-2.584,11.285-1.706,11.285,1.766
	c0,2.579,4.346,13.012,3.469,14.745C267.494,774.556,263.176,772.82,258.83,773.692z M1253.909,704.238l-4.335,14.758
	l-13.897,21.706h-3.469l-0.856-39.957l1.705-1.703h11.293v-8.686l10.419-6.086L1253.909,704.238z M1256.531,669.489h-4.329
	l39.087-39.07c8.664,0,20.813-0.861,28.609-1.744L1256.531,669.489z M1256.531,482.786l124.173,1.753l2.603,30.369l-4.339,0.876
	l-21.699-6.951c-3.471-0.891-5.195,6.075-4.336,9.535l4.336,24.305l-2.601,26.063c-0.87,3.466,5.193,8.693,8.662,6.959l10.426-5.194
	l12.161,3.47v26.057c-30.393,3.469-61.671,4.342-92.017,3.469v-9.564c0-0.872-1.735-2.615-2.611-2.615h-10.437
	c-1.733,0-3.488,2.615-3.488,4.359v7.82h-12.131l-0.888-23.461c3.497-1.724,6.109-6.064,5.193-10.42l-5.193-26.91v-23.449
	c0.888-2.617-2.622-6.076-7.814-6.944V482.786z M1378.083,553.14c1.735,0,2.621,0.877,2.621,2.612c0,1.7-0.866,3.463-2.621,3.463
	c-1.753,0-2.62-1.732-2.62-3.463C1375.491,554.017,1376.35,553.14,1378.083,553.14z M1371.154,544.438
	c0-0.881,1.725-1.734,4.337-1.734c1.743,0,3.477,0.881,3.477,1.734c0,0.863-1.714,1.74-3.477,1.74
	C1372.87,546.175,1371.154,545.327,1371.154,544.438z M1259.114,565.296c-4.346,0-6.929-1.73-6.929-3.465
	c0.017-2.616,2.583-4.349,6.929-4.349c3.485,0,6.967,1.732,6.967,4.349C1266.081,563.565,1262.6,565.296,1259.114,565.296z
	 M1251.298,514.933c1.744,0,3.471,1.744,3.471,3.469c0,1.738-1.707,2.617-3.471,2.617c-1.772,0-3.469-0.873-3.469-2.617
	C1247.856,516.677,1249.574,514.933,1251.298,514.933z M1212.26,492.312V481.06c11.268,0.851,23.428,0.851,34.749,0v32.119
	c-6.127,1.729-6.967,3.468-6.967,6.084l3.47,26.912v29.52c0,4.34,3.497,6.081,6.967,6.081l0.848,21.682
	c-29.507,0.882-70.345,2.616-106.798,5.208C1232.228,598.24,1249.574,524.426,1212.26,492.312z M1030.77,258.769l1.728,20.83h-5.207
	c-2.612,0-5.193,3.491-5.193,6.086l7.806,29.529c0.867,5.189,16.497,5.189,17.374-0.891l1.707-29.526
	c0-2.583-2.611-6.075-4.318-6.075h-6.967l-1.734-20.839c46.891-3.468,93.78,5.214,140.644,28.645l0.886,12.166l-6.956,4.354
	l6.956,38.187l10.437,3.464l8.653,84.244h-7.806l-1.744,36.465l13.029,9.555v12.161c-44.279-17.374-93.791-24.308-142.388-20.834
	l-1.734-14.745l3.468-0.886c3.499,0,5.196-5.199,4.348-7.814l-6.081-28.649c-1.734-5.199-17.376-4.346-17.376,0.882l-1.733,30.383
	c0,2.606,3.508,6.972,6.978,6.972l3.458-0.887l1.734,15.631c-51.235,4.35-103.331,20.824-148.466,46.89l-0.877-20.843
	c1.743,5.209,3.488,6.967,6.108,6.094l8.664-5.208c3.469-2.606,5.213-3.466,4.355-9.535l-5.205-28.683
	c0-0.849-2.62-1.738-5.203-0.849l-6.959,2.606l-1.741-43.426l4.353-30.383c7.808-6.08,11.285-15.621,8.664-26.057l7.825,0.875
	l13.896,13.902l8.673,14.781c0.84,1.73,3.451,4.342,6.07,3.469l22.588-9.56c2.62-0.876,4.345-3.468,5.204-6.075l5.194-22.578
	c0.867-2.605,0.867-5.184,0-7.802l-10.408-21.713c-0.857-1.735-3.479-4.353-6.091-3.471l-6.118,0.886l-9.511-6.084l-6.959,1.738
	c-2.609-7.82-0.855-15.635,4.329-20.848c3.478-3.455,1.726-13.005-2.603-10.423c-7.806,4.356-15.611,9.561-22.588,11.285
	c-2.59,0.819-1.714,7.76,1.763,8.649c5.214,2.617,7.807,7.816,7.807,13.018l-12.159,2.618l-19.978-17.371
	C936.121,281.356,983.022,263.988,1030.77,258.769z M887.498,600.888h-74.692c-2.611,0-3.451,1.727-3.451,4.342l2.604,19.096
	c-6.081,0-12.17,0.885-17.377,2.614l4.348-22.563c0.838-4.336,1.716-7.818,4.327-7.818h93.818c0.85,0,2.612,1.738,4.318,6.088
	l7.815,21.68c-4.327-0.877-13.896-1.725-19.101-2.593l0.849-15.63C891.834,603.472,890.965,600.888,887.498,600.888z
	 M962.178,360.394l4.327-14.777c0-0.872,1.727-0.872,2.582-0.821l11.324,5.196c0.837,0.862,0.837,1.735,0.837,3.468l-4.343,21.683
	c-0.842,2.617-3.461,2.617-4.319,0.893l-9.55-10.433C962.178,363.862,962.178,362.123,962.178,360.394z M888.346,415.952
	c0-6.08,4.354-6.957,4.354-0.876L890.088,570.5c0,5.209-5.201,4.351-5.201,0L888.346,415.952z M903.984,576.585
	c1.736,0,1.736,4.346,0,4.346h-43.402c-0.905,0-0.905-4.346,0-4.346H903.984z M842.332,418.595
	c7.825-6.971,8.681-14.775,1.742-22.59l0.858-24.338c5.225,1.727,8.692-2.609,12.161-13.895c0.887,7.82,3.488,16.484,10.426,21.768
	l2.622,9.545v20.843l3.487,3.468l-0.886,160.616c-4.309,0-13.886,0-14.735,4.352l-3.507,14.748h-10.396
	c10.396-17.366,6.068-32.112-6.957-46.886L842.332,418.595z M832.791,580.931h-46.043c-1.733,0-1.733-4.346,0-4.346h46.043
	C834.516,576.585,834.516,580.931,832.791,580.931z M816.275,413.337c0-5.205,4.346-6.934,4.346,0l6.09,156.277
	c0.858,6.095-4.337,5.236-4.337,0.886L816.275,413.337z M496.854,506.246l4.356,4.351c1.734,0.848,3.468,1.725,4.345,0.848
	l6.082-2.604c1.733-0.898,2.612-4.364,2.612-6.094l-0.879-31.256c0-3.469-6.08-4.354-9.54-2.592l9.54-118.117l11.294-7.781
	l2.584-27.81c0-2.604-0.86-4.328-3.47-5.19l-9.55-1.73l0.746-10.402c37.34-34.738,94.637-43.432,149.344-46.047l-0.886,20.834
	c-5.195,1.738-10.427,5.221-10.427,8.692l0.885,27.796c0,2.615,0.877,6.965,3.461,6.965l11.294,0.873c3.461,0,6.07-4.336,6.07-6.959
	l4.355-26.914c0.876-4.345-3.46-8.7-7.796-9.554V251.85c66,6.929,123.289,20.828,160.637,51.237v12.16l-6.079,6.967l-5.203-8.705
	c-13.018-20.826-26.065-19.091-38.189,2.614l-2.621-6.08l-3.478-0.862l-0.84-14.773v-4.35c-0.878-0.84,3.457-11.269,0-13.01
	c-3.479-1.738-6.957,2.593-11.275,5.199c-2.621,1.74-3.478,4.355-3.478,7.782l-2.611,19.101l-13.01,3.469
	c-2.602,0.885-6.09,1.732-7.797,4.351l-10.436,20.838c-0.839,2.573-0.839,6.076,0,8.663l7.823,22.594
	c0.888,4.345,5.204,7.814,10.426,8.673l15.632,3.468c3.469,0,8.69-4.359,8.69-7.824l9.56-9.545l0.877-6.076l3.47,4.342
	c-0.887,6.076,3.461,14.777,10.417,17.375l7.824,146.728c-42.545-20.839-90.321-31.271-144.142-29.522v-14.723
	c7.817,0,11.274-1.722,10.427-6.098l-1.733-31.25c-0.876-1.739-2.61-5.205-5.204-5.205l-9.55,0.85c-2.611,0-5.194,1.732-5.194,3.465
	l-5.213,32.986c0,2.615,2.611,5.204,6.931,5.204v14.79c-52.936-4.369-105.066,0-152.806,24.313L496.854,506.246z M748.521,358.63
	l-8.69,9.55c-0.85,0.888-2.594,0-2.594-0.89l-6.957-20.82c-0.885-0.887,0-2.611,0.886-3.469l11.284-6.086
	c0.906-0.852,2.612,0,3.488,0.891l3.471,15.621C750.266,355.171,750.266,356.899,748.521,358.63z M747.702,650.385l-28.677,12.172
	l-9.542-13.901c-7.825-10.417,32.995-27.791,35.579-14.772L747.702,650.385z M707.741,653.854
	c-7.816,3.498-13.887,6.957-19.977,10.436l-0.851-8.686C693.845,655.604,700.774,654.732,707.741,653.854z M327.431,535.774
	c1.728,0,3.47,0,5.194,0l-2.61,22.57c-2.584,1.725-4.345,4.336-5.193,6.951L327.431,535.774z M277.93,857.057l1.726,21.706
	l-3.472-0.854L277.93,857.057z M235.348,1076.713l-52.113-54.695l76.445-104.198l-13.906,138.063
	c-0.876,4.337-2.611,7.792-4.348,11.28L235.348,1076.713z M274.423,1116.69l-29.487-31.285l6.927-10.418
	c4.337-6.078,5.196-13.9,6.091-20.83l14.737-153.693l6.965,3.463l0.849,212.764H274.423L274.423,1116.69z M278.807,169.333
	c0-1.747,2.584-3.469,5.195-3.469c3.468,0,5.203,1.722,5.203,3.469c0,1.725-1.735,2.608-5.203,2.608
	C281.38,171.941,278.807,171.058,278.807,169.333z M283.133,191.065l5.195,313.445c0,1.735-2.592,1.735-2.592,0l-4.356-313.445
	C281.38,190.187,283.133,190.187,283.133,191.065z M285.736,526.231c0-1.746,1.733-1.746,1.733,0l7.814,350.782
	c0,1.733-2.609,1.733-2.609,0L285.736,526.231z M298.754,1114.931l-5.193-207.51c0-1.735,1.724-1.735,1.724,0l6.081,207.51
	C301.365,1115.806,298.754,1115.806,298.754,1114.931z M304.836,1113.21l-3.471-172.803l22.57,76.405l12.17,11.274l1.734,14.781
	L304.836,1113.21z M342.176,1017.694l-8.693-7.828l-25.188-80.74l5.233,5.204l29.534,71.185L342.176,1017.694z M316.996,916.079
	h1.734l37.351,69.479v4.342l-8.692-6.959L316.996,916.079z M360.398,1033.315l4.345,13.899l-5.194-2.626l-4.354-13.01
	L360.398,1033.315z M409.062,1219.122l-14.79-11.287l-46.016-145.871l2.621-9.544l4.327,6.079l8.69,3.465l50.352,148.473
	L409.062,1219.122z M442.011,1256.468l-8.685-13.894l-11.294-13.016l-6.929-6.965l8.691-20.84l-46.891-129.358l31.261,65.113
	l13.905,7.781l4.336,7.824l-5.213,6.105l7.814,26.051l26.905-0.873C451.568,1208.725,446.364,1233.028,442.011,1256.468z
	 M364.743,1020.296l13.039,7.82l51.226,103.324v6.092l-13.904-10.422L364.743,1020.296z M465.491,1150.519
	c-1.734,4.35-3.468,8.689-5.203,13.895l-15.632-19.977h-9.549l-0.877-4.354l6.072-9.551l-55.583-110.27l-11.274-7.791l-7.816-16.469
	v-14.787l-32.993-60.78c60.786,9.544,124.165,13.895,184.958,18.226c-0.885,8.717-2.618,18.252-2.618,26.934
	c0,25.175,2.618,49.47,7.814,72.92L465.491,1150.519z M516.701,909.151c-9.551-0.877-18.244-1.736-27.793-2.627l2.611-15.621
	c2.611,0,8.692-2.605,8.692-6.961l-1.726-26.057c0-2.611-0.856-5.203-3.468-5.203l-7.815-0.882c-3.47,0-6.94,1.73-6.94,4.345
	l-4.345,24.322c-0.885,4.352,3.468,7.83,6.071,9.555l-1.727,15.631c-55.563-4.346-110.268-10.422-164.983-19.986
	c-1.725-4.34-5.193-6.957-8.662-7.8v-15.632l6.938,4.333c2.6,1.739,7.815,0.852,7.815-1.729l0.876-30.408
	c0-3.465-5.203-5.199-8.691-4.342l-13.902,6.931v-41.683c8.7-7.83,14.742-24.346,3.466-41.705l20.834-183.213
	c0.849,5.201,5.196,12.162,13.02,19.092c1.735,1.734,9.55,2.62,9.55,0.871l6.082-35.578c0.885-2.615-6.969-3.469-8.702-2.615
	c-2.604,0-5.194,0.857-7.807,2.615l1.735-19.037c46.014,2.606,92.055,6.928,137.184,13.014v24.298
	c-0.856,41.697,68.61,60.786,106.799,71.198l-35.577,169.326c-14.754-5.209-26.923,30.408-16.486,33.879L516.701,909.151z
	 M532.311,845.738c-10.425-4.337,4.356-34.72,13.896-29.521l12.171,6.105l-10.427,29.506L532.311,845.738z M548.818,1121.021
	c-9.54,6.09-24.304-28.688-13.02-32.156l13.896-3.459l12.134,26.928L548.818,1121.021z M551.431,813.634
	c36.463-75.533,93.78-127.637,158.901-158.029l3.47,4.334C646.066,692.935,596.604,735.47,551.431,813.634z M746.814,1294.687
	c-1.752,12.171-40.837-4.342-33.87-13.9l9.548-14.762l26.944,11.302L746.814,1294.687z M749.437,645.195l-0.887-5.212
	c72.071-23.441,150.229-23.441,221.442-0.883l-0.876,4.361C898.779,620.887,821.506,620.003,749.437,645.195z M973.444,634.761
	c3.461-13.021,44.297,2.607,36.464,13.895l-6.94,12.156l-32.993-12.156L973.444,634.761z M1017.741,1278.203
	c7.825,9.563-32.984,26.92-34.719,13.911l-3.5-15.646l27.793-12.155L1017.741,1278.203z M1007.315,657.353l1.735-3.475
	c67.725,30.393,125.898,83.363,158.901,155.434C1129.744,738.977,1070.685,683.413,1007.315,657.353z M1173.177,810.137
	c8.662-5.204,24.303,30.413,15.621,33l-13.897,4.345l-12.998-30.373L1173.177,810.137z M1181.839,1107.974l-13.019-5.205
	l9.551-27.791l13.018,4.352C1199.205,1081.918,1188.798,1111.441,1181.839,1107.974z M1207.046,896.989l-6.089,5.194
	c-2.611-19.944-8.682-37.312-15.621-55.55l4.31-1.743c3.506-1.733,3.506-4.341,3.506-8.69v-10.422l10.418-0.868v24.329l3.477,2.59
	V896.989z M1214.844,805.843l-8.663,1.735c-15.64-16.518-23.464-15.63-23.464,4.354c-3.488-4.354-6.072-6.09-8.692-4.354
	l-3.46,1.733c-34.73-70.335-89.445-125.898-159.771-158.039l1.726-3.466c2.621-6.089-4.316-13.895-15.64-18.249
	c-11.273-4.324-23.425-3.461-25.17,2.615l-0.84,3.473c-19.985-6.088-34.748-9.549-54.713-12.166l-4.33-18.227
	c39.964,15.634,79.887,22.568,119.82,19.1c-3.458,8.713-5.232,18.25,9.551,23.454l108.544,34.725l21.682,26.925l19.127,40.811v6.961
	c0.859,3.459,4.318,5.189,7.806,5.189h12.17v10.432h-8.691v22.563h13.02v10.431H1214.844z M1174.9,690.356l13.897,6.071
	c4.354,6.935,12.171,6.935,18.248,5.198l4.356-0.881l1.706,42.545h-4.326l-9.55-5.189l-10.427-26.925L1174.9,690.356z
	 M1213.108,678.182c-4.326,0.848-6.078,0.848-7.785,3.454c-4.354,0-8.702-0.867-12.172,0l-133.743-40.791
	c68.629,0,139.824-3.502,209.292-8.701l-26.924,33.869c-7.852,0.883-10.397,5.213-8.7,12.169
	C1226.996,677.305,1218.304,677.305,1213.108,678.182z M1460.589,281.356c0-1.739,0.859-2.605,2.611-2.605
	c1.708,0,2.613,0.848,2.613,2.605v18.246c0,1.738-0.877,2.615-2.613,2.615c-1.734,0-2.611-0.877-2.611-2.615V281.356z
	 M1311.236,341.265c-6.081-0.881-11.283-0.881-3.498-2.553c29.526-6.939,79.009-12.162,118.093-15.635
	c5.224-5.224,13.925-8.688,26.047-12.176c7.825,2.602,17.403,2.602,26.943,0.857c8.674,2.592,16.488,6.095,24.304,11.285
	c33.014,0,72.956,1.729,105.961,9.549c10.415,2.598,18.24,6.086,0,9.549C1508.348,358.63,1411.097,355.171,1311.236,341.265z
	 M1462.314,700.745l-2.611-277.851c0-1.743,3.497-1.743,3.497,0l2.613,277.851C1465.813,703.362,1462.314,703.362,1462.314,700.745z
	 M1464.908,745.024v92.045c0,2.618-3.46,2.618-3.46,0v-92.045C1461.448,743.29,1464.908,743.29,1464.908,745.024z
	 M1424.975,1146.199l-54.707-13.899l54.707-9.541V1146.199z M1430.179,1025.528c-2.622,0-3.461,1.729-3.461,3.475l-0.887,72.908
	l-67.725,13.895l-16.486,0.887l-38.189-45.146l57.288-81.633l69.469,31.259v4.356H1430.179z M1370.268,975.174l78.16-113.769
	l7.808,2.607l1.742,143.273h-18.25L1370.268,975.174z M1443.227,1041.126l6.946-6.077h6.938l5.203,10.423v52.104l-18.239,0.861
	L1443.227,1041.126z M1497.054,1152.279l-8.711,6.929v-6.929c2.612-0.876,4.355-3.464,4.355-6.08c0-3.468-3.46-6.079-7.824-6.079
	c-4.346,0-7.796,2.611-7.796,6.079c0,3.466,2.582,5.204,5.185,6.08v8.702l-4.355-0.886l-32.108-8.692v-32.117l6.967-0.873
	c1.734,6.957,6.081,4.346,10.435,2.607l13.01-9.541c6.93-5.198,7.816-13.043-0.876-15.629l-0.849-50.371l4.336-11.284l9.505-0.87
	l6.106,5.203L1497.054,1152.279z M1481.405,1003.793l-3.498-0.856l-1.697-138.064l4.318,4.354l-1.707,13.013l24.304,85.967
	l4.345,5.205L1481.405,1003.793z M1566.54,1118.432l-3.507-10.42l4.348,2.605L1566.54,1118.432z M1573.441,1104.546l-14.753-12.176
	l-25.17-70.345l-0.896-13.904l12.144,10.437l30.4,79.886L1573.441,1104.546z"/>
</svg>
