<?xml version="1.0" encoding="utf-8"?>
<!-- Generator: Adobe Illustrator 16.0.0, SVG Export Plug-In . SVG Version: 6.00 Build 0)  -->
<!DOCTYPE svg PUBLIC "-//W3C//DTD SVG 1.1//EN" "http://www.w3.org/Graphics/SVG/1.1/DTD/svg11.dtd">
<svg version="1.1" xmlns="http://www.w3.org/2000/svg" xmlns:xlink="http://www.w3.org/1999/xlink" x="0px" y="0px"
	 width="573.398px" height="903.448px" viewBox="0 0 573.398 903.448" enable-background="new 0 0 573.398 903.448"
	 xml:space="preserve">
<path d="M558.565,218.761l11.302-1.249c6.298-27.65,4.401-55.937-7.54-81.71l-8.174,0.631v-3.135
	c6.278-8.186,5.656-15.709,1.253-23.891l1.886-85.533c0.65-8.169-5.637-17.581-16.328-23.874l-6.289,1.87
	c-20.729,5.671-43.354,11.324-64.104,9.442l-8.795,2.518c-3.78-4.395-8.184-8.184-13.84-10.687l-9.418,1.877
	c-20.749,8.81-41.488,15.713-59.069,10.693l-12.596,1.881l1.265,4.411c-5.648-7.559-11.944-10.067-18.232-13.207l-8.154,0.637
	c-20.749,9.432-35.833,10.055-47.775,6.905h-11.305c-1.883,2.526-2.508,5.04-2.508,7.538c-5.655-4.389-10.049-7.538-16.348-8.165
	l-8.181,1.264c-18.214,9.433-32.675,12.571-44.601,10.677l-10.69-0.628l-0.632,6.921c-3.139-3.775-8.785-6.293-16.328-8.796
	l-6.927,2.512c-12.558,7.542-25.756,13.198-39.596,11.322h-6.899c-3.762-4.397-9.417-7.541-15.705-8.813l-6.297,1.272
	c-14.453,8.795-24.492,10.039-38.953,5.65l-8.175,1.891L59.55,55.313c-5.646-5.661-11.313-8.796-18.223-11.321l-6.91,1.262
	c-8.162,6.274-15.696,13.193-25.143,11.945l-7.543,5.037l2.518,97.412c-5.665,4.401-5.665,8.177,0,11.938v3.781
	c-3.138,21.994-2.518,43.364,1.887,65.361L9.907,412.29c0.631,19.48,47.125,21.988,57.816,3.78l1.884,50.274
	c0.642,22.611,53.435,24.506,66.622,3.762l-0.623,64.735c-0.611,24.513,49.654,28.914,73.533,3.767v49.029
	c0,23.865,68.498,27.641,78.564-1.889v68.506c0,27.654,72.91,32.684,82.959,5.652l2.509,71.655
	c0.63,25.772,69.119,30.798,78.555,6.293l-1.253,145.177c0,27.641,82.336,27.004,82.958-0.631l9.427-341.248l6.919,2.504
	c11.313-19.482,11.313-50.887,4.396-76.025l-8.795-3.785l6.908-251.365C554.173,214.362,556.058,216.243,558.565,218.761z
	 M555.397,109.407c0.631,1.889,0.631,3.775-0.622,6.292L555.397,109.407z M559.782,139.583c5.664,6.287,11.951,31.435,11.34,44.604
	l-26.406,2.527c-1.264-11.323-3.139-22.631-5.025-33.952c4.395-2.494,8.164-6.892,11.946-12.538L559.782,139.583z M514.55,182.955
	c-1.254,1.887-2.498,4.384-3.149,6.289l-21.353,1.253l17.591-18.853C508.261,172.262,511.4,178.55,514.55,182.955z M496.327,143.976
	l14.461-0.617c3.148,4.393,6.277,7.54,9.428,9.421c-3.781,3.14-7.543,6.925-10.691,10.07
	C506.386,159.069,501.351,150.268,496.327,143.976z M512.673,168.489c1.877-1.884,9.418-9.42,13.199-12.57
	c-2.518,6.931-5.656,13.849-8.807,20.744C515.82,174.151,514.567,171.634,512.673,168.489z M529.011,162.85
	c0.622,8.177,1.875,16.33,2.518,24.489l-8.184,0.647c-1.254-1.265-1.885-2.528-2.518-4.408
	C523.985,176.663,526.494,169.753,529.011,162.85z M529.642,144.62c-2.525,1.883-4.41,3.758-6.908,5.647
	c-3.14-1.89-6.913-5.647-10.061-10.685h-5.034l2.509-101.172c15.102-0.633,35.191-3.772,42.742-10.06l-2.507,95.525
	C545.339,129.532,537.806,137.075,529.642,144.62z M538.446,148.378c2.509-1.875,5.025-3.758,6.91-5.65
	c-1.893,3.143-4.41,5.033-6.91,6.923C538.446,149.01,538.446,148.378,538.446,148.378z M529.002,5.722
	c6.927,25.142-48.392,22.63-52.792,8.795C485.646,17.053,522.091,9.508,529.002,5.722z M463.653,14.517l6.287-1.861
	c-0.623,13.193,37.076,20.095,45.88,18.208c7.534-1.89,50.89-9.432,18.847-27.03l6.929-1.896
	c33.938,22.64-14.45,32.071-23.889,32.702C496.958,36.517,459.872,27.72,463.653,14.517z M430.968,12.014
	c-8.174,13.813-34.568,12.563-35.824,7.542C405.194,22.078,424.681,15.159,430.968,12.014z M379.438,18.303
	c11.313,10.068,35.825,9.427,42.111,9.427c5.025-0.631,43.367-4.397,17.602-20.736l9.428-1.883
	c33.305,20.11-10.049,27.025-26.396,27.662c-21.372,0.595-41.488-3.168-50.906-13.217L379.438,18.303z M442.28,144.62l-26.395,1.892
	l1.254-110.6c14.442-0.637,35.191-3.776,42.732-10.077l-1.254,101.18C452.972,132.657,447.314,138.324,442.28,144.62z
	 M458.618,135.199v8.173l-8.165,0.622C452.972,140.858,456.11,138.347,458.618,135.199z M400.792,198.026
	c6.289-6.275,11.954-11.921,17.602-18.847c2.507,5.662,5.654,10.696,8.805,16.33L400.792,198.026z M457.366,225.685l-1.887,205.497
	l-40.848-15.083l1.254-187.293L457.366,225.685z M187.117,165.978c-1.245,1.25-2.498,2.512-3.753,4.398
	c-5.033,5.039-10.067,11.317-15.092,16.96c-3.139-6.29-7.542-13.193-11.936-18.847L187.117,165.978z M161.353,62.931
	c15.064,1.881,31.421-0.619,38.34-7.543l0.632,98.028c-2.506,2.503-5.656,5.025-9.427,8.792l-28.291,1.885L161.353,62.931z
	 M173.93,215.626l-25.144,1.89c4.394-5.028,10.68-11.321,16.97-18.845C168.263,204.321,171.403,209.993,173.93,215.626z
	 M200.335,243.902l0.621,94.272l-37.076-13.209l-0.613-78.551L200.335,243.902z M181.48,214.989
	c-3.149-7.537-6.921-15.06-10.69-22.61c4.402-4.393,8.795-9.424,13.188-14.452c4.392-5.028,8.806-8.785,12.567-12.571l27.035-1.876
	c7.542,6.288,12.576,14.447,16.971,22.615c-8.176,9.432-16.339,18.21-24.522,26.393L181.48,214.989z M267.578,156.546l-22.013,1.896
	l-0.622-103.054c15.083,1.887,31.43-3.78,38.341-10.694v97.41C278.269,146.503,272.612,151.518,267.578,156.546z M283.284,150.898
	v4.409l-5.658,0.611C279.522,154.054,281.389,152.156,283.284,150.898z M263.796,160.958c-6.277,6.27-11.952,13.193-18.23,19.48
	c-4.393-6.919-8.164-12.574-12.564-17.589L263.796,160.958z M243.688,192.379c2.508,6.292,5.658,11.942,8.166,16.974l-25.133,2.492
	C232.376,205.586,238.033,199.285,243.688,192.379z M283.284,238.237V368.34l-37.088-13.829l-0.631-113.768L283.284,238.237z
	 M260.017,208.72c-3.761-8.182-7.532-15.083-11.331-21.998c8.185-9.427,16.356-18.232,24.53-27.018l32.042-1.895
	c6.938,6.283,11.964,14.452,17.61,23.251c-7.543,8.184-15.705,16.966-23.891,25.134L260.017,208.72z M350.535,150.898l-20.739,1.258
	l-0.622-103.677c15.075,1.875,31.421-3.786,38.341-10.701v97.421h-0.018C361.849,140.238,356.194,145.247,350.535,150.898z
	 M367.497,143.358v6.292l-7.543,0.617C362.47,147.751,364.988,145.87,367.497,143.358z M346.745,154.666
	c-6.89,6.929-13.188,13.823-19.475,20.749c-3.762-6.289-8.164-12.582-13.189-18.224L346.745,154.666z M325.384,185.458
	c3.141,6.293,6.288,11.949,9.427,17.597l-26.395,1.896C314.081,198.657,319.729,192.364,325.384,185.458z M368.127,231.944V399.13
	l-37.075-13.207l-0.633-151.452L368.127,231.944z M341.74,202.438c-3.763-7.558-7.551-14.452-11.321-22
	c7.531-9.421,16.326-18.23,25.133-26.385l42.742-3.155c6.9,4.409,11.936,12.581,17.592,23.253
	c-8.165,8.168-16.347,16.96-24.502,24.506L341.74,202.438z M407.081,150.268l31.422-1.89c-5.66,6.288-11.928,13.207-17.584,19.486
	C417.157,161.565,412.746,155.287,407.081,150.268z M337.339,14.517c11.313,27.042-35.832,22-38.34,5.676
	C308.435,23.948,330.419,20.192,337.339,14.517z M282.659,17.67l8.797,0.633c0,13.211,17.602,19.476,32.053,21.361
	c8.796,1.25,62.843-5.656,18.855-27.65l6.899-2.512c49.03,27.015-8.173,36.45-25.132,35.191
	C298.368,43.44,278.882,30.863,282.659,17.67z M252.495,20.796c11.301,25.788-35.203,25.156-38.342,8.809
	C224.213,33.367,246.196,27.085,252.495,20.796z M209.751,29.604c1.244,13.836,22.625,18.855,37.068,17.583
	c8.796-1.253,54.045-10.049,9.437-27.64l6.91-2.518c49.022,23.256,0.613,34.559-15.706,35.191
	c-21.362,0.631-49.642-10.035-45.881-23.242L209.751,29.604z M178.963,31.499c11.321,18.211-35.211,23.23-37.087,9.415
	C151.946,44.062,173.297,37.778,178.963,31.499z M138.737,40.296c-2.525,8.8,20.09,16.323,33.286,14.451
	c16.347-1.895,40.886-11.953,7.562-26.396l4.394-1.895c34.56,13.207,15.073,31.42-11.313,33.946
	c-21.37,1.891-43.994-10.073-41.488-20.107H138.737z M115.491,167.228l-23.248,1.898L90.349,62.912
	c15.083,1.886,31.43-0.618,38.339-7.543l1.255,97.41C124.925,157.177,119.883,162.202,115.491,167.228z M129.942,161.585v5.04
	h-5.018C126.181,164.733,128.056,163.479,129.942,161.585z M80.921,223.169c5.033-6.279,10.059-13.194,15.092-20.114
	c2.498,6.298,4.385,11.935,6.279,18.214L80.921,223.169z M131.205,248.933l0.622,64.095L94.75,299.192l-1.263-47.748
	L131.205,248.933z M86.567,172.898l25.143-1.254c-5.016,5.65-9.418,11.938-14.451,17.6C94.11,183.583,90.979,178.55,86.567,172.898z
	 M108.563,35.267c6.296,16.955-28.263,25.756-36.438,5.034C82.176,43.44,102.284,40.914,108.563,35.267z M68.987,39.036
	c-0.624,15.693,18.853,17.583,33.938,16.966c13.188-1.272,31.411-8.795,6.908-22.635l6.28-0.608
	c27.659,15.701,8.182,26.386-14.442,27.008c-21.996,0.637-37.718-4.397-40.217-19.471L68.987,39.036z M25.622,167.868l-1.885-92.405
	c14.441,2.536,28.912-0.608,35.813-6.899l1.263,89.241C48.868,164.714,37.566,167.868,25.622,167.868z M60.813,165.978v5.04
	l-14.442,1.244C51.386,171.018,55.789,169.111,60.813,165.978z M34.417,47.824c3.149,1.258,8.173,3.765,10.69,5.028
	c1.876,5.661-21.37,16.346-32.683,6.292C21.229,57.877,28.138,53.474,34.417,47.824z M4.249,62.294l5.658-4.417
	c6.288,12.586,26.404,13.214,38.33,8.811c9.428-3.775,10.69-11.318-12.566-20.104l6.277-0.632
	c25.143,10.676,20.74,20.099,8.184,24.511C33.173,76.736,17.448,73.597,4.249,62.294z M7.39,178.55l9.436-0.637
	c11.313,15.112,18.214,31.439,22.606,48.389l-23.878,1.887C16.175,213.745,12.413,190.479,7.39,178.55z M28.138,256.479
	l33.938-2.526l0.613,43.368c-1.244-1.875-2.508-3.765-3.148-6.288l-16.959-6.903c-4.402,4.397-9.428,10.044-13.828,17.591
	L28.138,256.479z M31.881,423.669l-1.245-57.851l33.307,11.331l0.622,36.465C54.505,422.411,43.203,425.559,31.881,423.669z
	 M63.953,336.289l-24.521-8.792c5.667-13.197,6.298-28.285,4.403-38.971l14.452,6.919c1.894,6.292,6.286,10.7,11.962,12.581
	C70.249,317.453,68.363,326.862,63.953,336.289z M48.219,225.685c-4.394-16.332-10.04-32.678-21.362-48.39l50.916-3.144
	c5.646,6.909,10.682,14.457,14.443,21.997c-7.534,10.046-14.443,19.47-21.363,27.655L48.219,225.685z M97.881,481.485l-1.868-93.023
	l37.068,12.571l0.611,67.87C124.286,477.698,109.201,482.733,97.881,481.485z M139.358,363.952l-64.726-23.243
	c5.025-10.713,6.901-21.38,5.656-32.071c3.761-1.253,7.542-3.134,10.04-6.9l53.423,19.472
	C145.017,335.658,143.14,349.496,139.358,363.952z M140.634,218.138l-29.546,2.527c-2.509-8.178-5.656-16.344-10.04-24.503
	c6.893-8.823,13.189-17.6,20.108-25.136l26.396-1.891c6.287,7.538,11.303,15.706,15.715,24.501
	C155.093,203.7,147.552,213.122,140.634,218.138z M165.765,552.486l-1.254-140.776l37.078,12.576l0.631,115.619
	C192.16,548.719,177.71,552.486,165.765,552.486z M217.292,392.234l-70.391-25.761c3.78-13.838,5.656-28.29,3.78-42.742
	l71.638,26.382C222.932,363.952,221.696,378.389,217.292,392.234z M247.46,602.114l-0.621-162.132l36.445,12.585l1.875,131.959
	C277.617,595.845,261.28,604.646,247.46,602.114z M305.276,424.286l-80.46-29.534c3.78-13.844,6.298-28.298,4.411-42.116
	l80.453,29.53C310.925,395.996,309.058,409.82,305.276,424.286z M368.749,657.447c-8.182,13.192-23.878,17.577-35.822,15.7
	l-1.255-204.253l37.077,12.571V657.447L368.749,657.447z M388.868,454.448l-76.031-27.656c3.762-13.824,5.647-28.284,3.762-42.728
	l76.028,28.272C393.892,426.167,392.638,440.612,388.868,454.448z M452.349,731.597c-8.162,13.207-27.658,20.098-39.594,18.207
	l1.256-252.623l40.847,13.83L452.349,731.597z M475.577,485.864l-79.178-28.904c3.14-13.82,5.656-28.275,3.14-42.1l79.818,28.887
	C480.61,458.21,479.357,472.042,475.577,485.864z M434.729,194.881c-3.762-6.914-6.9-14.46-10.682-21.361
	c7.534-8.806,15.064-16.974,22.626-25.769l41.472-3.131c2.516,3.131,16.354,21.985,16.968,22.607
	c-8.796,8.188-17.591,16.959-24.503,24.51L434.729,194.881z M486.259,446.265l45.881,16.982
	c0.633,10.045-5.646,26.383-13.197,38.332l-36.445-13.204C486.259,474.538,488.776,460.716,486.259,446.265z M530.274,884.31
	c-8.164,13.194-27.659,16.324-39.595,13.824l8.163-372.06l40.228,13.831L530.274,884.31z M551.003,470.159
	c5.045,11.949,5.045,31.42,2.518,43.973l-23.888-8.777c8.173-13.834,13.831-27.02,12.575-38.35L551.003,470.159z M541.604,461.335
	c-0.631-0.633-1.254-1.887-1.254-3.149c-3.808-5.618-12.594-4.388-10.709-2.493c0.613,1.262,1.244,1.871,1.887,3.143l-30.789-11.316
	l5.023-225.614l13.84-0.631c5.023-6.911,9.428-11.313,12.576-13.829c3.77,9.432,11.943,10.685,15.705,1.89L541.604,461.335z"/>
</svg>
