<?xml version="1.0" encoding="utf-8"?>
<!-- Generator: Adobe Illustrator 16.0.0, SVG Export Plug-In . SVG Version: 6.00 Build 0)  -->
<!DOCTYPE svg PUBLIC "-//W3C//DTD SVG 1.1//EN" "http://www.w3.org/Graphics/SVG/1.1/DTD/svg11.dtd">
<svg version="1.1" xmlns="http://www.w3.org/2000/svg" xmlns:xlink="http://www.w3.org/1999/xlink" x="0px" y="0px"
	 width="779.759px" height="867.47px" viewBox="0 0 779.759 867.47" enable-background="new 0 0 779.759 867.47"
	 xml:space="preserve">
<path d="M772.464,68.285c-1.379-1.174-3.441-1.004-4.615,0.373l-1.951,2.304l-3.873-3.29l17.734-19.357
	c0,0-5.49-18.897-21.424-32.439C742.374,2.338,722.845,0,722.845,0l-16.227,20.632l-3.868-3.277l1.95-2.3
	c1.166-1.371,1.006-3.436-0.371-4.613l-2.696-2.282c-4.148-3.517-10.36-3.012-13.872,1.132c-3.521,4.15-3.021,10.364,1.137,13.881
	l2.686,2.28c1.384,1.174,3.439,1.005,4.605-0.368l1.961-2.303l4.067,3.46l-16.312,20.738l-3.625-3.073l1.959-2.304
	c1.17-1.378,0.999-3.437-0.377-4.605l-2.697-2.292c-4.142-3.511-10.352-3.006-13.873,1.138c-3.514,4.146-3.006,10.355,1.139,13.875
	v0.006l2.691,2.286c1.381,1.159,3.436,0.993,4.609-0.382l1.951-2.301l3.824,3.248L665.204,73.32l-3.38-2.866l1.954-2.297
	c1.162-1.381,0.994-3.449-0.377-4.613l-2.697-2.282c-4.145-3.517-10.357-3.011-13.873,1.137c-3.51,4.146-3,10.354,1.131,13.871
	v0.005l2.693,2.286c1.375,1.166,3.441,1.001,4.609-0.38l1.955-2.297l3.574,3.035l-7.721,9.827c0,0,1.563,14.527-5.977,23.408
	L417.419,373.465c-18.152-13.368-57.27-39.122-101.631-34.423c-54.977,5.83-78.988,43.105-98.25,109.274
	c-13.332,45.796-64.025,38.585-116.177,58.547c-41.706,15.954-201.534,126.007-6.979,291.176
	c194.561,165.144,277.203-10.445,286.178-54.183c11.225-54.69-4.125-103.544,38.91-124.131
	c62.158-29.753,95.025-59.505,91.853-114.697c-2.565-44.537-34.333-78.956-50.472-94.689l220.547-269.073
	c7.537-8.886,22.131-9.7,22.131-9.7l8.432-9.211l3.58,3.035l-1.955,2.3c-1.158,1.382-0.991,3.442,0.379,4.609l2.691,2.277h0.008
	c4.145,3.524,10.361,3.013,13.878-1.131c3.515-4.144,3.007-10.352-1.141-13.877l-2.696-2.28c-1.381-1.171-3.432-1-4.596,0.375
	l-1.965,2.297l-3.366-2.861l17.817-19.467l3.824,3.257l-1.957,2.301c-1.17,1.381-1,3.44,0.381,4.605l2.691,2.286v-0.005
	c4.148,3.516,10.354,3.013,13.877-1.137c3.514-4.144,3.008-10.355-1.131-13.866l-2.691-2.292c-1.379-1.164-3.446-0.994-4.615,0.373
	l-1.951,2.305l-3.619-3.074l17.821-19.456l4.063,3.455l-1.941,2.305c-1.175,1.367-1.003,3.432,0.377,4.604l2.69,2.28
	c4.137,3.518,10.35,3.008,13.869-1.129c3.52-4.144,3.016-10.362-1.133-13.873L772.464,68.285z M291.272,698.093L161.021,587.531
	l21.166-24.917l130.238,110.557L291.272,698.093z M381.047,551.59c-21.109,24.868-58.37,27.91-83.243,6.801
	c-24.867-21.102-27.909-58.377-6.801-83.235c21.104-24.865,58.381-27.91,83.24-6.808C399.107,489.46,402.151,526.726,381.047,551.59
	z"/>
</svg>
