<?xml version="1.0" encoding="utf-8"?>
<!-- Generator: Adobe Illustrator 16.0.0, SVG Export Plug-In . SVG Version: 6.00 Build 0)  -->
<!DOCTYPE svg PUBLIC "-//W3C//DTD SVG 1.1//EN" "http://www.w3.org/Graphics/SVG/1.1/DTD/svg11.dtd">
<svg version="1.1" xmlns="http://www.w3.org/2000/svg" xmlns:xlink="http://www.w3.org/1999/xlink" x="0px" y="0px"
	 width="559.15px" height="1030.982px" viewBox="0 0 559.15 1030.982" enable-background="new 0 0 559.15 1030.982"
	 xml:space="preserve">
<g>
	<path fill="#1A1A1A" d="M283.061,18.048C154.029,21.515,48.577,88.103,48.577,165.81c0,77.705,105.452,138.757,234.483,135.974
		c129.026-3.47,234.479-69.369,234.479-147.764C517.539,76.313,412.087,15.268,283.061,18.048z M283.061,295.533
		C156.113,299,52.755,239.338,52.755,163.721c0-76.306,103.368-140.136,230.306-143.604
		c126.257-2.764,229.633,56.193,229.633,131.81C512.693,228.242,409.317,292.752,283.061,295.533z"/>
	<path fill="#1A1A1A" d="M471.741,311.54l72.147,3.462l15.262-26.357l-11.105-54.104h-5.552
		c6.939-15.263,10.406-31.928,11.095-48.568c1.416-92.306-104.724-165.854-241.379-173.485V0h-37.483l0.697,11.793
		C131.828,15.265,16.677,90.191,15.281,185.924c0,17.346,3.488,33.299,9.721,49.257h-7.636L0,285.813l14.584,26.36h78.395
		c47.882,31.918,114.455,51.338,188.006,51.338v13.886c-3.469,2.093-6.259,4.85-6.259,8.321v38.845
		c-2.763,2.781-4.847,6.248-4.847,10.407v22.201c0,4.179,2.093,7.636,4.847,9.722v107.521c-4.847,2.09-8.308,5.562-8.308,10.41
		c0,7.65,0,9.033,0,17.353c0,4.851,3.461,8.32,8.308,10.408v83.934c-2.763,2.088-5.545,4.162-6.231,6.941h-6.92
		c-2.094-8.319-8.352-10.407-13.199-8.319l-126.274,42.313c-3.46,0.69-6.223,4.163-4.845,8.324l-7.638,5.56l-21.512,6.244
		c-36.068,10.414,13.199,67.298,26.367,32.625l9.7-25.679l6.26-6.246l70.054-21.494l50.634,45.095
		c-1.388,6.25,2.779,13.874,12.479,13.874h2.782c0,1.399,0,2.1,0,3.475c0,8.34,11.795,13.195,24.274,13.195l8.326,149.854h-3.479
		c-4.166,0-7.646,2.776-7.646,6.938v20.814c-4.847,4.163-8.313,10.408-8.313,17.341c0,13.18,11.793,24.262,27.045,23.578
		c14.573,0,27.065-11.105,27.065-24.967c0-7.632-4.178-14.565-10.416-18.732v-18.039c0-4.162-3.472-6.942-7.637-6.942h-2.083
		l-7.627-151.237c7.627-2.088,13.875-6.245,13.875-11.793c0-1.374,0-2.067,0-3.467h4.847c10.408,0,14.563-9.028,12.481-16.657
		l45.1-46.479l74.238,22.892c0,8.326-2.78,18.045,4.855,25.669c19.41,20.115,54.094-13.188,36.766-31.228
		c-6.26-6.245-15.971-7.63-29.14-6.94c1.404-4.159-1.396-6.925-4.847-8.322l-126.285-42.314c-4.854-2.087-11.085,0-13.169,9.013
		h-4.082c-2.093-3.467-5.57-5.56-9.728-6.941v-81.848c5.533-2.09,9.029-5.56,9.029-10.407c0-8.322,0-9.703,0-17.351
		c0-4.85-3.496-8.322-9.029-10.41V466.234c2.779-2.776,4.157-5.56,4.157-9.028v-4.161h4.872v11.794c0,6.251,0,6.251,6.233,3.47
		c16.648-8.32,15.95-36.066,0-43.007c-6.947-3.469-6.233-2.085-6.233,4.163v8.335h-4.872v-2.776c0-3.471-1.387-6.247-4.157-9.014
		v-40.245c0-4.159-2.791-6.938-6.24-9.009v-13.879C369.072,359.411,428.048,340.681,471.741,311.54z M545.989,235.868l-6.938,12.482
		l-26.358,0.693l2.083,32.616l-11.084,15.255l-20.12-1.398h20.12l9.021-13.857l-1.395-33.309l10.397-11.788L545.989,235.868z
		 M56.224,298.313l-9.721-15.26l1.405-32.613l-21.511-0.689l-6.939-13.188l20.108,0.686l9.719,12.484l-1.386,33.306l9.013,13.875
		l16.64,2.093L56.224,298.313z M124.901,740.222c-2.79,0.695-4.855,3.452-5.553,5.542c0-2.09,1.395-6.243,4.157-6.938
		l126.954-42.315c3.479-1.402,7.637,3.465,9.032,6.246c-2.782-2.781-6.251-5.563-9.032-4.162L124.901,740.222z M216.457,731.181
		l42.309-12.5h9.729c0,2.085,0,4.871,0,9.029c0,4.167,2.771,6.941,6.231,9.72v33.306h-11.087c-1.384,0-2.064,0-2.78,0.688
		L216.457,731.181z M262.96,774.895c-9.04,0-10.417,11.099-6.957,16.634c-5.535-4.826-2.772-18.02,6.252-18.02l13.885,0.693
		L262.96,774.895z M308.051,958.052c0,2.776-3.479,2.776-3.479,0l-6.93-145.679c0-2.78,2.772-2.78,2.772,0.688L308.051,958.052z
		 M333.013,792.246c4.158-6.252,2.073-17.351-7.635-17.351l-13.889-0.692l14.577-0.693
		C335.784,773.509,339.264,786.702,333.013,792.246z M335.784,693.715l126.955,43.026c2.773,1.381,4.855,4.845,4.177,6.933
		c0-2.067-2.781-4.847-4.855-5.578L335.784,695.79c-2.771-1.388-6.24,1.396-9.021,4.176
		C328.159,697.187,332.324,692.329,335.784,693.715z M321.926,727.727c0-6.233,0-9.011,0-11.798h5.545l40.95,12.489l-43.713,42.313
		H310.82v-31.903C317.07,736.755,321.926,733.286,321.926,727.727z M319.146,713.847c-4.168,4.853-13.886,7.627-24.964,7.627
		c-11.095,0-20.825-2.774-24.275-7.627c4.865,3.465,13.878,6.25,24.275,6.25C304.572,720.097,314.271,717.314,319.146,713.847z
		 M292.777,612.574c-11.095,0-20.795-2.778-24.97-7.634c4.862,3.471,14.563,6.233,24.97,6.233c10.408,0,19.432-2.762,24.276-6.233
		C313.583,609.796,303.874,612.574,292.777,612.574z M318.458,586.904c-4.187,4.864-13.886,7.629-24.982,7.629
		c-11.104,0-21.493-2.779-24.964-7.629c4.846,3.466,14.576,6.245,24.964,6.245C303.874,593.154,313.583,590.37,318.458,586.904z
		 M283.088,319.117C147.092,322.583,34.721,256,34.721,173.438c0-28.446,19.421-86.022,97.815-127.649
		c43.694-20.113,97.119-31.906,154.001-31.919c58.977,0,113.784,12.482,157.489,33.99c73.541,42.316,88.116,88.808,88.116,116.552
		C532.143,246.965,419.054,315.645,283.088,319.117z"/>
	<path fill="#1A1A1A" d="M455.819,66.609c20.777,18.716,34.684,43.695,34.684,67.988c0,65.896-94.366,117.24-208.113,120.003
		c-113.767,2.783-207.426-47.162-207.426-113.076c0-24.966,15.264-49.259,38.144-68.681c-26.351,20.129-41.611,45.1-41.611,71.462
		c0,65.91,95.034,117.238,211.592,115.164c116.548-2.779,211.58-58.971,211.58-124.872
		C494.668,108.925,480.076,85.339,455.819,66.609z"/>
</g>
</svg>
