<?xml version="1.0" encoding="utf-8"?>
<!-- Generator: Adobe Illustrator 16.0.0, SVG Export Plug-In . SVG Version: 6.00 Build 0)  -->
<!DOCTYPE svg PUBLIC "-//W3C//DTD SVG 1.1//EN" "http://www.w3.org/Graphics/SVG/1.1/DTD/svg11.dtd">
<svg version="1.1" xmlns="http://www.w3.org/2000/svg" xmlns:xlink="http://www.w3.org/1999/xlink" x="0px" y="0px"
	 width="1013.057px" height="782.295px" viewBox="0 0 1013.057 782.295" enable-background="new 0 0 1013.057 782.295"
	 xml:space="preserve">
<path d="M1004.777,563.272L182.178,2.91c-12.152-8.498-38.858,3.025-45.589,16.412l-22.468,45.519l-6.061-0.594L50.404,24.182
	c0-7.905-4.26-10.337-11.537-8.517l-12.747-7.9c-2.46-2.408-7.306-1.816-9.719,0L1.818,21.128c-2.425,1.82-2.425,7.895,0,9.711
	l16.996,12.137c0.614,9.121,5.477,10.93,12.746,9.719l60.117,41.277l4.26,7.899l-37.019,74.685c-4.252,8.505,0,23.668,7.89,29.148
	l804.406,563.385c26.103,17.6,52.81,20.625,66.179-9.738l73.456-166.322C1015.101,583.907,1013.28,568.745,1004.777,563.272z
	 M182.771,8.364l22.464,15.779l-2.423,3.646L180.35,11.393c-10.324-7.267-30.355-3.011-39.454,9.128
	C147.562,6.544,171.252-0.13,182.771,8.364z M20.068,33.246L6.71,23.54c-0.603-0.612-1.819-3.039-0.603-3.652L17.034,9.573
	c1.818-1.206,4.862-1.814,7.286-0.611l10.321,7.9C29.185,19.289,24.329,24.753,20.068,33.246z M34.642,30.233
	c-2.41-1.229,4.253-7.285,6.665-6.08l63.163,43.724c2.404,1.814,5.438,0.608,8.474,0.608c1.217,0.593-5.458,12.133-6.664,11.529
	c-2.413-1.825-4.253-3.648-6.071-4.854L34.642,30.233z M77.743,200.804l122.62-160.89c1.225-1.806,4.872-1.806,7.285,0
	l17.629,12.168l-82.562,102.59c-1.801,2.417-3.64,4.855-3.64,7.269l-1.208,7.281l12.126,7.902l-38.257,50.99
	C109.929,230.531,74.719,203.84,77.743,200.804z M113.568,229.962l38.837-51.005l1.831,1.206l88.028-116.566l26.688,18.227
	l-82.542,105.646c-1.82,1.802-3.048,4.256-3.659,7.282l-0.583,7.265l6.051,3.661l-37.614,49.771
	C149.362,257.267,112.341,231.776,113.568,229.962z M152.444,257.286l37.623-50.388l8.513,5.464l87.417-118.999l28.537,19.43
	L232.575,219.64c-1.819,1.822-2.404,4.864-3.639,7.286l-2.433,4.864l0.614,0.604l-37.644,50.379
	C187.672,285.821,150.625,260.33,152.444,257.286z M191.878,284.591l37.634-50.995l13.367,9.121l88.634-118.381l24.888,16.996
	L228.927,310.696C226.493,314.34,189.446,288.235,191.878,284.591z M231.359,312.521l126.869-170l26.716,18.841l-81.969,107.449
	c-1.799,1.812-2.423,4.864-3.639,7.282l-1.799,5.459l10.917,6.67l-37.644,51.617C268.397,342.861,228.937,316.146,231.359,312.521z
	 M272.631,341.64l38.235-51.59l3.036,1.824l88.031-118.999l29.743,20.053L350.329,300.99c-1.82,2.413-3.045,4.851-3.639,7.272
	l-1.217,5.464l3.649,2.419l-37.643,52.206C309.678,370.77,270.812,344.054,272.631,341.64z M313.902,370.203l37.66-52.819
	l11.53,7.287l86.814-119.614l28.527,19.438L352.176,396.91C349.744,399.955,311.49,373.222,313.902,370.203z M354.59,398.728
	l125.077-173.026l24.277,16.407L417.12,363.53l16.404,10.925l-38.267,52.807C392.835,430.905,352.148,401.757,354.59,398.728z
	 M397.098,429.054l38.226-53.401l2.432,1.82l85.6-122.024l30.344,20.645l-87.407,122.026l7.901,6.083l-37.021,52.792
	C434.729,460.647,394.674,432.716,397.098,429.054z M439.574,458.828l37.029-53.403l9.73,7.258l85.589-123.836l31.571,21.236
	L479.65,486.752C477.218,489.806,437.172,461.855,439.574,458.828z M481.488,487.978l37.633-54.026l16.383,11.538l86.203-123.25
	l24.908,16.997l-123.243,177.87C521.552,519.521,479.667,491.017,481.488,487.978z M525.202,518.946l123.25-178.489l28.518,20.038
	l-85.608,125.668l12.755,7.89l-37.633,53.429C564.068,551.12,522.156,523.207,525.202,518.946z M568.905,549.29l37.039-54.03
	l5.439,3.034l84.997-124.447l29.769,20.033l-83.175,127.493l2.433,1.819l-35.219,54.624
	C608.368,581.47,566.464,552.331,568.905,549.29z M612.017,579.665l35.181-55.252l13.981,9.716l84.984-126.277l28.546,18.808
	L651.468,607.583C649.657,610.633,610.8,582.097,612.017,579.665z M653.871,608.78l122.035-180.924l26.113,17.633l-83.797,128.086
	l13.96,8.502l-37.019,55.849C693.354,640.349,652.665,611.228,653.871,608.78z M696.983,639.126l37.047-55.232l2.415,1.211
	l84.401-126.889l30.947,21.259l-84.381,128.693l6.063,4.262l-35.835,55.231C736.445,669.472,695.164,642.171,696.983,639.126z
	 M740.084,669.481l35.218-55.841l12.144,8.517l82.553-129.925l31.571,21.241L780.762,698.019
	C779.545,699.847,738.867,671.32,740.084,669.481z M782.59,699.205l36.427-55.195l16.385,10.916l83.798-129.321l24.897,16.999
	L822.666,727.148C821.467,729.561,781.385,701.651,782.59,699.205z M981.719,574.798L865.153,754.49
	c-1.207,2.433-41.292-23.687-40.065-25.485l120.214-185.177l35.813,23.705C982.926,569.339,982.926,572.973,981.719,574.798z"/>
</svg>
