<?xml version="1.0" encoding="utf-8"?>
<!-- Generator: Adobe Illustrator 16.0.0, SVG Export Plug-In . SVG Version: 6.00 Build 0)  -->
<!DOCTYPE svg PUBLIC "-//W3C//DTD SVG 1.1//EN" "http://www.w3.org/Graphics/SVG/1.1/DTD/svg11.dtd">
<svg version="1.1" xmlns="http://www.w3.org/2000/svg" xmlns:xlink="http://www.w3.org/1999/xlink" x="0px" y="0px"
	 width="852.297px" height="852.298px" viewBox="0 0 852.297 852.298" enable-background="new 0 0 852.297 852.298"
	 xml:space="preserve">
<g>
	<path d="M578.85,28.425C359.184-55.919,112.758,53.79,28.424,273.446c-84.342,219.666,25.369,466.092,245.028,550.432
		c219.66,84.334,466.097-25.374,550.426-245.031C908.21,359.183,798.505,112.757,578.85,28.425z M64.011,416.295l7.11-0.448
		c-1.563,52.563,8.654,105.227,30.678,154.691c38.563,86.634,108.562,153.076,197.096,187.066
		c40.935,15.71,83.729,23.68,127.181,23.68c5.376,0,10.729-0.166,16.06-0.414l-0.016,7.1c-5.337,0.24-10.686,0.396-16.044,0.396
		c-44.328,0-87.967-8.131-129.71-24.158C206.059,729.54,134.667,661.787,95.33,573.413C72.964,523.181,62.522,469.69,64.011,416.295
		z M93.618,414.401l7.098-0.452c-4.954,135.307,75.395,265.114,208.689,316.288c37.547,14.424,76.803,21.738,116.673,21.738
		c0.011,0,0.021,0,0.026,0c5.4,0,10.766-0.185,16.126-0.461l-0.026,7.107c-5.35,0.254-10.706,0.438-16.087,0.438
		c-0.018,0-0.024,0-0.039,0c-40.743-0.008-80.851-7.476-119.214-22.209C170.909,684.653,88.866,552.395,93.618,414.401z
		 M426.204,150.402c33.744,0,66.972,6.19,98.752,18.395c68.742,26.39,123.089,77.972,153.038,145.238
		c15.928,35.78,23.852,73.711,23.89,111.733l-7.075,0.869c0.082-37.336-7.646-74.592-23.286-109.723
		c-29.173-65.536-82.125-115.789-149.104-141.51c-30.971-11.898-63.336-17.92-96.215-17.92c-0.309,0-0.62,0.013-0.927,0.013
		l0.423-7.085C425.868,150.413,426.036,150.402,426.204,150.402z M292.928,374.996c28.248-73.579,110.789-110.317,184.368-82.079
		c73.578,28.252,110.333,110.799,82.077,184.382c-28.248,73.583-110.793,110.334-184.367,82.077
		C301.424,531.128,264.671,448.578,292.928,374.996z M615.542,436.292l-7.125,0.871c4.628-77.346-40.72-152.271-116.818-181.49
		c-21.053-8.084-43.063-12.181-65.407-12.181c-2.045,0-4.093,0.048-6.123,0.118l0.428-7.089c1.896-0.058,3.79-0.104,5.695-0.104
		c23.221,0,46.074,4.252,67.945,12.65C572.757,279.255,619.762,356.405,615.542,436.292z M237.583,405.175l7.155-0.455
		c-3.876,32.311,1.008,65.186,14.588,95.694c19.836,44.554,55.84,78.729,101.375,96.214c21.055,8.083,43.063,12.18,65.415,12.18
		c5.566,0,11.081-0.288,16.554-0.798l-0.023,7.108c-5.469,0.484-10.982,0.768-16.53,0.768c-23.228,0-46.085-4.266-67.95-12.654
		c-47.308-18.162-84.699-53.655-105.307-99.938C238.934,472.019,233.841,438.327,237.583,405.175z M644.834,432.726l-7.13,0.868
		c1.145-31.764-4.916-63.618-18.219-93.507c-22.993-51.643-64.718-91.244-117.489-111.504
		c-24.398-9.361-49.902-14.117-75.798-14.117c-1.467,0-2.918,0.051-4.377,0.089l0.432-7.093c1.318-0.02,2.627-0.072,3.945-0.072
		c26.766,0,53.122,4.908,78.341,14.594c54.532,20.938,97.652,61.852,121.41,115.222
		C639.546,367.741,645.833,400.265,644.834,432.726z M208.243,407.052l7.156-0.461c-3.376,35.748,2.419,71.918,17.42,105.622
		c22.992,51.637,64.714,91.233,117.484,111.498c24.396,9.37,49.907,14.12,75.801,14.12c5.531,0,11.025-0.234,16.482-0.658
		l-0.029,7.119c-5.451,0.402-10.94,0.609-16.453,0.609c-26.766,0-53.124-4.904-78.338-14.586
		c-54.536-20.934-97.658-61.861-121.416-115.229C211.008,480.626,204.984,443.634,208.243,407.052z M665.212,430.242
		c0.607-34.45-6.298-68.888-20.722-101.3c-25.962-58.319-73.082-103.035-132.682-125.917c-27.556-10.582-56.357-15.945-85.61-15.945
		c-0.913,0-1.807,0.047-2.715,0.058l0.426-7.086c0.77-0.015,1.526-0.048,2.289-0.048c30.118,0,59.785,5.525,88.15,16.419
		c61.357,23.559,109.872,69.595,136.617,129.646c14.707,33.061,21.811,68.182,21.327,103.307L665.212,430.242z M180.69,408.819
		l7.151-0.446c-7.593,102.41,51.947,202.239,152.646,240.894c27.565,10.578,56.363,15.947,85.612,15.947
		c5.498,0,10.964-0.221,16.392-0.604l-0.019,7.113c-5.436,0.353-10.889,0.562-16.373,0.562c-30.116,0-59.779-5.515-88.145-16.407
		C234.595,616.196,173.329,513.933,180.69,408.819z M150.941,410.726l7.097-0.455c-6.646,113.664,60.027,223.691,171.843,266.627
		c30.973,11.885,63.34,17.912,96.217,17.912c5.466,0,10.894-0.215,16.31-0.555l-0.019,7.113c-5.417,0.314-10.842,0.519-16.291,0.519
		c-33.745,0-66.968-6.177-98.744-18.385C212.872,639.549,144.5,527.063,150.941,410.726z M722.013,423.313
		c-0.371-39.979-8.879-79.838-25.631-117.462c-32.135-72.187-90.456-127.53-164.216-155.845
		c-33.88-13.01-69.29-19.64-105.249-19.721l0.426-7.068c36.687,0.136,72.794,6.908,107.364,20.177
		c75.525,28.993,135.239,85.664,168.141,159.571c17.04,38.28,25.757,78.812,26.248,119.491L722.013,423.313z M123.64,412.481
		l7.104-0.461c-5.831,123.976,67.343,243.418,189.388,290.279c34.096,13.09,69.742,19.725,105.951,19.725c0.01,0,0.021,0,0.034,0
		c5.425,0,10.825-0.2,16.205-0.508l-0.021,7.117c-5.382,0.279-10.771,0.473-16.184,0.473c-0.013,0-0.02,0-0.034,0
		c-37.082,0-73.573-6.802-108.487-20.202C192.886,661.023,118.019,539.135,123.64,412.481z M751.751,419.689
		c-2.714-128.435-81.699-248.819-208.853-297.633c-36.766-14.122-75.167-21.372-114.176-21.669l0.433-7.07
		c39.726,0.35,78.834,7.749,116.279,22.127c129.682,49.799,210.334,172.426,213.38,303.387L751.751,419.689z M781.037,416.125
		c-4.108-138.88-90.02-268.597-227.632-321.437c-39.592-15.195-80.923-23.08-122.91-23.58l0.424-7.065
		c42.713,0.546,84.752,8.583,125.023,24.042c140.134,53.807,227.718,185.771,232.152,327.178L781.037,416.125z M819.886,411.39
		l-7.049,0.862c-5.604-150.255-99-290.147-247.998-347.353c-42.666-16.374-87.19-24.943-132.416-25.666l0.426-7.074
		c45.954,0.772,91.185,9.489,134.527,26.127C718.904,116.471,813.948,258.628,819.886,411.39z M426.068,820.286
		c-48.23,0-95.721-8.848-141.142-26.279C125.961,732.972,29.15,579.502,32.186,418.333l7.094-0.444
		c-3.231,158.475,91.879,309.491,248.184,369.505c44.612,17.126,91.247,25.813,138.604,25.813c5.342,0,10.663-0.134,15.972-0.354
		l-0.02,7.095C436.711,820.153,431.399,820.286,426.068,820.286z"/>
	<path d="M419.978,442.225c8.876,3.398,18.84-1.032,22.249-9.897c3.398-8.881-1.037-18.846-9.907-22.249
		c-8.875-3.412-18.831,1.019-22.245,9.903C406.672,428.853,411.106,438.817,419.978,442.225z"/>
</g>
</svg>
