<?xml version="1.0" encoding="utf-8"?>
<!-- Generator: Adobe Illustrator 16.0.0, SVG Export Plug-In . SVG Version: 6.00 Build 0)  -->
<!DOCTYPE svg PUBLIC "-//W3C//DTD SVG 1.1//EN" "http://www.w3.org/Graphics/SVG/1.1/DTD/svg11.dtd">
<svg version="1.1" xmlns="http://www.w3.org/2000/svg" xmlns:xlink="http://www.w3.org/1999/xlink" x="0px" y="0px"
	 width="814.142px" height="516.068px" viewBox="0 0 814.142 516.068" enable-background="new 0 0 814.142 516.068"
	 xml:space="preserve">
<g>
	<path d="M790.757,0H23.386C10.492,0,0,10.481,0,23.387v469.288c0,12.896,10.492,23.394,23.386,23.394h96.696l24.071-110.981
		c2.692-9.97,7.49-19.086,24.347-19.086h477.143c16.857,0,21.651,9.116,24.309,18.978l24.105,111.09h96.7
		c12.894,0,23.385-10.498,23.385-23.394V23.387C814.142,10.481,803.65,0,790.757,0z M774.22,360.092
		c0,9.271-7.544,16.809-16.819,16.809H56.736c-9.269,0-16.815-7.537-16.815-16.809V79.682c0-1.116,0.421-2.195,1.178-3.008
		l33.213-35.832c0.835-0.905,2.01-1.424,3.243-1.424h659.026c1.23,0,2.406,0.519,3.24,1.424l33.214,35.832
		c0.76,0.813,1.184,1.892,1.184,3.008V360.092z"/>
	<path d="M645.643,390.43H168.5c-13.153,0-17.427,6.008-20.053,15.707l-23.836,109.932h564.92L665.664,406.02
		C663.066,396.438,658.794,390.43,645.643,390.43z M210.884,503.596c-9.723,0-17.624-7.914-17.624-17.633
		c0-9.721,7.901-17.623,17.624-17.623c9.715,0,17.625,7.902,17.625,17.623C228.509,495.682,220.599,503.596,210.884,503.596z
		 M308.514,477.459c0,6.217-5.066,11.285-11.301,11.285h-9.809c-6.229,0-11.296-5.068-11.296-11.285v-3.195
		c0-6.227,5.066-11.291,11.296-11.291h9.809c6.234,0,11.301,5.064,11.301,11.291V477.459z M538.026,477.459
		c0,6.217-5.066,11.285-11.289,11.285h-9.811c-6.229,0-11.304-5.068-11.304-11.285v-3.195c0-6.227,5.074-11.291,11.304-11.291h9.811
		c6.223,0,11.289,5.064,11.289,11.291V477.459z M603.255,503.596c-9.716,0-17.624-7.914-17.624-17.633
		c0-9.721,7.908-17.623,17.624-17.623c9.72,0,17.628,7.902,17.628,17.623C620.883,495.682,612.975,503.596,603.255,503.596z"/>
	<path d="M79.486,48.271L48.767,81.42v278.672c0,4.397,3.572,7.967,7.97,7.967H757.4c4.392,0,7.973-3.569,7.973-7.967V81.42
		l-30.719-33.149H79.486z M579.959,300.475H234.191c-37.388,0-67.795-30.412-67.795-67.791c0-37.373,30.407-67.789,67.795-67.789
		h345.768c37.37,0,67.787,30.405,67.787,67.789C647.746,270.063,617.329,300.475,579.959,300.475z"/>
	<path d="M579.959,169.314H234.191c-34.942,0-63.373,28.433-63.373,63.369c0,34.938,28.431,63.363,63.373,63.363h345.768
		c34.937,0,63.36-28.426,63.36-63.363C643.319,197.742,614.896,169.314,579.959,169.314z M611.176,244.332l-5.521,9.582
		c-0.312,0.527-0.128,1.202,0.4,1.504l7.963,4.609c-6.822,8.484-16.7,14.184-27.426,15.828v-9.201c0-0.607-0.495-1.107-1.108-1.107
		h-11.062c-0.61,0-1.106,0.5-1.106,1.107v9.201c-10.727-1.645-20.609-7.344-27.43-15.828l7.962-4.609
		c0.533-0.302,0.714-0.977,0.405-1.504l-5.529-9.582c-0.147-0.26-0.39-0.445-0.667-0.515c-0.286-0.084-0.589-0.048-0.84,0.108
		l-7.991,4.605c-1.965-5.049-2.96-10.365-2.96-15.848c0-5.467,0.995-10.799,2.96-15.842l7.991,4.609
		c0.531,0.303,1.206,0.132,1.507-0.401l5.535-9.596c0.148-0.245,0.187-0.548,0.11-0.829c-0.078-0.283-0.263-0.533-0.515-0.679
		l-7.969-4.595c6.82-8.491,16.699-14.189,27.43-15.834v9.195c0,0.607,0.496,1.104,1.106,1.104h11.062
		c0.613,0,1.108-0.496,1.108-1.104v-9.195c10.726,1.645,20.604,7.343,27.426,15.834l-7.963,4.595
		c-0.528,0.315-0.712,0.989-0.4,1.508l5.521,9.596c0.147,0.24,0.393,0.435,0.673,0.505c0.286,0.076,0.588,0.043,0.84-0.104
		l7.983-4.609c1.969,5.039,2.963,10.364,2.963,15.842c0,5.482-0.994,10.799-2.963,15.848l-7.983-4.605
		c-0.252-0.156-0.554-0.192-0.84-0.108C611.568,243.887,611.323,244.072,611.176,244.332z M265.415,244.332l-5.536,9.582
		c-0.304,0.527-0.121,1.202,0.403,1.504l7.97,4.609c-6.827,8.484-16.708,14.184-27.432,15.828v-9.201
		c0-0.607-0.491-1.107-1.104-1.107h-11.062c-0.614,0-1.106,0.5-1.106,1.107v9.201c-10.728-1.645-20.604-7.344-27.431-15.828
		l7.968-4.609c0.527-0.302,0.712-0.977,0.4-1.504l-5.529-9.582c-0.137-0.26-0.386-0.445-0.67-0.515
		c-0.287-0.084-0.589-0.048-0.839,0.108l-7.984,4.605c-1.967-5.049-2.965-10.365-2.965-15.848c0-5.467,0.998-10.799,2.965-15.842
		l7.984,4.609c0.25,0.146,0.552,0.18,0.839,0.104c0.284-0.07,0.533-0.25,0.67-0.505l5.529-9.583c0.312-0.531,0.127-1.205-0.4-1.512
		l-7.968-4.604c6.821-8.491,16.698-14.189,27.431-15.834v9.195c0,0.607,0.492,1.104,1.106,1.104h11.062
		c0.613,0,1.104-0.496,1.104-1.104v-9.195c10.727,1.645,20.609,7.343,27.432,15.834l-7.97,4.595
		c-0.524,0.315-0.707,0.989-0.403,1.508l5.536,9.596c0.141,0.255,0.383,0.435,0.667,0.505c0.285,0.09,0.593,0.043,0.841-0.104
		l7.982-4.609c1.968,5.039,2.968,10.375,2.968,15.842c0,5.482-1,10.799-2.968,15.848l-7.982-4.605
		c-0.248-0.156-0.561-0.192-0.834-0.108C265.798,243.887,265.556,244.072,265.415,244.332z M497.954,250.549
		c0,2.447-1.982,4.416-4.43,4.416H320.606c-2.438,0-4.418-1.969-4.418-4.416v-35.724c0-2.447,1.979-4.418,4.418-4.418h172.918
		c2.447,0,4.43,1.971,4.43,4.418V250.549z"/>
	<path d="M320.606,214.825v35.724h98.368c0.56-5.883,0.857-11.836,0.857-17.865c0-6.024-0.298-11.971-0.857-17.858H320.606z"/>
</g>
</svg>
