<?xml version="1.0" encoding="utf-8"?>
<!-- Generator: Adobe Illustrator 16.0.0, SVG Export Plug-In . SVG Version: 6.00 Build 0)  -->
<!DOCTYPE svg PUBLIC "-//W3C//DTD SVG 1.1//EN" "http://www.w3.org/Graphics/SVG/1.1/DTD/svg11.dtd">
<svg version="1.1" xmlns="http://www.w3.org/2000/svg" xmlns:xlink="http://www.w3.org/1999/xlink" x="0px" y="0px"
	 width="1358.164px" height="992.58px" viewBox="0 0 1358.164 992.58" enable-background="new 0 0 1358.164 992.58"
	 xml:space="preserve">
<g>
	<path d="M356.902,190.346c3.165,0,5.523-1.62,5.523-3.18c0-1.621-2.358-3.172-5.523-3.172c-3.178,0-6.327,1.574-6.327,3.172
		C350.575,188.742,353.725,190.346,356.902,190.346z"/>
	<path d="M409.806,196.643c3.169,0,5.524-1.577,5.524-3.13c0-1.617-2.375-3.18-5.524-3.18c-3.157,0-5.523,1.558-5.542,3.18
		C404.254,195.089,406.641,196.643,409.806,196.643z"/>
	<path d="M203.72,173.739c0,1.622,2.366,3.174,5.517,3.174c3.977,0,6.324-1.574,6.324-3.174c0-1.575-2.366-3.17-6.324-3.17
		C206.086,170.569,203.72,172.165,203.72,173.739z"/>
	<path d="M460.326,202.167c3.188,0,6.334-1.574,6.334-3.177c0-1.547-3.146-2.371-6.334-2.371c-3.139,0-5.514,0.818-5.514,2.371
		C454.813,200.613,457.188,202.167,460.326,202.167z"/>
	<path d="M954.628,153.209c2.354,0,3.94-1.595,3.94-2.374c0-1.595-1.586-2.368-3.94-2.368s-3.959,0.773-3.959,2.368
		C950.669,151.614,952.262,153.209,954.628,153.209z"/>
	<path d="M1288.612,275.597c3.157,0,6.325-1.577,6.325-3.175c0-1.571-3.168-3.127-6.325-3.127c-3.149,0-5.523,1.551-5.546,3.127
		C1283.066,274.043,1285.443,275.597,1288.612,275.597z"/>
	<path d="M1054.104,168.214c2.365,0,3.949-0.824,3.949-2.37c0-0.785-1.604-1.556-3.949-1.556c-2.356,0-3.93,0.78-4.762,1.556
		C1049.342,167.39,1051.726,168.214,1054.104,168.214z"/>
	<path d="M259.002,180.064c3.167,0,6.316-1.616,6.316-3.174c0-1.551-3.149-2.378-6.316-2.378c-3.16,0-5.535,0.798-5.535,2.378
		C253.467,178.467,255.842,180.064,259.002,180.064z"/>
	<path d="M1160.705,180.819c0-0.78-2.375-2.373-3.951-2.373c-2.346,0-4.732,1.593-4.732,2.373c0,0.777,2.387,2.378,4.732,2.378
		C1158.348,183.197,1160.705,181.596,1160.705,180.819z"/>
	<path d="M1104.65,174.493c2.377,0,3.949-0.773,3.949-2.329c0-0.775-1.572-1.595-3.949-1.595c-2.366,0-4.751,0.82-4.751,1.595
		C1099.899,173.72,1102.284,174.493,1104.65,174.493z"/>
	<path d="M1257.832,198.195c2.347,0,4.725-1.601,4.725-2.377c0-1.556-2.378-2.329-3.941-2.329c-2.377,0-4.76,0.783-4.732,2.329
		C1253.883,196.595,1256.258,198.195,1257.832,198.195z"/>
	<path d="M917.514,245.621c3.166,0,6.324-1.577,6.324-3.178c0-1.575-3.158-3.173-6.324-3.173c-3.149,0-5.523,1.598-5.523,3.173
		C911.99,244.07,914.355,245.621,917.514,245.621z"/>
	<path d="M970.428,249.522c3.14,0,6.289-1.575,6.289-3.175c0-1.551-3.149-2.328-6.289-2.328c-3.177,0-5.553,0.801-5.553,2.328
		C964.875,247.97,967.251,249.522,970.428,249.522z"/>
	<path d="M1232.559,271.649c3.158,0,5.531-1.58,5.531-3.174c0-1.574-2.373-3.173-5.531-3.173c-3.178,0-6.316,1.613-6.316,3.173
		C1226.242,270.093,1229.381,271.649,1232.559,271.649z"/>
	<path d="M508.51,200.592c-3.17,0-5.525,1.574-5.525,3.127c0,1.624,2.375,3.175,5.525,3.175c3.176,0,5.553-1.572,5.553-3.175
		C514.063,202.146,511.686,200.592,508.51,200.592z"/>
	<path d="M309.521,179.27c-3.158,0-6.306,1.57-6.325,3.175c0,1.571,3.15,3.125,6.325,3.125c3.149,0,5.534-1.571,5.534-3.125
		C315.055,180.819,312.67,179.27,309.521,179.27z"/>
	<path d="M661.672,215.598c-3.141,0-5.516,1.546-5.516,3.17c0,1.577,2.375,3.13,5.516,3.13c3.177,0,6.324-1.574,6.324-3.13
		C667.996,217.144,664.849,215.598,661.672,215.598z"/>
	<path d="M1180.436,268.494c3.156,0,6.316-1.57,6.316-3.173c0-1.577-3.16-3.125-6.316-3.125c-3.158,0-5.533,1.548-5.533,3.125
		C1174.902,266.945,1177.277,268.494,1180.436,268.494z"/>
	<path d="M1129.122,261.378c3.151,0,5.535-0.783,5.535-2.333c0-1.617-2.384-3.178-5.535-3.178c-3.94,0-6.314,1.558-6.314,3.178
		C1122.808,260.596,1125.182,261.378,1129.122,261.378z"/>
	<path d="M1076.22,259.795c3.177,0,5.532-0.773,5.532-2.372c0-2.351-2.355-3.174-5.532-3.174c-3.179,0-5.515,0.823-5.515,3.174
		C1070.705,259.022,1073.07,259.795,1076.22,259.795z"/>
	<path d="M1023.313,254.272c3.157,0,5.535-1.574,5.535-3.174c0-1.576-2.378-3.132-5.535-3.132c-3.165,0-6.316,1.553-6.316,3.132
		C1016.997,252.715,1020.148,254.272,1023.313,254.272z"/>
	<path d="M175.279,745.408c-2.366,0-3.912,1.547-4.724,3.945c0,2.397,1.583,4.727,3.95,4.727c2.355,0,4.732-2.329,4.732-4.727
		C179.238,746.96,177.664,745.408,175.279,745.408z"/>
	<path d="M1189.929,807.783c-3.177,0-5.525,2.371-5.525,5.548c0,3.128,2.349,5.503,5.525,5.503c3.149,0,5.523-2.378,5.523-5.503
		C1195.452,810.154,1193.078,807.783,1189.929,807.783z"/>
	<path d="M1188.325,874.091c-3.138,0-5.523,2.374-5.523,5.546c0,3.175,2.358,5.5,5.523,5.5c2.358,0,4.732-2.325,4.732-5.5
		C1193.068,876.465,1190.684,874.091,1188.325,874.091z"/>
	<path d="M1358.164,326.149l-9.482-39.478l7.881-33.152l-11.057-34.711c-20.525-3.168-40.255-6.347-60.807-8.718l-7.09-23.657
		l-43.432-3.948l-2.373,9.452l3.157,9.5c-18.929-2.376-35.532-3.929-54.49-7.106l-3.146-26.049l-43.433-2.376l-0.791,6.323
		l3.169,15.776c-2.378-0.776-5.545-0.776-7.901-1.553l-3.949-27.647l-41.064-3.175l-1.564,6.326l1.564,17.369
		c-2.365,0-4.732-0.815-6.315-0.815l-3.951-26.057l-41.845-3.172l-0.785,7.921l1.586,14.228c-18.158-3.174-36.324-5.55-54.479-8.725
		l-1.597-26.049l-42.638-3.177v22.104c-2.376-0.774-4.742-0.774-7.1-1.553l0.803-21.324l-41.857-5.545l-1.572,19.771
		c-18.15-3.175-36.324-6.326-54.481-9.499l2.358-20.55l0.789-4.726l-41.07-3.17l-3.179,22.103c-2.347-0.783-4.724-0.783-7.099-1.558
		l3.178-21.327v-4.72l-40.254-3.947l-3.178,22.876c-2.348,0-4.723-0.78-7.109-0.78l4.762-22.924v-4.728l-39.48-3.17l-6.316,23.7
		c-16.592-3.169-33.164-6.323-49.756-9.495l7.099-23.657v-5.548l-37.907-3.17l-10.274,25.27c-2.376,0-3.94-0.776-6.315,0
		l7.908-25.27v-5.503l-37.125-3.177l-10.266,25.277c-15.791-2.395-32.353-5.551-48.163-8.721l12.661-26.828v-5.502l-38.707-2.378
		l-14.999,27.647c-1.602-0.815-3.952-0.815-6.326-1.6l15.8-29.2V37.93l-37.906-1.597l-16.592,28.426c-0.781,0-1.555,0-2.348,0
		l14.999-27.602l-0.801-6.328l-37.897-3.177l-17.375,28.427c-15.025-1.597-29.234-4.768-44.24-7.104l19.73-26.869l-1.564-8.68
		l-38.709-2.374V4.775L277.129,0l-26.065,33.155c-19.713-3.953-39.444-7.875-59.194-11.054l-71.824,89.232l10.247,57.652
		l-3.147,3.17l-33.186-1.599L0,285.066l15.037,63.979L1.592,366.37l11.069,45.029l33.946,4.725l45.006-67.906l26.82,0.823
		l15.008,90.799c0.82,6.289,3.176,9.453,8.691,11.834l42.725,228.965l-18.959,69.478l-52.094,105.808l11.04,43.431l38.706,3.945
		l142.113-310.271l-3.948-40.249l-31.581-6.329l-31.562,60.025l-7.108,3.131l-10.248-76.582l69.469,7.924l2.348-1.604l812.503,97.91
		l0.782,1.551l82.904,10.28l-10.277,41.874l-28.412-4.73l-12.633,41.055l14.998,258.193l40.254,7.102l15.007-44.205l-7.104-70.298
		l-2.377-51.333l103.442-332.398l3.951,16.551l37.889,6.326l14.204-44.983l-18.155-86.852L1358.164,326.149z M1327.31,221.898
		l3.932,18.154l-38.681-4.729l-0.799-1.579l37.104,3.953l-3.149-13.422l-37.895-6.325l-0.784-2.332L1327.31,221.898z
		 M1275.998,187.166l16.563,55.253l-1.574,8.68l-41.053-3.132l1.572-8.716l-15.789-54.458L1275.998,187.166z M1243.606,231.376
		l-59.203-8.682h-0.019v-2.381l58.432,9.503L1243.606,231.376z M1181.227,198.214l55.281,7.881l0.772,2.399l-56.054-8.72V198.214z
		 M1136.232,168.214l38.67,2.327l8.689,58.427l-1.582,7.925l-40.264-3.99l0.783-7.06L1136.232,168.214z M1122.007,159.495
		l9.465,66.349l-1.574,7.06l-40.272-4.728l0.799-7.881l-5.523-63.133L1122.007,159.495z M1072.269,154.789l6.335,63.979
		l-1.584,7.879l-40.244-3.175l0.791-7.098l-3.194-64.759L1072.269,154.789z M1034.352,204.562v2.33l-53.695-8.677v-2.376
		L1034.352,204.562z M977.507,165.844l54.489,8.672l0,0v2.376l-54.489-9.496V165.844z M973.559,139.009l4.741,67.086l-0.793,9.502
		l-41.063-3.954l1.564-8.72l-2.355-67.089L973.559,139.009z M979.894,217.947l1.573-11.829l52.905,7.102l0.792,11.826
		l148.438,14.225l2.378-8.681l59.23,7.881l3.156,11.824l43.422,3.173l1.574-5.499l62.378,5.499l-7.88,32.379l-34.747-1.551
		l-4.725-23.702l-584.339-63.975l100.284,7.921l1.574-18.154l53.706,8.678l-0.8,5.548v10.234L979.894,217.947z M1263.355,258.202
		l42.604,3.177l15.008,63.97l-2.35,9.498l-45.014-3.947l0.801-10.278L1263.355,258.202z M1208.086,253.469l42.627,3.957
		l16.584,65.528l-0.801,9.498l-45.787-4.729l0.782-8.722L1208.086,253.469z M1155.953,248.75l42.63,3.17l13.425,69.479v7.105
		l-45.777-3.955v-7.879L1155.953,248.75z M1320.213,315.077l-0.803-3.177l11.086,0.778l-3.959-15.778l-10.248-0.773l-0.83-2.376
		l12.635,0.775l5.531,21.324L1320.213,315.077z M1104.65,242.418l42.631,3.955l8.672,71.853v8.72l-45.779-3.173v-9.502
		L1104.65,242.418z M1052.518,236.1l42.67,3.953l7.097,77.401l-1.592,7.096l-44.997-3.945v-7.105L1052.518,236.1z M1001.189,233.769
		l41.073,3.172l5.534,79.753v7.881l-45.798-3.955V312.7L1001.189,233.769z M992.517,314.303l-0.804,7.879l-44.984-4.729v-7.103
		l3.94-82.126l41.044,3.945L992.517,314.303z M939.61,226.647l-3.958,85.256v8.718l-45.77-4.768v-8.677l8.674-83.682L939.61,226.647
		z M660.105,319.001l-46.597-4.728v-8.672l34.766-110.559l41.046,4.733l-30.008,110.551L660.105,319.001z M488.75,317.47
		l-45.789-3.95v-9.498l58.43-127.908l38.67,3.95l-52.094,127.908L488.75,317.47z M257.418,322.98l-47.371-3.953v-11.055
		l98.701-155.555l18.146,1.619v4.726l20.523,1.551l-90.802,151.609L257.418,322.98z M255.07,153.24h10.248l4.75-6.352l30.799,3.173
		L199.016,311.125v11.056l-45.786-5.511l-0.792-10.271L255.07,153.24z M143.717,315.077v9.499l-47.38-3.955v-10.273l111.335-162.66
		l37.104,4.73L143.717,315.077z M333.201,131.888l-7.881,14.221v4.727l-18.958-0.777v-4.768l-33.146-2.326l10.258-14.233
		L333.201,131.888z M288.197,121.637l1.574-2.375l47.381,4.725l-0.782,1.592L288.197,121.637z M269.266,305.623l85.279-145.332
		l12.633,0.847l27.648,2.326l-79.752,146.109v11.823l-45.797-3.947v-11.826H269.266z M327.698,303.247l78.95-138.178l38.689,4.723
		l-71.854,138.181v11.833l-45.786-4.729V303.247z M454,170.569l39.48,4.77l-62.379,130.283v11.046l-44.993-4.769l-0.812-10.273
		L454,170.569z M529.814,151.637l-6.336,15v8.723l-26.036-2.38l-0.804-1.549l-26.026-2.416v-3.172l8.673-17.376L529.814,151.637z
		 M480.867,140.565l0.792-1.556l52.104,4.73l-0.793,2.381L480.867,140.565z M496.668,304.003l53.697-120.787l39.471,3.947
		L542.464,307.95v8.719l-45.796-3.17V304.003z M555.889,302.45l41.857-113.731l41.045,5.543l-37.906,112.911v10.276l-44.996-4.771
		V302.45z M677.488,170.569l-2.365,8.717l-0.801,10.276l-67.903-3.995l11.841-0.775l7.108-19.724L677.488,170.569z M626.951,157.962
		l0.764-2.377l52.13,5.546v2.333L626.951,157.962z M668.77,304.783l28.423-104.191l41.057,4.728L712.2,308.731v9.495l-43.431-3.172
		V304.783z M722.486,303.247l25.262-96.352l40.256,4.77l-22.107,96.308v10.275l-43.41-4.727V303.247L722.486,303.247z
		 M780.904,306.4l16.603-93.179l41.026,3.95l-13.396,93.18v9.456l-44.233-3.135V306.4L780.904,306.4z M838.533,307.176l8.701-89.229
		l41.055,3.947l-6.324,89.231v8.68l-43.432-3.956V307.176z M825.909,180.064l0.792-2.373l53.678,8.718v2.333L825.909,180.064z
		 M888.289,130.292l36.333,4.77l-1.585,67.882v8.72l-41.855-3.17v-8.72L888.289,130.292z M883.566,153.24v1.549l-55.279-8.68v-2.371
		L883.566,153.24z M793.557,110.584l34.73,3.172l-7.11,78.139v9.498l-41.044-2.375v-10.276L793.557,110.584z M746.176,101.864
		l34.729,3.177l-10.258,82.125v10.278l-41.063-3.952v-9.493L746.176,101.864z M701.18,93.21l34.719,3.175l-18.145,86.079v10.228
		l-40.254-3.127l-0.803-10.276L701.18,93.21z M690.896,119.236l-0.793,2.401l-50.53-8.719l0.793-1.556L690.896,119.236z
		 M612.727,74.26l34.748,3.172l-30.816,96.308v8.72l-41.076-2.373v-9.496L612.727,74.26z M566.938,65.538l34.74,3.174
		l-33.957,100.304v9.451l-41.084-3.127v-9.495L566.938,65.538z M552.722,93.964l-0.801,1.599l-47.382-7.099l0.801-2.376
		L552.722,93.964z M482.461,48.206l34.73,1.552L467.425,157.94v7.873l-41.046-3.167v-7.879L482.461,48.206z M439.031,37.934
		l34.729,2.329l-58.43,112.946v8.678l-38.67-3.947l-0.801-8.723L439.031,37.934z M395.59,28.454l35.541,3.955l-65.527,116.86v9.493
		l-37.106-1.555v-11.049L395.59,28.454z M375.859,60.831l-1.611,1.558l-43.413-7.059l0.803-2.376L375.859,60.831z M314.273,12.676
		l36.302,1.556l-86.86,128.732l0.802,8.672l-40.255-3.95l-0.802-9.499L314.273,12.676z M277.148,0.825l33.957,4.73L214.76,136.615
		v9.493l-38.67-3.992l-0.791-10.233L277.148,0.825z M203.72,31.606l41.849,6.349l-1.584,2.331l-39.463-6.281l-51.34,65.531
		l41.055,4.723l-1.564,1.555l-43.441-4.73L203.72,31.606z M122.383,112.137l63.965,3.146l-12.645,17.381v3.17h-8.681l-25.266,33.158
		l-7.899-0.779L122.383,112.137z M165.814,137.412l7.872,0.777v5.55l25.282,3.17L79.736,318.247l0.782,10.278L34.73,324.58
		l-1.574-11.06L165.814,137.412z M107.404,180.84l20.533,1.605l-1.559,2.35l-17.372-1.556l-70.279,88.409l22.899,0.778l-2.377,2.375
		l-25.274-0.78L107.404,180.84z M14.217,410.631L3.178,367.156l31.58,0.825l11.049,46.602L14.217,410.631z M137.391,446.956
		c3.14,0,6.326,0,8.684,0l-15.791-97.132l32.373,0.78l14.205,80.529C180.049,444.562,152.391,457.189,137.391,446.956z
		 M227.42,352.157h31.582l7.899,56.874c1.565,13.429-23.683,21.327-38.708,10.28c3.939,1.549,6.326,1.549,8.691,0.775
		L227.42,352.157z M269.25,412.163l-7.883-60.803c2.348,0,5.534,0,7.883,0l5.523,62.377c0.801,15.823,44.201,8.723,42.639-6.281
		l-4.742-55.299c2.385,0,3.978,0,6.326,0l6.324,52.151c1.574,14.999,44.204,7.897,42.631-6.326l-5.525-45.806
		c3.178,0,5.525,0,7.91,0l4.714,45.029c1.583,15,44.231,8.683,43.43-6.326l-4.724-37.883c2.348,0,4.724,0,7.881,0l1.584,36.393
		c1.594,15.779,44.232,8.678,43.439-5.543l-1.581-30.006c2.374,0,4.732,0,7.099,0l2.383,32.382
		c0.793,15.001,44.224,10.273,43.423-3.95l-1.575-27.652c2.357,0,4.73,0.775,7.882,0.775l0.812,25.279
		c0,15.821,43.4,10.278,43.4-3.952l-0.781-20.549c2.347,0,5.523,0,7.871,0l0.801,18.973c0.802,15.781,43.423,11.056,43.423-3.95
		l-0.792-14.223c1.593,0,2.375,0,3.176,0l0.803,14.223c0,14.996,43.43,15.781,43.43,0.773l-0.811-13.419c3.148,0,5.523,0,7.881,0
		l0.801,9.496c0,15,43.431,15.779,42.621,0.78v-9.499c3.166,0,6.335,0.823,8.709,0.823v6.276
		c0.773,15.047,44.205,15.826,43.432,0.78v-6.283c3.14,0,6.326,0,8.673,0.778v2.378c0.802,14.999,44.224,15.773,43.431,0.777v-2.378
		c3.15,0,5.525,0.822,8.691,0.822c0,14.975,43.42,15.777,43.42,1.549v-0.773c131.84,10.273,265.308,15.776,397.157,21.324
		l-30.798,103.411l-3.95-0.78l-23.681,87.634l-93.188-8.678v2.33l-826.672-94.758l-0.803-3.947l-83.673-10.273l-2.387-22.106
		c10.275-2.327,16.601-7.874,16.582-14.219l-12.631-73.435c3.176,0,5.532,0.783,8.709,0.783l8.673,67.126
		C228.984,433.485,271.615,426.388,269.25,412.163z M276.355,352.977l31.592,0.801l7.107,50.53
		c1.574,14.22-23.68,21.316-38.699,11.048c3.168,0.773,6.316,0.773,8.684,0L276.355,352.977z M327.698,353.75l31.579,0.803
		l5.523,40.251c2.35,14.226-23.68,21.325-37.906,11.056c3.178,0.82,5.534,0.82,7.91,0L327.698,353.75z M378.981,354.558
		l31.599,0.773l4.732,32.38c2.375,13.424-23.691,21.319-38.68,10.275c3.939,1.598,6.324,1.598,8.664,0.775L378.981,354.558z
		 M430.301,356.104h31.609l1.575,24.501c2.346,14.22-23.7,21.326-37.897,11.049c3.14,0.828,5.514,0.828,7.872,0L430.301,356.104z
		 M480.879,356.927l33.153,0.78l0.782,22.098c1.575,11.055-22.908,17.381-37.896,8.727c3.949,1.548,6.326,1.548,8.701,0
		L480.879,356.927z M532.198,357.726l31.562,0.781l0.801,14.996c2.377,14.226-22.104,19.778-37.104,9.5
		c3.176,1.553,6.335,0.78,8.701,0L532.198,357.726z M585.113,358.503l31.572,0.776l-0.793,9.5
		c1.574,12.643-22.125,18.149-37.105,8.673c3.96,1.6,6.326,1.6,8.683,0L585.113,358.503z M632.496,360.08h30.777v0.019l0.801,7.057
		c0,14.267-26.056,17.376-39.48,5.55c3.169,1.601,6.326,1.601,8.692,0.78L632.496,360.08z M683.796,360.858l31.581,0.799v0.777
		c0,13.422-26.057,18.152-39.49,6.323c3.168,1.599,5.543,1.599,8.712,1.599L683.796,360.858z M735.898,361.631l31.583,0.803
		c0.8,14.226-26.049,18.975-39.481,7.102c3.178,1.597,6.326,1.597,8.702,0.82L735.898,361.631z M780.904,366.384
		c3.178,1.597,5.542,1.597,7.902,0.772v-4.722l30.795,0.819C815.654,374.306,792.774,377.433,780.904,366.384z M832.255,366.384
		c3.95,1.597,6.306,1.597,8.672,0.772v-3.125h30.007v0.021C866.209,374.324,844.086,376.658,832.255,366.384z M219.52,421.682
		c2.366,13.401-24.48,21.324-38.679,10.234c3.14,1.595,5.524,1.595,7.899,0l-12.632-81.312l32.353,0.775L219.52,421.682z
		 M127.908,897.016l-10.275-36.33l-2.367-6.322l35.551,1.574l-3.178,7.101l9.475,37.148L127.908,897.016z M172.941,787.234
		l-15.01-2.33l31.582-116.859l17.373,0.777L172.941,787.234z M223.46,706.701l-8.7-0.775l-6.326-38.705h-21.295l-1.576,9.498
		l-41.045-225.04c11.841,3.177,22.889-1.598,32.344-10.271L223.46,706.701z M290.572,540.096l-81.336-9.455l11.857,79.751h-3.949
		l-29.216-172.16c1.585,0.804,3.159,1.619,4.743,0.777l7.1,37.148l82.9,10.235v3.995l-82.1-9.506l7.881,47.388l82.129,9.492v2.334
		H290.572z M209.236,526.709l-7.1-44.246l1005.146,121.628l-12.622,40.254L209.236,526.709z M1197.781,648.274l-90.783-11.054
		v-2.371l91.585,11.052l13.425-48.159l-92.377-11.051v-3.949l93.188,10.275l26.037-89.23h3.961l-63.153,223.465l-3.177,0.778
		L1197.781,648.274z M1205.71,948.341l-2.366,5.506l-11.842,36.323l-31.579-5.502h-6.325l11.85-42.649L1205.71,948.341z
		 M1178.861,920.691l3.168-130.282l15.779,2.373l-0.801,130.286L1178.861,920.691z M1198.583,818.036v-26.058l-16.573-3.17
		l-12.633,38.701l-7.088-1.601l121.58-417.658l5.516,1.557l1.584,18.147l-8.691,31.6l16.592,11.056l1.582,18.149L1198.583,818.036z
		 M16.602,345.058L2.376,285.074l49.71,0.733l-20.533,27.654l1.594,12.597l48.936,3.95l12.634-17.37v9.493l49.746,4.777l7.099-8.727
		l48.973,6.331l3.961-3.95l56.054,7.099l5.522-7.921l52.904,5.545l3.953-6.321l52.902,3.953l4.725-7.106l56.846,7.106l0.811-3.177
		l54.479,3.177l0.791-4.728l54.48,3.947l2.386-6.325l54.479,5.548l2.347-3.95l57.648,4.723v-3.95l52.104,3.95v-3.95l55.28,4.733
		l0.801-3.95l56.854,4.768l0.783-4.768l55.271,3.95l0.801-3.174l54.479,3.992v-3.172l56.846,4.724v-2.369l52.904,3.992l0.804-3.992
		l54.487,4.765v-1.595l54.471,3.174l0.81-0.775l55.263,3.172v-0.78l53.688,3.95v-0.821l50.529,3.951l2.384-10.231l30.8,0.778
		l-17.375,55.257C870.934,356.104,457.969,350.604,16.602,345.058z M1355.714,471.405l-13.405,44.254l-34.73-7.102l14.198-41.871
		L1355.714,471.405z"/>
	<path d="M559.039,211.644c3.176,0,5.521-0.796,5.521-2.373c0-1.578-2.346-3.175-5.521-3.175c-3.961,0-6.317,1.617-6.317,3.175
		C552.722,210.823,555.078,211.644,559.039,211.644z"/>
	<path d="M191.889,691.724c2.377,0,4.732-2.401,4.732-4.732c0-2.392-1.609-3.94-3.949-3.94c-2.377,0-3.959,1.549-4.743,3.94
		C187.929,689.351,189.533,691.724,191.889,691.724z"/>
	<path d="M622.219,97.14c2.375,0,3.948-0.776,3.948-2.381c0-0.778-1.602-1.548-3.948-1.548c-2.376,0-3.969,0.776-3.959,1.548
		C618.26,96.361,619.843,97.14,622.219,97.14z"/>
	<path d="M807.754,129.519c2.375,0,3.949-0.787,3.949-2.377c0-0.776-1.574-1.562-3.949-1.562c-2.367,0-3.951,0.786-3.951,1.562
		C803.803,128.732,805.404,129.519,807.754,129.519z"/>
	<path d="M718.543,111.342c0-1.556-2.373-2.376-3.94-2.376c-2.374,0-4.749,0.841-4.749,2.376c0,0.774,2.375,1.55,4.749,1.55
		C716.188,112.892,718.543,112.116,718.543,111.342z"/>
	<path d="M759.58,120.842c2.377,0,4.752-0.828,4.752-2.38c0-0.776-2.375-1.596-4.752-1.596c-1.574,0-3.93,0.82-3.958,1.596
		C755.622,120.014,758.006,120.842,759.58,120.842z"/>
	<path d="M717.754,221.898c0-1.581-2.377-3.13-5.525-3.13c-3.157,0-6.326,1.549-6.326,3.13c0,1.621,3.169,3.174,6.326,3.174
		C715.377,225.067,717.754,223.494,717.754,221.898z"/>
	<path d="M610.34,215.617c3.158,0,6.318-1.619,6.318-3.177c0-1.616-3.149-3.169-6.318-3.169c-3.139,0-5.496,1.553-5.525,3.169
		C604.814,214.021,607.201,215.617,610.34,215.617z"/>
	<path d="M769.848,228.224c0-1.577-2.376-3.177-5.516-3.177c-3.156,0-6.326,1.6-6.326,3.177c0,1.614,3.147,3.174,6.326,3.174
		C767.5,231.398,769.848,229.817,769.848,228.224z"/>
	<path d="M866.975,235.324c-3.168,0-6.316,0.776-6.316,2.374c0,1.575,3.148,3.173,6.316,3.173c3.158,0,5.535-1.617,5.535-3.173
		C872.51,236.1,870.133,235.324,866.975,235.324z"/>
	<path d="M905.664,143.716c2.373,0,3.948-0.781,3.948-1.6c0-1.551-1.575-2.327-3.948-2.327c-2.359,0-3.961,0.775-3.961,2.327
		C901.703,142.938,903.305,143.716,905.664,143.716z"/>
	<path d="M815.654,228.994c-3.167,0-5.525,1.597-5.525,3.174c0,1.622,2.358,3.175,5.525,3.175c3.947,0,6.334-1.575,6.334-3.175
		C821.988,230.591,819.602,228.994,815.654,228.994z"/>
	<path d="M161.082,172.188c3.178,0,6.324-1.619,6.324-3.172c0-1.626-3.146-3.172-6.324-3.172c-3.15,0-5.515,1.546-5.515,3.172
		C155.567,170.593,157.932,172.188,161.082,172.188z"/>
	<path d="M314.273,39.487c2.374,0,3.949-1.55,3.949-2.328c0-0.823-1.575-2.378-3.949-2.378c-2.377,0-3.941,1.553-3.941,2.378
		C310.332,37.934,311.926,39.487,314.273,39.487z"/>
	<path d="M404.282,53.713c0-1.556-1.583-2.383-3.948-2.383c-2.357,0-3.961,0.823-3.961,2.383c0,0.769,1.604,1.596,3.961,1.596
		C402.699,55.309,404.282,54.482,404.282,53.713z"/>
	<path d="M273.99,30.81c1.594,0,3.959-0.78,3.959-2.376c0-0.773-2.375-1.556-3.959-1.556c-2.375,0-4.74,0.783-4.74,1.556
		C269.25,30.03,271.615,30.81,273.99,30.81z"/>
	<path d="M442.961,63.183c2.377,0,3.94-0.82,3.94-2.371c0-0.778-1.563-1.558-3.94-1.558c-2.384,0-3.93,0.783-3.948,1.558
		C439.013,62.362,440.577,63.183,442.961,63.183z"/>
	<path d="M580.371,86.864c0-1.556-2.385-2.331-4.762-2.331c-1.572,0-3.939,0.775-3.939,2.331c0,0.773,2.367,1.601,3.939,1.601
		C577.996,88.464,580.371,87.637,580.371,86.864z"/>
	<path d="M487.985,72.641c2.349,0,4.724-0.778,4.724-2.331c0-0.821-2.375-1.598-4.724-1.598c-2.385,0-3.948,0.777-3.948,1.598
		C484.037,71.855,485.601,72.641,487.985,72.641z"/>
</g>
</svg>
